<svg width="192" height="192" viewBox="0 0 192 192" fill="none" xmlns="http://www.w3.org/2000/svg">
<path d="M36 16C20.6305 16 8 28.6305 8 44C8 49.2222 9.6642 53.8089 11.7031 58.9062C13.742 64.0036 16.3411 69.3152 18.9219 74.2188C24.0835 84.0259 29.2188 92.2344 29.2188 92.2344L36 103.094L42.7812 92.2344C42.7812 92.2344 47.9165 84.0259 53.0781 74.2188C55.659 69.3152 58.2579 64.0036 60.2969 58.9062C62.3358 53.8089 64 49.2222 64 44C64 28.6305 51.3695 16 36 16ZM36 32C42.7265 32 48 37.2735 48 44C48 44.7778 47.1642 48.6911 45.4531 52.9688C43.7421 57.2464 41.341 62.1848 38.9219 66.7812C37.466 69.5474 37.3276 69.5521 36 71.8906C34.6724 69.5521 34.534 69.5474 33.0781 66.7812C30.6589 62.1848 28.258 57.2464 26.5469 52.9688C24.8358 48.6911 24 44.7778 24 44C24 37.2735 29.2735 32 36 32ZM156 96C140.63 96 128 108.63 128 124C128 129.222 129.664 133.809 131.703 138.906C133.742 144.004 136.341 149.315 138.922 154.219C144.084 164.026 149.219 172.234 149.219 172.234L156 183.094L162.781 172.234C162.781 172.234 167.916 164.026 173.078 154.219C175.659 149.315 178.258 144.004 180.297 138.906C182.336 133.809 184 129.222 184 124C184 108.63 171.37 96 156 96ZM156 112C162.727 112 168 117.274 168 124C168 124.778 167.164 128.691 165.453 132.969C163.742 137.246 161.341 142.185 158.922 146.781C157.466 149.547 157.328 149.552 156 151.891C154.672 149.552 154.534 149.547 153.078 146.781C150.659 142.185 148.258 137.246 146.547 132.969C144.836 128.691 144 124.778 144 124C144 117.274 149.273 112 156 112ZM32 120V136H48V120H32ZM64 120V136H80V120H64ZM96 120V136H112V120H96Z" fill="#FE7575"/>
</svg>
