<svg width="48" height="49" viewBox="0 0 48 49" fill="none" xmlns="http://www.w3.org/2000/svg">
<path d="M20 4.75195C11.1871 4.75195 4 11.9391 4 20.752C4 25.16 5.79905 29.1584 8.69531 32.0566L4 36.752H16V24.752L11.5156 29.2363C9.34599 27.0685 8 24.0765 8 20.752C8 14.1008 13.3489 8.75195 20 8.75195C26.6511 8.75195 32 14.1008 32 20.752C32 27.4031 26.6511 32.752 20 32.752V36.752C23.8992 36.752 27.4768 35.342 30.2578 33.0098L31.9961 34.748L32 36.752L40 44.752L44 40.752L36 32.752L33.9922 32.7441L32.2578 31.0098C34.59 28.2287 36 24.6512 36 20.752C36 11.9391 28.8129 4.75195 20 4.75195Z" fill="#E6DF44"/>
</svg>
