<svg width="48" height="49" viewBox="0 0 48 49" fill="none" xmlns="http://www.w3.org/2000/svg">
<path d="M8 6.75195V22.752H12V6.75195H8ZM20 6.75195C16.7101 6.75195 14 9.46201 14 12.752V16.752C14 20.0419 16.7101 22.752 20 22.752C23.2899 22.752 26 20.0419 26 16.752V12.752C26 9.46201 23.2899 6.75195 20 6.75195ZM28 6.75195V22.752H32V6.75195H28ZM36 6.75195V22.752H40V6.75195H36ZM20 10.752C21.1301 10.752 22 11.6219 22 12.752V16.752C22 17.882 21.1301 18.752 20 18.752C18.8699 18.752 18 17.882 18 16.752V12.752C18 11.6219 18.8699 10.752 20 10.752ZM14 26.752C10.7101 26.752 8 29.462 8 32.752V36.752C8 40.0419 10.7101 42.752 14 42.752C17.2899 42.752 20 40.0419 20 36.752V32.752C20 29.462 17.2899 26.752 14 26.752ZM28 26.752C24.7101 26.752 22 29.462 22 32.752V36.752C22 40.0419 24.7101 42.752 28 42.752C31.2899 42.752 34 40.0419 34 36.752V32.752C34 29.462 31.2899 26.752 28 26.752ZM36 26.752V42.752H40V26.752H36ZM14 30.752C15.1301 30.752 16 31.6219 16 32.752V36.752C16 37.882 15.1301 38.752 14 38.752C12.8699 38.752 12 37.882 12 36.752V32.752C12 31.6219 12.8699 30.752 14 30.752ZM28 30.752C29.1301 30.752 30 31.6219 30 32.752V36.752C30 37.882 29.1301 38.752 28 38.752C26.8699 38.752 26 37.882 26 36.752V32.752C26 31.6219 26.8699 30.752 28 30.752Z" fill="#00266C"/>
</svg>
