<svg width="48" height="49" viewBox="0 0 48 49" fill="none" xmlns="http://www.w3.org/2000/svg">
<path d="M18 2.75195V4.75195V6.75195H10V18.752H6V20.752V30.752H10V34.752H6V36.752V46.752H18V42.752H30V46.752H42V34.752H38V30.752H42V18.752H38V6.75195H30V2.75195H18ZM22 6.75195H26V10.752H22V6.75195ZM14 10.752H18V14.752H30V10.752H34V18.752H30V20.752V22.752H18V18.752H14V10.752ZM10 22.752H14V26.752H10V22.752ZM34 22.752H38V26.752H34V22.752ZM18 26.752H30V30.752H34V34.752H30V36.752V38.752H18V34.752H14V30.752H18V26.752ZM10 38.752H14V42.752H10V38.752ZM34 38.752H38V42.752H34V38.752Z" fill="#2B99F2"/>
</svg>
