<svg width="48" height="49" viewBox="0 0 48 49" fill="none" xmlns="http://www.w3.org/2000/svg">
<path d="M16 6.75195C11.582 6.75195 8 10.334 8 14.752C8 20.752 16 28.752 16 28.752C16 28.752 24 20.752 24 14.752C24 10.334 20.418 6.75195 16 6.75195ZM40 6.75195C38.9391 6.75195 37.9217 7.17338 37.1716 7.92353C36.4214 8.67367 36 9.69109 36 10.752C36 11.8128 36.4214 12.8302 37.1716 13.5804C37.9217 14.3305 38.9391 14.752 40 14.752C41.0609 14.752 42.0783 14.3305 42.8284 13.5804C43.5786 12.8302 44 11.8128 44 10.752C44 9.69109 43.5786 8.67367 42.8284 7.92353C42.0783 7.17338 41.0609 6.75195 40 6.75195ZM16 10.752C18.21 10.752 20 12.542 20 14.752C20 16.962 18.21 18.752 16 18.752C13.79 18.752 12 16.962 12 14.752C12 12.542 13.79 10.752 16 10.752ZM40 18.752C39.4696 18.752 38.9609 18.9627 38.5858 19.3377C38.2107 19.7128 38 20.2215 38 20.752C38 21.2824 38.2107 21.7911 38.5858 22.1662C38.9609 22.5412 39.4696 22.752 40 22.752C40.5304 22.752 41.0391 22.5412 41.4142 22.1662C41.7893 21.7911 42 21.2824 42 20.752C42 20.2215 41.7893 19.7128 41.4142 19.3377C41.0391 18.9627 40.5304 18.752 40 18.752ZM8 26.752C7.46957 26.752 6.96086 26.9627 6.58579 27.3377C6.21071 27.7128 6 28.2215 6 28.752C6 29.2824 6.21071 29.7911 6.58579 30.1662C6.96086 30.5412 7.46957 30.752 8 30.752C8.53043 30.752 9.03914 30.5412 9.41421 30.1662C9.78929 29.7911 10 29.2824 10 28.752C10 28.2215 9.78929 27.7128 9.41421 27.3377C9.03914 26.9627 8.53043 26.752 8 26.752ZM24 26.752C23.4696 26.752 22.9609 26.9627 22.5858 27.3377C22.2107 27.7128 22 28.2215 22 28.752C22 29.2824 22.2107 29.7911 22.5858 30.1662C22.9609 30.5412 23.4696 30.752 24 30.752C24.5304 30.752 25.0391 30.5412 25.4142 30.1662C25.7893 29.7911 26 29.2824 26 28.752C26 28.2215 25.7893 27.7128 25.4142 27.3377C25.0391 26.9627 24.5304 26.752 24 26.752ZM32 26.752C31.4696 26.752 30.9609 26.9627 30.5858 27.3377C30.2107 27.7128 30 28.2215 30 28.752C30 29.2824 30.2107 29.7911 30.5858 30.1662C30.9609 30.5412 31.4696 30.752 32 30.752C32.5304 30.752 33.0391 30.5412 33.4142 30.1662C33.7893 29.7911 34 29.2824 34 28.752C34 28.2215 33.7893 27.7128 33.4142 27.3377C33.0391 26.9627 32.5304 26.752 32 26.752ZM40 26.752C39.4696 26.752 38.9609 26.9627 38.5858 27.3377C38.2107 27.7128 38 28.2215 38 28.752C38 29.2824 38.2107 29.7911 38.5858 30.1662C38.9609 30.5412 39.4696 30.752 40 30.752C40.5304 30.752 41.0391 30.5412 41.4142 30.1662C41.7893 29.7911 42 29.2824 42 28.752C42 28.2215 41.7893 27.7128 41.4142 27.3377C41.0391 26.9627 40.5304 26.752 40 26.752ZM8 34.752C6.93913 34.752 5.92172 35.1734 5.17157 35.9235C4.42143 36.6737 4 37.6911 4 38.752C4 39.8128 4.42143 40.8302 5.17157 41.5804C5.92172 42.3305 6.93913 42.752 8 42.752C9.06087 42.752 10.0783 42.3305 10.8284 41.5804C11.5786 40.8302 12 39.8128 12 38.752C12 37.6911 11.5786 36.6737 10.8284 35.9235C10.0783 35.1734 9.06087 34.752 8 34.752Z" fill="#FE7575"/>
</svg>
