<svg width="166" height="40" viewBox="0 0 166 40" fill="none" xmlns="http://www.w3.org/2000/svg">
<path d="M53.5098 10.1325H57.3973L61.2566 24.5524H61.3129L65.7075 10.1325H69.3696L73.6797 24.5524H73.736L77.6799 10.1325H81.4547L75.6234 29.7658H72.1867L67.5104 15.0408H67.4541L62.7778 29.7658H59.341L53.5098 10.1325Z" fill="black"/>
<path d="M91.0262 28.0742H90.9417C90.6036 28.6658 90.059 29.1557 89.3078 29.544C88.5566 29.9137 87.7021 30.0986 86.7443 30.0986C86.1997 30.0986 85.6269 30.0246 85.0259 29.8767C84.4437 29.7473 83.8991 29.5255 83.3921 29.2112C82.9038 28.8784 82.4906 28.4532 82.1526 27.9356C81.8333 27.3994 81.6737 26.7431 81.6737 25.9667C81.6737 24.9684 81.9554 24.1734 82.5188 23.5818C83.101 22.9903 83.8428 22.5373 84.7442 22.223C85.6457 21.9088 86.641 21.7054 87.7303 21.613C88.8383 21.502 89.9182 21.4466 90.9699 21.4466V21.1138C90.9699 20.2819 90.66 19.6718 90.0402 19.2836C89.4393 18.8769 88.7162 18.6735 87.8711 18.6735C87.1575 18.6735 86.472 18.8214 85.8147 19.1172C85.1574 19.413 84.6128 19.7735 84.1808 20.1987L82.4343 18.1744C83.2043 17.4718 84.0869 16.945 85.0823 16.5937C86.0964 16.2425 87.1199 16.0668 88.1528 16.0668C89.3548 16.0668 90.3407 16.2332 91.1107 16.566C91.8995 16.8987 92.5192 17.3332 92.97 17.8693C93.4207 18.4054 93.7305 19.0063 93.8996 19.6718C94.0874 20.3374 94.1813 21.0029 94.1813 21.6684V29.7658H91.0262V28.0742ZM90.9699 23.6928H90.2093C89.6646 23.6928 89.0918 23.7205 88.4909 23.776C87.8899 23.8129 87.3359 23.9146 86.8288 24.081C86.3218 24.2289 85.8992 24.4507 85.5612 24.7465C85.2231 25.0238 85.0541 25.4121 85.0541 25.9112C85.0541 26.2255 85.1198 26.4936 85.2513 26.7154C85.4015 26.9188 85.5893 27.0852 85.8147 27.2146C86.0401 27.344 86.2936 27.4364 86.5753 27.4919C86.857 27.5473 87.1387 27.5751 87.4204 27.5751C88.5848 27.5751 89.4674 27.27 90.0684 26.66C90.6694 26.0499 90.9699 25.218 90.9699 24.1642V23.6928Z" fill="black"/>
<path d="M105.528 20.0046C105.228 19.6164 104.815 19.2836 104.289 19.0063C103.763 18.7105 103.19 18.5626 102.571 18.5626C102.026 18.5626 101.528 18.6735 101.077 18.8954C100.627 19.1172 100.401 19.4869 100.401 20.0046C100.401 20.5222 100.646 20.892 101.134 21.1138C101.641 21.3172 102.373 21.5298 103.331 21.7516C103.838 21.8625 104.345 22.0104 104.852 22.1953C105.378 22.3802 105.848 22.6298 106.261 22.944C106.693 23.2398 107.04 23.6188 107.303 24.081C107.566 24.5247 107.698 25.0701 107.698 25.7171C107.698 26.5305 107.538 27.2238 107.219 27.7969C106.918 28.3515 106.505 28.8045 105.979 29.1557C105.472 29.507 104.871 29.7566 104.176 29.9045C103.5 30.0708 102.796 30.154 102.063 30.154C101.012 30.154 99.9882 29.9692 98.9929 29.5994C97.9975 29.2112 97.1712 28.6658 96.5139 27.9633L98.7394 25.9112C99.115 26.3919 99.6032 26.7894 100.204 27.1036C100.805 27.4179 101.472 27.5751 102.204 27.5751C102.448 27.5751 102.693 27.5473 102.937 27.4919C103.2 27.4364 103.434 27.3532 103.641 27.2423C103.866 27.1129 104.045 26.9465 104.176 26.7431C104.308 26.5398 104.373 26.2902 104.373 25.9944C104.373 25.4398 104.11 25.0423 103.585 24.802C103.078 24.5617 102.308 24.3213 101.275 24.081C100.768 23.9701 100.27 23.8314 99.7817 23.665C99.3122 23.4802 98.8896 23.2491 98.514 22.9718C98.1384 22.676 97.8379 22.3155 97.6125 21.8903C97.3872 21.4651 97.2745 20.9382 97.2745 20.3096C97.2745 19.5701 97.4247 18.9323 97.7252 18.3962C98.0445 17.8601 98.4577 17.4256 98.9647 17.0929C99.4718 16.7416 100.045 16.4828 100.683 16.3164C101.322 16.15 101.979 16.0668 102.655 16.0668C103.632 16.0668 104.58 16.2332 105.5 16.566C106.439 16.8987 107.181 17.4071 107.726 18.0912L105.528 20.0046Z" fill="black"/>
<path d="M108.693 19.1172V16.4551H111.059V12.6005H114.383V16.4551H117.764V19.1172H114.383V25.3012C114.383 25.8927 114.487 26.3827 114.693 26.7709C114.919 27.1591 115.407 27.3532 116.158 27.3532C116.383 27.3532 116.628 27.3347 116.89 27.2978C117.153 27.2423 117.388 27.1684 117.595 27.0759L117.707 29.6826C117.407 29.7935 117.05 29.8767 116.637 29.9322C116.224 30.0061 115.829 30.0431 115.454 30.0431C114.552 30.0431 113.82 29.9229 113.257 29.6826C112.693 29.4238 112.242 29.0818 111.904 28.6566C111.585 28.2129 111.36 27.7137 111.228 27.1591C111.116 26.586 111.059 25.9759 111.059 25.3289V19.1172H108.693Z" fill="black"/>
<path d="M129.732 21.7794C129.732 21.3541 129.666 20.9474 129.535 20.5592C129.422 20.171 129.234 19.829 128.971 19.5332C128.708 19.2374 128.37 19.0063 127.957 18.8399C127.563 18.655 127.093 18.5626 126.548 18.5626C125.534 18.5626 124.67 18.8676 123.957 19.4777C123.262 20.0693 122.877 20.8365 122.802 21.7794H129.732ZM133.112 23.2768C133.112 23.4247 133.112 23.5726 133.112 23.7205C133.112 23.8684 133.103 24.0163 133.084 24.1642H122.802C122.839 24.6449 122.961 25.0886 123.168 25.4953C123.393 25.8835 123.685 26.2255 124.041 26.5213C124.398 26.7986 124.802 27.0205 125.253 27.1868C125.703 27.3532 126.173 27.4364 126.661 27.4364C127.506 27.4364 128.22 27.2885 128.802 26.9927C129.384 26.6784 129.863 26.2532 130.239 25.7171L132.492 27.4919C131.159 29.2666 129.225 30.154 126.689 30.154C125.638 30.154 124.67 29.9969 123.788 29.6826C122.905 29.3498 122.135 28.8877 121.478 28.2961C120.839 27.7045 120.332 26.9835 119.957 26.1331C119.6 25.2642 119.421 24.2844 119.421 23.1936C119.421 22.1214 119.6 21.1508 119.957 20.2819C120.332 19.3945 120.839 18.6458 121.478 18.0357C122.116 17.4071 122.868 16.9265 123.731 16.5937C124.614 16.2425 125.563 16.0668 126.577 16.0668C127.516 16.0668 128.38 16.224 129.168 16.5382C129.976 16.834 130.671 17.287 131.253 17.8971C131.835 18.4886 132.286 19.2374 132.605 20.1432C132.943 21.0306 133.112 22.0751 133.112 23.2768Z" fill="black"/>
<path d="M136.555 10.1325H140.105V29.7658H136.555V10.1325Z" fill="black"/>
<path d="M165.999 29.7658H153.971C152.374 29.7658 150.919 29.544 149.604 29.1003C148.308 28.6381 147.191 27.9818 146.252 27.1314C145.332 26.2625 144.618 25.2087 144.111 23.9701C143.604 22.713 143.351 21.2894 143.351 19.6995C143.351 18.2021 143.613 16.8433 144.139 15.6231C144.684 14.3845 145.435 13.3215 146.393 12.4341C147.351 11.5467 148.478 10.8627 149.773 10.382C151.088 9.88288 152.506 9.6333 154.027 9.6333C155.548 9.6333 156.957 9.88288 158.253 10.382C159.548 10.8627 160.666 11.5467 161.605 12.4341C162.563 13.3215 163.304 14.3845 163.83 15.6231C164.356 16.8433 164.619 18.2021 164.619 19.6995C164.619 20.5869 164.516 21.4004 164.309 22.1399C164.103 22.8793 163.83 23.5541 163.492 24.1642C163.173 24.7558 162.797 25.2827 162.365 25.7448C161.952 26.1885 161.52 26.5675 161.07 26.8818V26.9373H165.999V29.7658ZM154.027 12.7669C153.069 12.7669 152.168 12.9425 151.323 13.2938C150.496 13.645 149.783 14.1257 149.182 14.7357C148.581 15.3458 148.102 16.0761 147.745 16.9265C147.407 17.7769 147.238 18.7012 147.238 19.6995C147.238 20.7533 147.398 21.7146 147.717 22.5835C148.055 23.434 148.515 24.1642 149.097 24.7743C149.698 25.3843 150.412 25.865 151.238 26.2163C152.065 26.549 152.975 26.7154 153.971 26.7154C154.947 26.7154 155.849 26.549 156.675 26.2163C157.52 25.865 158.243 25.3843 158.844 24.7743C159.445 24.1642 159.915 23.434 160.253 22.5835C160.591 21.7146 160.76 20.7533 160.76 19.6995C160.76 18.7012 160.6 17.7769 160.281 16.9265C159.962 16.0761 159.501 15.3458 158.901 14.7357C158.318 14.1257 157.614 13.645 156.788 13.2938C155.961 12.9425 155.041 12.7669 154.027 12.7669Z" fill="black"/>
<mask id="mask0" mask-type="alpha" maskUnits="userSpaceOnUse" x="5" y="0" width="39" height="40">
<path d="M21.5865 5.87204C22.4419 5.69604 23.3298 5.60004 24.234 5.60004C31.6468 5.60004 37.6748 11.848 37.8622 19.632C37.8622 19.752 37.8703 19.88 37.8703 20C37.8703 20.072 37.8703 20.144 37.8703 20.216C37.8703 20.264 37.8703 20.32 37.8703 20.368C37.683 31.248 29.2763 40 18.9309 40H23.1587C34.6527 40 43.1733 31.048 43.1733 20C43.1733 8.95204 34.6934 4.70726e-05 24.234 4.70726e-05C13.8967 4.70726e-05 5.49009 8.75204 5.30273 19.632C5.30273 19.68 5.30273 19.736 5.30273 19.784C5.30273 19.856 5.30273 19.928 5.30273 20C5.30273 20.128 5.30273 20.248 5.31088 20.368C5.49009 28.152 11.5263 34.4 18.9309 34.4C19.8351 34.4 20.7231 34.304 21.5865 34.128C15.3223 32.824 10.6058 26.992 10.6058 20C10.6058 13.008 15.3223 7.17604 21.5865 5.87204Z" fill="url(#paint0_linear)"/>
</mask>
<g mask="url(#mask0)">
<g opacity="0.68" filter="url(#filter0_d)">
<path d="M19.254 32.2476L24.7873 34.7426L22.7276 36.2692L13.8066 33.9009L19.254 32.2476Z" fill="#C4C4C4" fill-opacity="0.01"/>
</g>
<g opacity="0.68" filter="url(#filter1_d)">
<path d="M19.254 32.2479L24.7873 34.7429L22.7276 36.2695L7.63281 31.9351L19.254 32.2479Z" fill="#C4C4C4" fill-opacity="0.01"/>
</g>
</g>
<mask id="mask1" mask-type="alpha" maskUnits="userSpaceOnUse" x="0" y="0" width="38" height="40">
<path d="M5.30303 20.368C5.30303 20.248 5.29488 20.12 5.29488 20C5.29488 19.928 5.29488 19.856 5.29488 19.784C5.29488 19.736 5.29488 19.68 5.29488 19.632C5.49038 8.75203 13.897 4.18723e-05 24.2343 4.18723e-05H20.0065C8.52883 4.18723e-05 0 8.95203 0 20C0 31.048 8.47995 40 18.9312 40C29.2685 40 37.6751 31.248 37.8625 20.368C37.8625 20.32 37.8625 20.264 37.8625 20.216C37.8625 20.144 37.8625 20.072 37.8625 20C37.8625 19.872 37.8625 19.752 37.8543 19.632C37.6833 11.848 31.6471 5.60004 24.2343 5.60004C23.3301 5.60004 22.4421 5.69604 21.5868 5.87204C27.8511 7.17603 32.5676 13.008 32.5676 20C32.5676 26.992 27.8429 32.824 21.5868 34.128C20.7315 34.304 19.8436 34.4 18.9312 34.4C11.5265 34.4 5.49038 28.152 5.30303 20.368Z" fill="url(#paint1_linear)"/>
</mask>
<g mask="url(#mask1)">
<g opacity="0.68" filter="url(#filter2_d)">
<path d="M26.0071 6.62078L18.0104 6.01522L21.8833 3.17191L37.041 7.41553L26.0071 6.62078Z" fill="#C4C4C4" fill-opacity="0.01"/>
</g>
<g opacity="0.68" filter="url(#filter3_d)">
<path d="M24.8541 6.5452L17.0879 8.4375L21.8837 3.17199L35.8496 4.91781L32.8124 7.37781L24.8541 6.5452Z" fill="#C4C4C4" fill-opacity="0.01"/>
</g>
</g>
<path d="M21.5865 5.87204C22.4419 5.69604 23.3298 5.60004 24.234 5.60004C31.6468 5.60004 37.6748 11.848 37.8622 19.632C37.8622 19.752 37.8703 19.88 37.8703 20C37.8703 20.072 37.8703 20.144 37.8703 20.216C37.8703 20.264 37.8703 20.32 37.8703 20.368C37.683 31.248 29.2763 40 18.9309 40H23.1587C34.6527 40 43.1733 31.048 43.1733 20C43.1733 8.95204 34.6934 5.38124e-05 24.234 5.38124e-05C13.8967 5.38124e-05 5.49009 8.75204 5.30273 19.632C5.30273 19.68 5.30273 19.736 5.30273 19.784C5.30273 19.856 5.30273 19.928 5.30273 20C5.30273 20.128 5.30273 20.248 5.31088 20.368C5.49009 28.152 11.5263 34.4 18.9309 34.4C19.8351 34.4 20.7231 34.304 21.5865 34.128C15.3223 32.824 10.6058 26.992 10.6058 20C10.6058 13.008 15.3223 7.17604 21.5865 5.87204Z" fill="url(#paint2_linear)"/>
<path d="M5.30303 20.368C5.30303 20.248 5.29488 20.12 5.29488 20C5.29488 19.928 5.29488 19.856 5.29488 19.784C5.29488 19.736 5.29488 19.68 5.29488 19.632C5.49038 8.75204 13.897 5.67734e-05 24.2343 5.67734e-05H20.0065C8.52883 5.67734e-05 0 8.95204 0 20C0 31.048 8.47995 40 18.9312 40C29.2685 40 37.6751 31.248 37.8625 20.368C37.8625 20.32 37.8625 20.264 37.8625 20.216C37.8625 20.144 37.8625 20.072 37.8625 20C37.8625 19.872 37.8625 19.752 37.8543 19.632C37.6833 11.848 31.6471 5.60005 24.2343 5.60005C23.3301 5.60005 22.4421 5.69605 21.5868 5.87205C27.8511 7.17605 32.5676 13.008 32.5676 20C32.5676 26.992 27.8429 32.824 21.5868 34.128C20.7315 34.304 19.8436 34.4 18.9312 34.4C11.5265 34.4 5.49038 28.152 5.30303 20.368Z" fill="url(#paint3_linear)"/>
<defs>
<filter id="filter0_d" x="5.80664" y="24.2476" width="26.9807" height="20.0217" filterUnits="userSpaceOnUse" color-interpolation-filters="sRGB">
<feFlood flood-opacity="0" result="BackgroundImageFix"/>
<feColorMatrix in="SourceAlpha" type="matrix" values="0 0 0 0 0 0 0 0 0 0 0 0 0 0 0 0 0 0 127 0"/>
<feOffset/>
<feGaussianBlur stdDeviation="4"/>
<feColorMatrix type="matrix" values="0 0 0 0 0.152941 0 0 0 0 0.733333 0 0 0 0 0.490196 0 0 0 1 0"/>
<feBlend mode="normal" in2="BackgroundImageFix" result="effect1_dropShadow"/>
<feBlend mode="normal" in="SourceGraphic" in2="effect1_dropShadow" result="shape"/>
</filter>
<filter id="filter1_d" x="-0.367188" y="23.9351" width="33.1545" height="20.3345" filterUnits="userSpaceOnUse" color-interpolation-filters="sRGB">
<feFlood flood-opacity="0" result="BackgroundImageFix"/>
<feColorMatrix in="SourceAlpha" type="matrix" values="0 0 0 0 0 0 0 0 0 0 0 0 0 0 0 0 0 0 127 0"/>
<feOffset/>
<feGaussianBlur stdDeviation="4"/>
<feColorMatrix type="matrix" values="0 0 0 0 0.133333 0 0 0 0 0.72549 0 0 0 0 0.478431 0 0 0 1 0"/>
<feBlend mode="normal" in2="BackgroundImageFix" result="effect1_dropShadow"/>
<feBlend mode="normal" in="SourceGraphic" in2="effect1_dropShadow" result="shape"/>
</filter>
<filter id="filter2_d" x="14.0098" y="3.17188" width="27.0306" height="12.2436" filterUnits="userSpaceOnUse" color-interpolation-filters="sRGB">
<feFlood flood-opacity="0" result="BackgroundImageFix"/>
<feColorMatrix in="SourceAlpha" type="matrix" values="0 0 0 0 0 0 0 0 0 0 0 0 0 0 0 0 0 0 127 0"/>
<feOffset dy="4"/>
<feGaussianBlur stdDeviation="2"/>
<feColorMatrix type="matrix" values="0 0 0 0 0.137255 0 0 0 0 0.72549 0 0 0 0 0.478431 0 0 0 1 0"/>
<feBlend mode="normal" in2="BackgroundImageFix" result="effect1_dropShadow"/>
<feBlend mode="normal" in="SourceGraphic" in2="effect1_dropShadow" result="shape"/>
</filter>
<filter id="filter3_d" x="13.0879" y="3.17188" width="26.7617" height="13.2655" filterUnits="userSpaceOnUse" color-interpolation-filters="sRGB">
<feFlood flood-opacity="0" result="BackgroundImageFix"/>
<feColorMatrix in="SourceAlpha" type="matrix" values="0 0 0 0 0 0 0 0 0 0 0 0 0 0 0 0 0 0 127 0"/>
<feOffset dy="4"/>
<feGaussianBlur stdDeviation="2"/>
<feColorMatrix type="matrix" values="0 0 0 0 0.137255 0 0 0 0 0.72549 0 0 0 0 0.478431 0 0 0 1 0"/>
<feBlend mode="normal" in2="BackgroundImageFix" result="effect1_dropShadow"/>
<feBlend mode="normal" in="SourceGraphic" in2="effect1_dropShadow" result="shape"/>
</filter>
<linearGradient id="paint0_linear" x1="24.238" y1="40" x2="24.238" y2="4.57764e-05" gradientUnits="userSpaceOnUse">
<stop stop-color="#ABF2D4"/>
<stop offset="1" stop-color="#ABECD1"/>
</linearGradient>
<linearGradient id="paint1_linear" x1="26.476" y1="40" x2="9.45852" y2="1.38387" gradientUnits="userSpaceOnUse">
<stop stop-color="#19B674"/>
<stop offset="1" stop-color="#A9E8CD"/>
</linearGradient>
<linearGradient id="paint2_linear" x1="24.238" y1="40" x2="24.238" y2="5.34058e-05" gradientUnits="userSpaceOnUse">
<stop stop-color="#ABF2D4"/>
<stop offset="1" stop-color="#ABECD1"/>
</linearGradient>
<linearGradient id="paint3_linear" x1="26.476" y1="40" x2="9.45853" y2="1.38388" gradientUnits="userSpaceOnUse">
<stop stop-color="#19B674"/>
<stop offset="1" stop-color="#A9E8CD"/>
</linearGradient>
</defs>
</svg>
