<svg width="210" height="51" viewBox="0 0 210 51" fill="none" xmlns="http://www.w3.org/2000/svg">
<path fill-rule="evenodd" clip-rule="evenodd" d="M30.6233 8.19182e-05L25.3824 0C10.8166 0 0 11.4304 0 25.5C0 39.5473 10.7346 50.9999 24.0494 50.9999C24.0493 50.9999 24.0495 50.9999 24.0494 50.9999L29.2907 51C43.8767 51 54.6832 39.5696 54.6832 25.5C54.6832 11.4526 43.9481 8.19182e-05 30.6233 8.19182e-05C30.6232 8.19182e-05 30.6234 8.19165e-05 30.6233 8.19182e-05ZM1.16244 25.5C1.16244 38.9896 11.4523 49.8495 24.0494 49.8495C36.5079 49.8495 46.7065 39.2351 46.9364 25.9536V25.5C46.9364 25.3369 46.9362 25.2068 46.9276 25.0797L46.9267 25.0668L46.9264 25.0538C46.8717 22.5504 46.3193 20.183 45.372 18.0558C42.7473 12.1736 37.1128 8.12939 30.6237 8.12939C30.4666 8.12939 30.3099 8.13183 30.1536 8.13665C36.8217 10.7648 41.535 17.5675 41.535 25.5C41.535 34.4634 35.5071 41.9837 27.4618 43.6695L27.4603 43.6698C27.4601 43.6699 27.4599 43.6699 27.4596 43.67C27.4313 43.6758 27.403 43.6817 27.3747 43.6873C26.4434 43.875 25.4817 43.9885 24.4961 44.015C24.3477 44.019 24.1989 44.0211 24.0498 44.0211C23.156 44.0211 22.2783 43.9501 21.4213 43.8132C21.1357 43.7676 20.8524 43.7146 20.5715 43.6546C12.7078 41.9728 6.78305 34.7001 6.57408 25.9722L6.57392 25.9654V25.9586C6.57392 25.8947 6.57176 25.8269 6.56917 25.7479L6.56904 25.7437C6.5666 25.6692 6.56382 25.5841 6.56382 25.5V25.0363L6.56391 25.0312C6.76238 13.9276 13.6577 4.52286 23.1811 1.24284C10.4142 2.32402 1.16244 12.7543 1.16244 25.5ZM20.0485 42.3429C20.3048 42.4118 20.5634 42.4743 20.8243 42.5301C21.8678 42.7535 22.9464 42.8706 24.0494 42.8706C24.186 42.8706 24.3221 42.8688 24.4577 42.8652C24.4815 42.8646 24.5052 42.8639 24.529 42.8631C17.8612 40.2348 13.1482 33.4323 13.1482 25.5C13.1482 16.537 19.1657 9.01628 27.2215 7.33043L27.2225 7.33023C28.3201 7.10317 29.4607 6.97893 30.6233 6.97893C37.6617 6.97893 43.7008 11.3719 46.4727 17.6808C47.4605 19.9247 48.0363 22.4108 48.099 25.0278L48.0992 25.0346V25.0414C48.0992 25.1053 48.1013 25.1731 48.1039 25.2521L48.104 25.2565C48.1065 25.331 48.1093 25.416 48.1093 25.5V25.9635L48.1092 25.9684C47.919 37.0722 41.0253 46.4768 31.4973 49.757C44.2792 48.6747 53.5207 38.2449 53.5207 25.5C53.5207 12.0106 43.231 1.15046 30.6237 1.15046C18.1652 1.15046 7.96664 11.765 7.73671 25.0464V25.5C7.73671 25.6631 7.73693 25.7932 7.74551 25.9203L7.74636 25.933L7.74665 25.9456C7.9288 33.8992 13.1266 40.4806 20.0485 42.3429ZM27.3418 8.48159C19.926 10.0956 14.3106 17.0812 14.3106 25.5C14.3106 33.9188 19.9258 40.9042 27.3413 42.5184C34.7476 40.9042 40.3726 33.9184 40.3726 25.5C40.3726 17.0812 34.7574 10.0958 27.3418 8.48159Z" fill="white"/>
<path d="M67.6504 13.0823H72.5698L77.4536 31.4269H77.5249L83.086 13.0823H87.7202L93.1744 31.4269H93.2457L98.2364 13.0823H103.013L95.6341 38.0592H91.285L85.3675 19.3265H85.2962L79.3786 38.0592H75.0295L67.6504 13.0823Z" fill="white"/>
<path d="M115.125 35.9073H115.019C114.591 36.6599 113.902 37.2831 112.951 37.777C112 38.2474 110.919 38.4826 109.707 38.4826C109.018 38.4826 108.293 38.3885 107.532 38.2003C106.796 38.0357 106.107 37.7535 105.465 37.3537C104.847 36.9303 104.324 36.3894 103.896 35.7309C103.492 35.0488 103.29 34.2139 103.29 33.2261C103.29 31.9561 103.647 30.9448 104.36 30.1922C105.097 29.4396 106.035 28.8634 107.176 28.4636C108.317 28.0637 109.576 27.805 110.955 27.6874C112.357 27.5463 113.723 27.4758 115.054 27.4758V27.0524C115.054 25.9941 114.662 25.218 113.878 24.7241C113.117 24.2067 112.202 23.948 111.133 23.948C110.23 23.948 109.362 24.1361 108.531 24.5124C107.699 24.8887 107.01 25.3473 106.463 25.8883L104.253 23.3129C105.227 22.4192 106.344 21.7489 107.604 21.3021C108.887 20.8552 110.182 20.6318 111.489 20.6318C113.01 20.6318 114.258 20.8435 115.232 21.2668C116.231 21.6902 117.015 22.2428 117.585 22.9249C118.156 23.6069 118.548 24.3713 118.762 25.218C118.999 26.0646 119.118 26.9113 119.118 27.758V38.0592H115.125V35.9073ZM115.054 30.3333H114.092C113.402 30.3333 112.678 30.3686 111.917 30.4391C111.157 30.4862 110.456 30.6155 109.814 30.8272C109.172 31.0154 108.638 31.2976 108.21 31.6739C107.782 32.0267 107.568 32.5206 107.568 33.1556C107.568 33.5554 107.651 33.8964 107.818 34.1786C108.008 34.4373 108.245 34.649 108.531 34.8136C108.816 34.9783 109.137 35.0959 109.493 35.1664C109.85 35.237 110.206 35.2723 110.563 35.2723C112.036 35.2723 113.153 34.8842 113.913 34.1081C114.674 33.332 115.054 32.2736 115.054 30.933V30.3333Z" fill="white"/>
<path d="M133.477 25.6413C133.097 25.1474 132.574 24.7241 131.909 24.3713C131.243 23.995 130.518 23.8068 129.734 23.8068C129.045 23.8068 128.415 23.948 127.845 24.2302C127.274 24.5124 126.989 24.9828 126.989 25.6413C126.989 26.2998 127.298 26.7702 127.916 27.0524C128.558 27.3111 129.485 27.5816 130.697 27.8638C131.338 28.005 131.98 28.1931 132.622 28.4283C133.287 28.6635 133.881 28.981 134.404 29.3808C134.951 29.7571 135.39 30.2392 135.723 30.8272C136.056 31.3917 136.222 32.0855 136.222 32.9086C136.222 33.9434 136.02 34.8254 135.616 35.5545C135.236 36.26 134.713 36.8363 134.048 37.2831C133.406 37.73 132.645 38.0475 131.766 38.2356C130.911 38.4473 130.019 38.5531 129.093 38.5531C127.762 38.5531 126.466 38.3179 125.207 37.8476C123.947 37.3537 122.902 36.6599 122.07 35.7662L124.886 33.1556C125.361 33.7671 125.979 34.2727 126.74 34.6725C127.5 35.0723 128.344 35.2723 129.271 35.2723C129.58 35.2723 129.889 35.237 130.198 35.1664C130.53 35.0959 130.827 34.99 131.089 34.8489C131.374 34.6843 131.6 34.4726 131.766 34.2139C131.933 33.9552 132.016 33.6377 132.016 33.2614C132.016 32.5558 131.683 32.0502 131.018 31.7444C130.376 31.4387 129.401 31.1329 128.094 30.8272C127.453 30.6861 126.823 30.5097 126.205 30.298C125.611 30.0628 125.076 29.7689 124.601 29.4161C124.126 29.0398 123.745 28.5812 123.46 28.0402C123.175 27.4993 123.032 26.829 123.032 26.0294C123.032 25.0886 123.222 24.2772 123.603 23.5952C124.007 22.9131 124.53 22.3604 125.171 21.9371C125.813 21.4902 126.538 21.161 127.346 20.9493C128.154 20.7376 128.986 20.6318 129.841 20.6318C131.077 20.6318 132.277 20.8435 133.442 21.2668C134.63 21.6902 135.569 22.3369 136.258 23.2071L133.477 25.6413Z" fill="white"/>
<path d="M137.482 24.5124V21.1257H140.476V16.222H144.683V21.1257H148.96V24.5124H144.683V32.3794C144.683 33.132 144.813 33.7553 145.075 34.2492C145.36 34.7431 145.978 34.99 146.929 34.99C147.214 34.99 147.523 34.9665 147.855 34.9195C148.188 34.8489 148.485 34.7548 148.747 34.6372L148.889 37.9534C148.509 38.0945 148.057 38.2003 147.535 38.2709C147.012 38.365 146.513 38.412 146.037 38.412C144.897 38.412 143.97 38.2591 143.257 37.9534C142.544 37.6241 141.973 37.189 141.546 36.6481C141.142 36.0837 140.856 35.4486 140.69 34.7431C140.548 34.014 140.476 33.2379 140.476 32.4147V24.5124H137.482Z" fill="white"/>
<path d="M164.105 27.8991C164.105 27.3582 164.022 26.8408 163.856 26.3469C163.713 25.853 163.476 25.4179 163.143 25.0416C162.81 24.6653 162.382 24.3713 161.859 24.1596C161.36 23.9244 160.766 23.8068 160.077 23.8068C158.794 23.8068 157.701 24.1949 156.797 24.971C155.918 25.7236 155.431 26.6997 155.336 27.8991H164.105ZM168.383 29.8041C168.383 29.9923 168.383 30.1804 168.383 30.3686C168.383 30.5567 168.371 30.7449 168.347 30.933H155.336C155.383 31.5445 155.538 32.109 155.799 32.6264C156.084 33.1203 156.453 33.5554 156.904 33.9317C157.356 34.2845 157.867 34.5667 158.437 34.7784C159.008 34.99 159.602 35.0959 160.22 35.0959C161.289 35.0959 162.192 34.9077 162.929 34.5314C163.666 34.1316 164.272 33.5907 164.747 32.9086L167.599 35.1664C165.911 37.4242 163.464 38.5531 160.255 38.5531C158.924 38.5531 157.701 38.3532 156.584 37.9534C155.467 37.5301 154.492 36.9421 153.66 36.1895C152.852 35.4369 152.211 34.5197 151.735 33.4378C151.284 32.3324 151.058 31.0859 151.058 29.6983C151.058 28.3342 151.284 27.0995 151.735 25.9941C152.211 24.8652 152.852 23.9127 153.66 23.1366C154.468 22.3369 155.419 21.7254 156.512 21.3021C157.629 20.8552 158.829 20.6318 160.113 20.6318C161.301 20.6318 162.394 20.8317 163.392 21.2315C164.414 21.6078 165.294 22.184 166.03 22.9602C166.767 23.7128 167.337 24.6653 167.741 25.8177C168.169 26.9466 168.383 28.2754 168.383 29.8041Z" fill="white"/>
<path d="M172.74 13.0823H177.232V38.0592H172.74V13.0823Z" fill="white"/>
<path d="M210 38.0592H194.778C192.758 38.0592 190.917 37.777 189.253 37.2126C187.613 36.6246 186.199 35.7897 185.011 34.7078C183.846 33.6024 182.943 32.2619 182.302 30.6861C181.66 29.0868 181.339 27.2759 181.339 25.2532C181.339 23.3482 181.672 21.6196 182.337 20.0674C183.027 18.4916 183.977 17.1393 185.189 16.0104C186.401 14.8815 187.827 14.0113 189.467 13.3998C191.13 12.7648 192.925 12.4473 194.85 12.4473C196.775 12.4473 198.557 12.7648 200.197 13.3998C201.837 14.0113 203.251 14.8815 204.439 16.0104C205.651 17.1393 206.59 18.4916 207.255 20.0674C207.921 21.6196 208.253 23.3482 208.253 25.2532C208.253 26.3822 208.123 27.417 207.861 28.3577C207.6 29.2985 207.255 30.1569 206.828 30.933C206.423 31.6856 205.948 32.3559 205.402 32.9439C204.879 33.5083 204.332 33.9905 203.762 34.3903V34.4609H210V38.0592ZM194.85 16.4337C193.638 16.4337 192.497 16.6571 191.428 17.104C190.382 17.5508 189.479 18.1623 188.718 18.9385C187.958 19.7146 187.352 20.6436 186.9 21.7254C186.472 22.8073 186.259 23.9832 186.259 25.2532C186.259 26.5938 186.461 27.8168 186.865 28.9222C187.292 30.004 187.875 30.933 188.611 31.7092C189.372 32.4853 190.275 33.0968 191.321 33.5436C192.366 33.967 193.519 34.1786 194.778 34.1786C196.014 34.1786 197.155 33.967 198.201 33.5436C199.27 33.0968 200.185 32.4853 200.946 31.7092C201.706 30.933 202.3 30.004 202.728 28.9222C203.156 27.8168 203.37 26.5938 203.37 25.2532C203.37 23.9832 203.168 22.8073 202.764 21.7254C202.36 20.6436 201.777 19.7146 201.017 18.9385C200.28 18.1623 199.389 17.5508 198.343 17.104C197.298 16.6571 196.133 16.4337 194.85 16.4337Z" fill="white"/>
</svg>
