<?xml version="1.0" encoding="UTF-8" standalone="no"?>
<svg viewBox="7 7 40 40" version="1.1" xmlns="http://www.w3.org/2000/svg" xmlns:xlink="http://www.w3.org/1999/xlink">
    <!-- Generator: Sketch 42 (36781) - http://www.bohemiancoding.com/sketch -->
    <title>logo_mobile</title>
    <desc>Created with Sketch.</desc>
    <defs>
        <polygon id="path-1" points="0 34.2516878 36.7714249 34.2516878 36.7714249 0 0 0"/>
    </defs>
    <g id="MOBIL" stroke="none" stroke-width="1" fill="none" fill-rule="evenodd">
        <g id="mob_spann" transform="translate(-16.000000, -74.000000)">
            <g id="logo_mobile" transform="translate(16.000000, 74.000000)">
                <g id="Group-2">
                    <circle id="Oval-2" fill="#FFFFFF" opacity="0" cx="26" cy="26" r="26"/>
                    <g id="Page-1" transform="translate(7.000000, 9.000000)">
                        <path d="M36.5717595,11.921409 C36.1760222,11.9842405 35.443648,11.898733 35.3476687,11.3757668 C35.2606726,10.9099631 35.3325389,10.3992797 35.1769862,10.0690599 C35.0233248,9.73695037 34.7377509,9.39255799 34.5940183,9.01037221 C34.4559594,8.74912532 34.3429591,8.33387032 34.1963897,8.25544901 C34.023816,8.06128541 33.9869373,7.79106258 33.8342214,7.57894711 C33.76992,7.38525593 33.2578727,6.94212829 33.1354164,6.89441412 C32.8091813,6.76969589 32.596892,6.45837274 32.3699459,6.17161531 C32.1212507,5.93776863 31.8318944,5.75588788 31.5586134,5.55936219 C31.3042445,5.37653661 30.384167,4.88097063 29.9818103,4.83231162 C29.5832361,4.78365262 29.2943526,4.33674564 28.9482597,4.22478268 C28.6021668,4.11423698 27.5378838,3.52088057 27.3218122,3.53363585 C26.5251366,3.5808776 24.9218565,3.25774401 24.1909007,3.19963666 C23.6972928,3.16137084 21.4595091,3.63804012 21.1517134,3.67110935 C20.6656703,3.72732703 19.7541032,4.23848279 19.5654542,4.37973563 C19.28319,4.59137868 18.5276484,5.19182136 18.3626396,5.35622266 C18.383443,5.5621967 18.8482098,5.55369318 19.2084868,5.65006636 C19.5162826,5.73084975 19.9777398,5.93068237 20.3465273,5.95713775 C20.7120052,5.98595522 21.6320827,6.28310584 21.8008739,6.41868967 C21.9682467,6.55380108 22.6320643,7.05881542 22.7701232,7.20526485 C22.9048725,7.35076945 23.2920994,7.73815182 23.3951707,7.89027026 C23.4954053,8.04049903 24.2079217,8.34190142 24.3251772,8.49685436 C24.473165,8.72786653 25.1558947,9.35334734 25.305301,9.48090007 C25.4518703,9.6084528 26.4036258,10.498015 26.4381405,10.6458817 C26.4896762,10.8868146 27.3544357,11.7451973 27.4489966,11.8850329 C27.5430847,12.0253409 27.9823201,12.5879901 28.0688433,12.7523914 C28.1525297,12.91821 28.4390492,13.6485675 28.6144597,14.1649198 C28.7406985,14.6028509 28.9908121,15.4144642 29.0291092,15.5566619 C29.0664608,15.6988595 29.1950636,16.3687476 29.2101934,16.9143898 C29.2291055,17.4605045 28.3927144,20.0436835 28.0239269,20.5028733 C27.8972153,20.6531021 26.9549159,21.8846946 26.5511408,22.2408974 C26.1610771,22.6684353 24.9885219,23.5726424 24.8291868,23.6926365 C24.6703245,23.8126305 22.2103227,25.4405813 20.6458125,25.9002436 C19.2151061,26.315971 18.5276484,25.9900029 18.0836849,26.1000762 C17.6411399,26.2115667 16.6383215,25.863395 16.3631493,25.8019807 C16.0903411,25.743401 15.6539426,25.700411 15.0019451,25.3706635 C14.3097593,25.1878379 14.2369475,24.9020253 13.8213523,24.8784045 C13.4256149,24.8146281 12.2488045,23.8126305 12.0384065,23.6042944 C11.8261173,23.3983204 11.3570952,22.3821503 11.0516635,22.1898763 C10.7637256,22.0750789 9.90416696,20.3512273 9.59164318,19.7328328 C9.27722818,19.1144382 9.11363782,17.4812909 9.10181771,17.2668133 C9.06588457,17.0565875 8.93160809,16.5303144 8.82995512,16.2128498 C8.72972057,15.8953852 8.78362028,15.5136719 8.74485031,15.3436016 C8.69946108,15.1357378 8.55052766,14.719538 8.58315117,14.498919 C8.62050272,14.2783 8.51837695,12.6130283 8.55620131,12.1014001 C8.59308006,11.5907167 8.7126996,10.6548576 8.65785428,10.6704474 C8.56943984,10.7512308 8.45076591,10.8825629 8.33020076,10.9690153 C8.20065232,11.0644436 8.09758094,11.1093233 8.07961437,11.1249131 C8.09758094,11.1093233 8.01578576,11.2208138 7.85834186,11.3186042 C7.62241241,11.4655261 7.40161271,11.6242584 7.27868353,11.8118081 C7.21863736,11.9025123 6.85741472,12.222339 6.51510426,12.5733452 C6.14773516,12.9493895 5.80022384,13.3551962 5.80022384,13.4147208 C5.62528618,13.7246267 5.56334879,14.1498025 5.52552443,14.4393944 C5.48533604,14.7285139 5.10661963,15.1003065 4.79456866,15.3601362 C4.59409955,15.4834371 4.60450125,15.5420169 4.34114914,15.7442116 C4.0012027,15.9889239 3.78938628,16.1018317 3.29530557,16.1594666 C2.97238009,16.1736391 2.4069059,16.2681227 2.03811839,16.0366381 C1.94781273,15.9383752 1.89864106,16.0205759 1.65325552,15.7139769 C1.20740087,15.3601362 0.99983969,15.4144642 0.844759812,14.9089774 C0.74074282,14.5612781 0.761073414,14.1271264 0.799843384,13.8427311 C0.842395789,13.5559736 1.16721248,13.2507919 1.17477736,13.1057597 C1.2003088,12.9309653 1.48871955,12.6323974 1.51330538,12.5672038 C1.6825694,12.3239087 1.71330169,12.0928966 1.8825657,11.7872424 C2.12795124,11.388522 2.15868353,11.2307346 2.30288891,11.0644436 C2.44803989,10.8953181 3.19932625,10.1522054 3.40688743,9.79883706 C3.45842312,9.70955015 4.3160905,9.05950364 5.22340235,8.4708714 C6.11700286,7.89027026 7.05930224,7.37297307 7.1491351,7.3521867 C7.33211044,7.3143933 9.28290184,6.37144792 9.49660947,6.22641574 C9.71173552,6.07902147 10.0062927,6.00863126 10.1514437,5.91367534 C10.3481304,5.79037436 11.0459898,5.49038923 11.3632417,5.54660692 C11.4828612,5.56786571 11.5963343,5.46109935 11.6866399,5.42425078 C11.8417198,5.36330892 12.0015277,5.31464991 12.1055447,5.28866695 C12.2629886,5.25040113 12.9409903,4.34335948 13.2161625,4.31454201 C13.4610753,4.23564829 13.7513772,4.38823915 13.8951098,4.04479161 C14.0298591,3.73063395 14.5121197,3.59788463 14.7343378,3.40419344 C14.9324429,3.23128863 15.7849094,2.6993465 15.841646,2.67430837 C15.9135122,2.61100442 17.02413,2.37243357 17.2477666,2.32660907 C17.3862983,2.29873644 18.1333294,1.82726375 18.7394648,1.55798576 C19.1101435,1.3921672 19.5654542,1.21595547 19.7635593,1.08415098 C20.0264386,0.909356494 20.8845788,0.712830804 21.0188553,0.693934103 C21.1517134,0.672202896 21.8126941,0.676454654 22.1379836,0.63913367 C22.1379836,0.63913367 25.4613264,0.382610954 25.8424069,0.506384345 C26.0130893,0.478511711 27.1473473,0.609843783 27.363419,0.83565936 C27.5823275,1.06100252 28.879703,1.23012799 29.3293401,1.46775401 C29.7808684,1.70774211 30.2612378,2.01528592 30.4555604,2.06016558 C30.572816,2.10079349 31.4267009,2.38188192 31.6857978,2.60533541 C31.9269281,2.65871859 32.5647413,2.98468668 32.657411,3.07208392 C32.7198212,3.10184623 33.1481821,3.65410231 33.3410863,3.70512341 C33.5046767,3.77882054 33.8030163,4.33674564 34.1543101,4.46855013 C34.5037126,4.59846495 34.9193078,5.67038031 35.1996809,5.97225511 C35.4800539,6.27318507 36.5301527,7.80429027 36.604383,7.94837762 C36.8885386,8.12978595 36.955204,8.51527865 37.0488193,8.66928676 C37.1391249,8.81998795 37.2275394,10.266058 37.4667785,10.4781735 C37.5778875,10.6850923 37.5315527,10.9298046 37.5164229,11.1291648 C37.5008204,11.3299423 37.4426654,11.4915091 37.3769456,11.5822132 C37.2946776,11.6946486 36.9684425,11.8595223 36.5717595,11.921409" id="Fill-1" fill="#ffffff"/>
                        <g id="Group-10" transform="translate(0.000000, 4.843697)">
                          <path d="M24.5307526,14.3470368 C24.2404506,15.1605398 23.3449589,15.7312201 23.189879,15.861135 C22.4882371,16.4407913 21.482582,17.0469029 19.8036532,17.2590184 C19.596092,17.2906704 18.9346385,17.1801247 18.3261391,17.1305208 C17.0282907,17.0275338 16.0041961,16.599996 14.7370801,15.6787818 C14.5304645,15.5280806 14.3006815,14.9588175 14.1304719,14.6597772 C13.9555342,14.3612093 13.9276387,14.2209013 13.8188937,13.9426474 C13.7205504,13.6105379 13.3314323,12.4219354 13.179662,11.8035408 C13.027419,11.1846739 12.5456312,9.40129772 12.5390119,8.77676175 C12.5352295,8.15175336 12.5550873,6.97543372 12.7957448,6.16571009 C12.9683184,5.57140884 13.1683147,5.11127417 13.3758759,4.80703728 C13.6680691,4.39886854 13.9115634,4.46642425 14.2713676,4.37005107 C14.621243,4.36438206 14.8789214,4.30202295 15.2079934,4.3275335 C15.5365925,4.35398888 16.3526531,4.29966086 16.6268797,4.31525064 C16.9290018,4.32611624 18.5143153,4.68468115 18.7067467,4.78199916 C18.8982325,4.87884475 19.2760033,5.05930824 19.596092,5.20481284 C19.9185446,5.35031744 20.7322412,6.07311625 20.9771539,6.23326579 C21.1516188,6.51955081 21.8608256,6.85166033 22.7898864,8.05679744 C23.1312513,8.7323545 23.482545,8.98084612 23.8588974,9.59309923 C24.2938776,10.7051701 24.8806279,11.2248294 24.9075778,12.8622285 C24.9406741,13.0195435 24.6040373,14.2076736 24.5307526,14.3470368 Z" id="Fill-3" fill="#2B99F2" opacity="1" />
                          <path d="M14.4133508,29.8803612 L11.8531144,29.8803612 L11.8531144,24.0049045 L14.2904216,24.0049045 C15.5140397,24.0049045 16.1650915,24.6884926 16.1650915,25.7037179 C16.1650915,26.3712438 15.7041071,26.7435089 15.520659,26.8668098 C15.7613165,27.0170386 16.2478323,27.3203306 16.2478323,28.1475337 C16.2478323,29.2685805 15.4653408,29.8803612 14.4133508,29.8803612 M14.2005888,25.2983836 L13.2989506,25.2983836 L13.2989506,26.2564464 L14.2005888,26.2564464 C14.596799,26.2564464 14.7197281,26.0079548 14.7197281,25.7783598 C14.7197281,25.5482925 14.596799,25.2983836 14.2005888,25.2983836 M14.2738735,27.5537049 L13.2989506,27.5537049 L13.2989506,28.5849924 L14.2738735,28.5849924 C14.6719749,28.5849924 14.8043601,28.3133523 14.8043601,28.0639158 C14.8043601,27.8158966 14.6719749,27.5537049 14.2738735,27.5537049" id="Fill-5" fill="#ffffff"/>
                          <g id="Clip-8"/>
                          <polygon id="Fill-7" fill="#ffffff" mask="url(#mask-2)" points="17.7731942 29.8804085 19.2024822 29.8804085 19.2024822 24.0058965 17.7731942 24.0058965"/>
                          <path d="M23.9503378,29.8803612 L22.9101679,27.6925957 L22.423652,27.6925957 L22.423652,29.8803612 L20.9768703,29.8803612 L20.9768703,24.0049045 L23.3087421,24.0049045 C24.6117913,24.0049045 25.311542,24.9289531 25.311542,25.8941021 C25.311542,26.6943774 24.8193525,27.1979745 24.3560041,27.4275694 L25.6292666,29.8803612 L23.9503378,29.8803612 Z M23.2401854,25.2983836 L22.423652,25.2983836 L22.423652,26.487931 L23.2401854,26.487931 C23.6373412,26.487931 23.8680698,26.1988114 23.8680698,25.8941021 C23.8680698,25.5865583 23.6373412,25.2983836 23.2401854,25.2983836 L23.2401854,25.2983836 Z" id="Fill-9" fill="#ffffff" mask="url(#mask-2)"/>
                        </g>
                    </g>
                </g>
            </g>
        </g>
    </g>
</svg>
