<?xml version="1.0" encoding="UTF-8" standalone="no"?>
<svg
   xmlns:dc="http://purl.org/dc/elements/1.1/"
   xmlns:cc="http://creativecommons.org/ns#"
   xmlns:rdf="http://www.w3.org/1999/02/22-rdf-syntax-ns#"
   xmlns:svg="http://www.w3.org/2000/svg"
   xmlns="http://www.w3.org/2000/svg"
   xmlns:sodipodi="http://sodipodi.sourceforge.net/DTD/sodipodi-0.dtd"
   xmlns:inkscape="http://www.inkscape.org/namespaces/inkscape"
   inkscape:version="1.0 (4035a4f, 2020-05-01)"
   sodipodi:docname="botek.png.svg"
   viewBox="0 0 592 138.53589"
   height="138.53589"
   width="592"
   id="svg893"
   version="1.1">
  <metadata
     id="metadata899">
    <rdf:RDF>
      <cc:Work
         rdf:about="">
        <dc:format>image/svg+xml</dc:format>
        <dc:type
           rdf:resource="http://purl.org/dc/dcmitype/StillImage" />
        <dc:title></dc:title>
      </cc:Work>
    </rdf:RDF>
  </metadata>
  <defs
     id="defs897" />
  <sodipodi:namedview
     inkscape:pagecheckerboard="true"
     inkscape:current-layer="g901"
     inkscape:window-maximized="0"
     inkscape:window-y="23"
     inkscape:window-x="2476"
     inkscape:cy="-94.691959"
     inkscape:cx="139.89546"
     inkscape:zoom="1.3232126"
     fit-margin-bottom="0"
     fit-margin-right="0"
     fit-margin-left="0"
     fit-margin-top="0"
     showgrid="false"
     id="namedview895"
     inkscape:window-height="1395"
     inkscape:window-width="1720"
     inkscape:pageshadow="2"
     inkscape:pageopacity="0"
     guidetolerance="10"
     gridtolerance="10"
     objecttolerance="10"
     borderopacity="1"
     bordercolor="#666666"
     pagecolor="#ffffff" />
  <g
     transform="translate(-25.939303,-20.911752)"
     id="g901"
     inkscape:label="Image"
     inkscape:groupmode="layer">
    <path
       id="path911"
       d="m 25.939303,149.40488 v -10 h 4.54966 c 6.501141,0 10.124596,2.18072 11.554715,6.95404 0.92926,3.10159 0.908056,4.60173 -0.09942,7.034 -1.834943,4.42994 -4.657823,6.01196 -10.727461,6.01196 h -5.277494 z m 11,5 c 4.295856,-4.29586 0.963438,-12.47737 -4.810577,-11.81058 -2.502394,0.28898 -2.710759,0.68477 -2.996219,5.69138 -0.168738,2.95944 -0.07036,5.99694 0.218615,6.75 0.780201,2.03317 5.299933,1.65745 7.588181,-0.6308 z m 18,0.51502 c 0,-3.23317 -0.837334,-5.84582 -3,-9.3606 -3.493533,-5.67771 -3.591006,-6.15702 -1.25,-6.14672 0.99829,0.004 2.761603,1.7787 4.105038,4.13063 l 2.355038,4.12292 2.171994,-3.88062 c 1.333418,-2.38238 3.035165,-4.00465 4.407696,-4.20185 2.131511,-0.30625 2.072116,-0.0499 -1.274461,5.5 -2.547262,4.22435 -3.510869,6.98707 -3.512734,10.07122 -0.0022,3.58248 -0.3167,4.25 -2.002571,4.25 -1.702711,0 -2,-0.66667 -2,-4.48498 z m 19,-5.51502 c 0,-9.71823 0.06371,-10 2.261086,-10 1.708124,0 3.292825,1.65075 6.47991,6.75 l 4.218824,6.75 0.02009,-6.75 c 0.01809,-6.07664 0.219605,-6.75 2.02009,-6.75 1.866667,0 2,0.66667 2,10 0,9.25058 -0.146253,10 -1.951551,10 -1.314712,0 -3.517404,-2.36585 -6.75,-7.25 l -4.798449,-7.25 -0.29381,7.25 c -0.224767,5.54633 -0.635998,7.25 -1.75,7.25 -1.177841,0 -1.45619,-1.91149 -1.45619,-10 z m 27.380047,3.75 c 4.5942,-12.15211 5.45418,-13.75 7.40014,-13.75 1.44376,0 2.73692,2.15942 5.55103,9.26947 2.01783,5.09821 3.66878,9.59821 3.66878,10 0,0.40179 -0.85121,0.73053 -1.89159,0.73053 -1.18371,0 -2.1264,-0.93557 -2.51905,-2.5 -0.54961,-2.18983 -1.16995,-2.5 -5,-2.5 -3.83005,0 -4.45039,0.31017 -5,2.5 -0.40398,1.60957 -1.32996,2.5 -2.59982,2.5 -1.921482,0 -1.911411,-0.16119 0.39051,-6.25 z m 9.61995,-2.6849 c 0,-0.5142 -0.48164,-2.2017 -1.07031,-3.75 -1.13388,-2.98225 -1.88443,-2.44094 -3.37611,2.4349 -0.58979,1.92782 -0.32073,2.25 1.87904,2.25 1.41206,0 2.56738,-0.42071 2.56738,-0.9349 z m 16,-1.0651 c 0,-9.38322 0.12523,-10 2.03039,-10 1.54548,0 2.83118,1.73147 5.38348,7.25 l 3.35309,7.25 1.61652,-3.75 c 0.88909,-2.0625 2.26856,-5.325 3.06549,-7.25 1.12054,-2.70667 2.02721,-3.5 4,-3.5 h 2.55103 v 10 c 0,9.33333 -0.13333,10 -2,10 -1.79871,0 -2.00383,-0.67935 -2.03805,-6.75 l -0.038,-6.75 -2.80402,6.5 c -3.71349,8.60823 -5.47953,8.61771 -8.98254,0.0482 l -2.63734,-6.45176 -0.29569,6.70176 c -0.22336,5.06137 -0.65172,6.7018 -1.75005,6.7018 -1.17546,0 -1.45431,-1.91741 -1.45431,-10 z m 32,0 c 0,-8.22222 0.26667,-10 1.5,-10 1.23333,0 1.5,1.77778 1.5,10 0,8.22222 -0.26667,10 -1.5,10 -1.23333,0 -1.5,-1.77778 -1.5,-10 z m 15.45455,7.54545 c -3.59262,-3.59261 -3.49951,-11.22776 0.18181,-14.90909 4.71219,-4.71218 15.36364,-2.72685 15.36364,2.86364 0,2.07754 -1.62566,1.87434 -4,-0.5 -2.62098,-2.62098 -6.418,-2.54108 -8.96104,0.18856 -4.05603,4.35363 -1.2393,11.81144 4.46104,11.81144 1.375,0 3.4,-0.9 4.5,-2 2.37434,-2.37434 4,-2.57754 4,-0.5 0,5.48358 -10.96016,7.63075 -15.54545,3.04545 z m 41.06861,1.20455 c -0.22774,-0.6875 -1.36316,-4.625 -2.52316,-8.75 -1.16,-4.125 -2.29542,-8.0625 -2.52316,-8.75 -0.23188,-0.69999 0.40327,-1.25 1.4435,-1.25 1.43828,0 2.25299,1.46082 3.60945,6.47198 0.96353,3.55958 2.06075,6.28108 2.43825,6.04777 0.37751,-0.23331 1.51038,-3.1457 2.5175,-6.47198 2.59147,-8.55905 4.61165,-8.24667 7.77493,1.20223 l 2.42713,7.25 1.87769,-7.25 c 1.49507,-5.77267 2.26189,-7.25 3.76319,-7.25 1.08205,0 1.69349,0.53265 1.4349,1.25 -0.24783,0.6875 -1.52949,5.20458 -2.84813,10.03795 -2.05536,7.53374 -2.67903,8.74685 -4.36986,8.5 -1.48604,-0.21696 -2.51427,-2.0138 -4.17048,-7.28795 -2.14319,-6.82495 -2.22553,-6.92921 -3.29244,-4.16937 -0.60185,1.55685 -1.59504,4.81935 -2.20709,7.25 -0.83034,3.29757 -1.59832,4.41937 -3.02548,4.41937 -1.05197,0 -2.099,-0.5625 -2.32674,-1.25 z m 30.47684,-8.75 v -10 h 6.5 c 5.11111,0 6.5,0.32051 6.5,1.5 0,1.11111 -1.16667,1.5 -4.5,1.5 -4.33333,0 -4.5,0.11111 -4.5,3 0,2.83333 0.22222,3 4,3 2.88889,0 4,0.41667 4,1.5 0,1.08333 -1.11111,1.5 -4,1.5 -3.6,0 -4,0.25 -4,2.5 0,2.2963 0.36667,2.5 4.5,2.5 3.33333,0 4.5,0.38889 4.5,1.5 0,1.17949 -1.38889,1.5 -6.5,1.5 h -6.5 z m 22,0 c 0,-9.33333 0.13333,-10 2,-10 1.86667,0 2,0.66667 2,10 0,9.33333 -0.13333,10 -2,10 -1.86667,0 -2,-0.66667 -2,-10 z m 16.91334,8.7182 c -2.49062,-1.91224 -3.91334,-5.26764 -3.91334,-9.22938 0,-7.94078 9.96011,-12.45443 16.36514,-7.41624 3.04696,2.39674 3.29088,3.4617 0.9947,4.34283 -1.0308,0.39556 -2.16644,-0.12198 -3.0567,-1.39301 -1.83748,-2.62337 -6.4448,-2.62833 -8.81482,-0.009 -3.89039,4.29834 -1.02556,11.9866 4.46667,11.9866 2.56697,0 5.04501,-1.57179 5.04501,-3.2 0,-0.44 -1.35,-0.8 -3,-0.8 -2,0 -3,-0.5 -3,-1.5 0,-1.13333 1.22222,-1.5 5,-1.5 h 5 v 5 c 0,3.77778 -0.36667,5 -1.5,5 -0.825,0 -1.5,-0.54 -1.5,-1.2 0,-0.93333 -0.26667,-0.93333 -1.2,0 -1.55022,1.55022 -8.83227,1.4955 -10.88666,-0.0818 z m 24.08666,-8.7182 c 0,-9.33333 0.13333,-10 2,-10 1.66667,0 2,0.66667 2,4 v 4 h 4.5 4.5 v -4 c 0,-3.33333 0.33333,-4 2,-4 1.86667,0 2,0.66667 2,10 0,9.33333 -0.13333,10 -2,10 -1.66667,0 -2,-0.66667 -2,-4 v -4 h -4.5 -4.5 v 4 c 0,3.33333 -0.33333,4 -2,4 -1.86667,0 -2,-0.66667 -2,-10 z m 27,0 c 0,-8.22222 0.26667,-10 1.5,-10 1.23333,0 1.5,1.77778 1.5,10 0,8.22222 -0.26667,10 -1.5,10 -1.23333,0 -1.5,-1.77778 -1.5,-10 z m 14,0 c 0,-9.39818 0.12275,-10 2.03968,-10 1.42308,0 3.31248,1.9999 6.25,6.61554 l 4.21032,6.61555 0.29569,-6.61555 c 0.22285,-4.98589 0.65394,-6.61554 1.75,-6.61554 1.17546,0 1.45431,1.91741 1.45431,10 0,12.47257 -1.07965,12.8679 -7.74203,2.83486 l -4.75797,-7.16514 -0.29381,7.16514 c -0.22438,5.47203 -0.6379,7.16514 -1.75,7.16514 -1.17784,0 -1.45619,-1.91149 -1.45619,-10 z m 28.45455,7.54545 c -3.59262,-3.59261 -3.49951,-11.22776 0.18181,-14.90909 3.71399,-3.71398 10.36848,-3.72243 14.07305,-0.0179 2.30797,2.30797 2.42494,2.72681 0.9864,3.53186 -1.17001,0.65477 -2.20735,0.3381 -3.66395,-1.1185 -2.82047,-2.82047 -6.45901,-2.57558 -8.95928,0.603 -2.61632,3.32611 -2.6432,6.79452 -0.0726,9.36514 2.22172,2.22172 6.94857,2.65143 8.8,0.8 1.94521,-1.94521 1.39571,-2.8 -1.8,-2.8 -2,0 -3,-0.5 -3,-1.5 0,-1.13333 1.22222,-1.5 5,-1.5 h 5 v 5 c 0,3.77778 -0.36667,5 -1.5,5 -0.825,0 -1.5,-0.54 -1.5,-1.2 0,-0.93333 -0.26667,-0.93333 -1.2,0 -0.66,0.66 -3.15545,1.2 -5.54545,1.2 -3.28036,0 -4.94708,-0.60162 -6.8,-2.45455 z m 39.37632,1.20455 c -2.54657,-2.05184 -3.06147,-4.75 -0.90647,-4.75 1.02389,0 2.12064,0.675 2.43723,1.5 0.73723,1.92119 6.24062,1.9789 6.97194,0.0731 0.6844,-1.78352 -0.7884,-2.97581 -5.58402,-4.52049 -4.51831,-1.45535 -5.81397,-4.77917 -3.33673,-8.55991 2.14248,-3.26984 8.35607,-3.51055 11.14243,-0.43166 1.57788,1.74354 1.64379,2.1979 0.42783,2.94941 -0.94117,0.58167 -2.02375,0.35772 -3.13584,-0.6487 -2.19766,-1.98886 -5.34724,-1.36962 -5.34724,1.0513 0,1.29865 1.23023,2.3116 3.95181,3.25383 2.1735,0.75248 4.30411,1.92277 4.73469,2.60063 1.28572,2.02411 0.91958,5.48355 -0.75793,7.16105 -1.87991,1.87991 -8.41736,2.07819 -10.5977,0.32143 z m 22.75802,-1.82673 c -5.84291,-6.94391 -1.47271,-16.92327 7.41111,-16.92327 8.88382,0 13.25402,9.97936 7.41111,16.92327 -2.23182,2.65237 -3.254,3.07673 -7.41111,3.07673 -4.15711,0 -5.17929,-0.42436 -7.41111,-3.07673 z m 12.33853,-2.55813 c 1.13992,-1.44917 2.07258,-3.41348 2.07258,-4.36514 0,-0.95166 -0.93266,-2.91597 -2.07258,-4.36514 -3.96725,-5.04355 -11.26075,-2.21628 -11.26075,4.36514 0,6.58142 7.2935,9.40869 11.26075,4.36514 z m 14.07258,-4.36514 c 0,-9.33333 0.13333,-10 2,-10 1.84314,0 2,0.66667 2,8.5 v 8.5 h 4.5 c 3.33333,0 4.5,0.38889 4.5,1.5 0,1.17949 -1.38889,1.5 -6.5,1.5 h -6.5 z m 22.5567,7.77749 c -2.18967,-3.12619 -2.2364,-17.77749 -0.0567,-17.77749 1.18647,0 1.5,1.42321 1.5,6.80887 0,7.79763 1.3885,10.55378 5.05603,10.0361 2.33855,-0.33009 2.4565,-0.70083 2.73441,-8.59497 0.2615,-7.42777 0.48574,-8.25 2.25,-8.25 1.77811,0 1.95956,0.72017 1.95956,7.77749 0,10.01003 -1.35762,12.22251 -7.5,12.22251 -3.39936,0 -4.73694,-0.50019 -5.9433,-2.22251 z m 28.23374,-6.02749 -0.29044,-8.25 -3.25,-0.31336 c -2.01311,-0.1941 -3.25,-0.86012 -3.25,-1.75 0,-1.12913 1.71236,-1.43664 8,-1.43664 6.44444,0 8,0.29167 8,1.5 0,1 -1,1.5 -3,1.5 h -3 v 8.5 c 0,6.78421 -0.29462,8.5 -1.45956,8.5 -1.13799,0 -1.52354,-1.81759 -1.75,-8.25 z m 18.20956,-1.75 c 0,-8.22222 0.26667,-10 1.5,-10 1.23333,0 1.5,1.77778 1.5,10 0,8.22222 -0.26667,10 -1.5,10 -1.23333,0 -1.5,-1.77778 -1.5,-10 z m 16.29903,8.4969 c -1.18028,-0.82671 -2.66531,-3.07671 -3.30005,-5 -1.41742,-4.29481 0.0805,-9.7387 3.30005,-11.9938 2.81303,-1.97032 9.13704,-1.91871 12.21754,0.0997 4.91277,3.21898 5.04796,13.48752 0.22206,16.86771 -2.79375,1.95682 -9.66271,1.97138 -12.4396,0.0264 z m 10.70097,-3.4969 c 4.12982,-4.12982 1.17851,-12 -4.5,-12 -1.375,0 -3.4,0.9 -4.5,2 -4.12982,4.12982 -1.17851,12 4.5,12 1.375,0 3.4,-0.9 4.5,-2 z m 15,-5 c 0,-9.39261 0.12368,-10 2.03621,-10 1.42935,0 3.29206,2.00638 6.25,6.73206 l 4.21379,6.73206 0.29569,-6.73206 c 0.22347,-5.08784 0.65089,-6.73206 1.75,-6.73206 1.17546,0 1.45431,1.91741 1.45431,10 0,8.87269 -0.19728,9.9954 -1.75,9.95919 -1.06649,-0.0249 -3.50761,-2.85657 -6.25,-7.25 l -4.5,-7.20919 -0.29381,7.25 c -0.22477,5.54633 -0.636,7.25 -1.75,7.25 -1.17784,0 -1.45619,-1.91149 -1.45619,-10 z m 28.3997,9.23469 c -0.60516,-0.40408 -1.63349,-1.74719 -2.28518,-2.98469 -1.03484,-1.96507 -0.94071,-2.25 0.74331,-2.25 1.0605,0 2.18721,0.675 2.5038,1.5 0.73723,1.92119 6.24062,1.9789 6.97194,0.0731 0.6844,-1.78352 -0.7884,-2.97581 -5.58402,-4.52049 -4.51831,-1.45535 -5.81397,-4.77917 -3.33673,-8.55991 2.14248,-3.26984 8.35607,-3.51055 11.14243,-0.43166 1.57788,1.74354 1.64379,2.1979 0.42783,2.94941 -0.94117,0.58167 -2.02375,0.35772 -3.13584,-0.6487 -2.19766,-1.98886 -5.34724,-1.36962 -5.34724,1.0513 0,1.29865 1.23023,2.3116 3.95181,3.25383 2.1735,0.75248 4.30411,1.92277 4.73469,2.60063 1.28572,2.02411 0.91958,5.48355 -0.75793,7.16105 -1.60905,1.60905 -8.0509,2.12684 -10.02887,0.80612 z M 174.6568,104.34245 c -8.13509,-1.97827 -13.56626,-5.936736 -17.06482,-12.437566 -1.97618,-3.67204 -2.1804,-5.76278 -2.4908,-25.5 -0.40552,-25.78579 0.27663,-29.94448 5.97346,-36.41641 3.32971,-3.78275 5.2695,-4.96601 11.19608,-6.82954 6.80614,-2.14009 8.7612,-2.25369 38.66858,-2.24693 34.51758,0.008 39.61494,0.59446 47.25288,5.4383 3.34214,2.11952 5.24288,4.36309 7.37486,8.70502 l 2.87226,5.84956 v 21.5 c 0,25.60047 -0.60511,28.48528 -7.34318,35.00793 -7.48977,7.250306 -8.03817,7.337876 -47.65682,7.609496 -19.25,0.13197 -36.70212,-0.17396 -38.7825,-0.67986 z m 61.6651,-20.892926 c 4.87829,-1.85473 6.08965,-5.34585 6.41898,-18.49935 0.33507,-13.38314 -0.72372,-17.01219 -6.11778,-20.96888 -2.55346,-1.87303 -4.52533,-2.0996 -21.13568,-2.42846 -27.67142,-0.54787 -32.40668,1.05677 -34.6324,11.73586 -1.3674,6.56086 -0.67173,21.36282 1.19676,25.46372 2.36223,5.18453 4.35276,5.5688 29.07242,5.61243 12.4767,0.022 23.81566,-0.38987 25.1977,-0.91532 z M 26.634391,103.76664 c -0.382299,-0.3823 -0.695088,-18.564986 -0.695088,-40.405976 0,-33.5449 0.226071,-39.89851 1.455971,-40.91924 1.985928,-1.64817 82.341236,-0.89893 87.661656,0.81737 5.32762,1.71862 10.00289,5.18982 12.3232,9.14949 1.60316,2.73582 2.04897,5.23722 2.04897,11.4966 0,9.60258 -2.05937,14.023 -7.86306,16.87795 l -3.81758,1.87794 5.25863,2.12206 c 7.23174,2.91828 9.415,7.12452 9.40629,18.12205 -0.008,9.91886 -2.73425,15.66577 -8.97408,18.916276 -3.85968,2.01062 -5.61562,2.09349 -50.054909,2.36214 -25.330201,0.15313 -46.367702,-0.0344 -46.75,-0.41666 z M 104.30444,83.332304 c 3.12197,-2.45574 3.38736,-5.77583 0.72473,-9.06664 -1.90117,-2.34969 -2.02605,-2.36219 -26.587009,-2.66102 -17.795953,-0.21652 -25.070867,0.0268 -26.089862,0.87245 -1.744885,1.44812 -1.900925,10.03986 -0.212996,11.72779 0.867122,0.86712 7.903365,1.2 25.365141,1.2 22.933026,0 24.299486,-0.10567 26.799996,-2.07258 z m -1.77692,-31.23318 c 2.9479,-3.42946 3.00037,-4.67625 0.3392,-8.05938 l -2.07258,-2.63486 H 77.066723 c -17.121327,0 -24.061519,0.3341 -24.92742,1.2 -1.581003,1.581 -1.544673,10.05271 0.05,11.6595 0.952063,0.9593 6.81265,1.18573 24.58822,0.95 l 23.338217,-0.3095 z m 219.88353,51.055756 c -0.25602,-0.6875 -0.57939,-14.524996 -0.71862,-30.749996 l -0.25313,-29.5 -16.42841,-0.27563 c -10.04176,-0.16847 -16.94219,-0.70202 -17.75,-1.37244 -1.86814,-1.55042 -1.83235,-17.18314 0.0429,-18.73946 0.98329,-0.81606 14.4629,-1.05979 48.25,-0.87245 l 46.88551,0.25998 v 10 10 l -17.5,0.5 -17.5,0.5 -0.26445,30.75 -0.26445,30.749996 h -12.01694 c -8.69862,0 -12.14547,-0.34517 -12.48241,-1.25 z m 84.76716,-39.999996 0.26109,-41.25 43.88475,-0.26061 c 32.25763,-0.19156 44.25653,0.0479 45.28796,0.90395 1.04104,0.86398 1.32888,3.25413 1.11524,9.26061 l -0.28795,8.09605 -31.41498,0.26448 c -21.7744,0.18331 -31.83852,0.61598 -32.79513,1.4099 -0.94669,0.78568 -1.28746,2.90111 -1.08502,6.73552 l 0.29513,5.5901 30.5,0.5 30.5,0.5 v 8 8 l -30.5,0.5 -30.5,0.5 v 6.5 6.5 l 33,0.5 33,0.5 0.28753,9.25 0.28752,9.249996 h -46.04862 -46.04862 z m 115.99997,0.0309 0.26112,-41.28087 h 12 12 l 0.5,15.22623 0.5,15.22622 16.36214,-15.50105 16.36213,-15.50105 15.63787,0.27483 c 10.5821,0.18597 15.63786,0.63202 15.63786,1.37967 0,0.60767 -8.8875,9.52785 -19.75,19.82264 -10.8625,10.29478 -19.75,19.10256 -19.75,19.57285 0,0.47029 10.125,9.74984 22.5,20.62121 12.375,10.87137 22.5,20.128906 22.5,20.572286 0,0.44339 -7.61872,0.80616 -16.9305,0.80616 h -16.9305 l -17.8195,-15.506636 -17.8195,-15.50665 -0.5,15.25665 -0.5,15.256636 -12.26112,0.28087 -12.26112,0.28087 z"
       style="fill:#ffffff" />
  </g>
</svg>
