<?xml version="1.0" encoding="UTF-8" standalone="no"?>
<svg
   xmlns:dc="http://purl.org/dc/elements/1.1/"
   xmlns:cc="http://creativecommons.org/ns#"
   xmlns:rdf="http://www.w3.org/1999/02/22-rdf-syntax-ns#"
   xmlns:svg="http://www.w3.org/2000/svg"
   xmlns="http://www.w3.org/2000/svg"
   xmlns:sodipodi="http://sodipodi.sourceforge.net/DTD/sodipodi-0.dtd"
   xmlns:inkscape="http://www.inkscape.org/namespaces/inkscape"
   sodipodi:docname="ecobin.svg"
   inkscape:version="1.0 (4035a4f, 2020-05-01)"
   id="svg2152"
   version="1.1"
   viewBox="0 0 130.89233 80.425728"
   height="80.425728mm"
   width="130.89233mm">
  <defs
     id="defs2146" />
  <sodipodi:namedview
     inkscape:window-maximized="0"
     inkscape:window-y="23"
     inkscape:window-x="2476"
     inkscape:window-height="1395"
     inkscape:window-width="1720"
     inkscape:pagecheckerboard="true"
     fit-margin-bottom="0"
     fit-margin-right="0"
     fit-margin-left="0"
     fit-margin-top="0"
     showgrid="false"
     inkscape:document-rotation="0"
     inkscape:current-layer="layer1"
     inkscape:document-units="mm"
     inkscape:cy="180.13536"
     inkscape:cx="441.08555"
     inkscape:zoom="0.85991716"
     inkscape:pageshadow="2"
     inkscape:pageopacity="0.0"
     borderopacity="1.0"
     bordercolor="#666666"
     pagecolor="#ffffff"
     id="base" />
  <metadata
     id="metadata2149">
    <rdf:RDF>
      <cc:Work
         rdf:about="">
        <dc:format>image/svg+xml</dc:format>
        <dc:type
           rdf:resource="http://purl.org/dc/dcmitype/StillImage" />
        <dc:title></dc:title>
      </cc:Work>
    </rdf:RDF>
  </metadata>
  <g
     transform="translate(172.18737,-55.104259)"
     id="layer1"
     inkscape:groupmode="layer"
     inkscape:label="Layer 1">
    <path
       id="path2170"
       d="m -133.03935,135.09778 c -0.35192,-0.142 -0.46729,-0.8959 -0.13229,-0.86451 0.10914,0.0102 0.43656,0.11433 0.7276,0.23134 0.29104,0.11701 0.73753,0.10446 0.99219,-0.0279 0.57137,-0.29697 0.63073,-1.06353 0.0656,-0.84665 -1.01438,0.38926 -2.24836,-0.63819 -2.24836,-1.87206 0,-0.86644 0.9871,-1.59276 2.22109,-1.63429 l 1.21849,-0.041 v 2.17728 c 0,2.74557 -0.90435,3.66059 -2.84427,2.87781 z m 1.73942,-2.17167 c 0.60509,-0.38364 0.28625,-2.00346 -0.41395,-2.10294 -0.89684,-0.12741 -1.38613,1.07916 -0.73113,1.80293 0.53473,0.59088 0.64199,0.61897 1.14508,0.30001 z m 7.97871,1.94363 c -0.463,-0.55788 -0.12479,-0.79928 0.63489,-0.45315 0.48924,0.22292 0.75815,0.19938 1.19174,-0.10432 0.79036,-0.55359 0.69507,-0.81953 -0.24426,-0.68167 -1.13031,0.1659 -1.84165,-0.54175 -1.84165,-1.83208 0,-1.25996 0.73512,-1.82429 2.25191,-1.72873 l 1.05538,0.0665 0.081,1.56515 c 0.15634,3.0211 -1.69522,4.89592 -3.12901,3.16831 z m 2.33627,-2.96128 c -0.095,-0.79162 -0.74506,-1.2909 -1.36896,-1.05149 -0.5894,0.22618 -0.57259,1.6657 0.0234,1.99921 0.70554,0.39483 1.44431,-0.12549 1.34561,-0.94772 z m 3.78699,2.22255 0.55483,-1.142 -0.69056,-1.36275 c -0.79456,-1.56799 -0.81074,-1.64492 -0.34581,-1.64492 0.18961,0 0.58929,0.50491 0.88817,1.12202 l 0.54343,1.12202 0.57241,-1.12202 c 0.53178,-1.04236 1.09083,-1.47909 1.09083,-0.85215 0,0.64884 -2.4185,5.0218 -2.77735,5.0218 -0.31931,0 -0.28931,-0.20885 0.16405,-1.142 z m -31.5137,-1.16166 c -1.2506,-1.58986 0.65729,-3.79206 2.26028,-2.60895 0.38477,0.28399 0.43813,0.45568 0.21273,0.68452 -0.21409,0.21735 -0.35214,0.22248 -0.47864,0.0178 -0.29308,-0.47422 -1.16608,-0.32533 -1.47481,0.25152 -0.5736,1.07179 0.31192,2.12144 1.33004,1.57656 0.65599,-0.35108 0.79198,-0.33306 0.79198,0.10493 0,0.93354 -1.90145,0.91454 -2.64158,-0.0264 z m 3.43533,-1.92968 c 0,-2.17546 0.0706,-2.64583 0.39688,-2.64583 0.27406,0 0.39687,0.27521 0.39687,0.88935 0,0.79631 0.0665,0.87664 0.63556,0.76786 1.0387,-0.19856 1.74569,0.73759 1.74569,2.31154 0,0.99954 -0.097,1.32292 -0.39688,1.32292 -0.29233,0 -0.39687,-0.30508 -0.39687,-1.15823 0,-1.23324 -0.49445,-1.92365 -1.18726,-1.6578 -0.28388,0.10894 -0.40024,0.5406 -0.40024,1.48481 0,1.00692 -0.0967,1.33122 -0.39687,1.33122 -0.32632,0 -0.39688,-0.47037 -0.39688,-2.64584 z m 4.13701,2.15641 c -1.21018,-1.33722 -0.11838,-3.28015 1.74951,-3.11336 l 1.12494,0.10045 0.0774,1.71635 0.0774,1.71634 -1.29825,0.0292 c -0.94304,0.0213 -1.41667,-0.10161 -1.73108,-0.44903 z m 2.1627,-1.28762 c -0.095,-0.79162 -0.74505,-1.2909 -1.36896,-1.05149 -0.5894,0.22618 -0.57258,1.6657 0.0234,1.99921 0.70553,0.39483 1.4443,-0.12549 1.3456,-0.94772 z m 1.69185,0.004 0.0782,-1.77342 1.11074,-0.0735 c 1.51664,-0.10037 1.93197,0.36915 1.93197,2.18405 0,1.10033 -0.0928,1.4363 -0.39688,1.4363 -0.30019,0 -0.39687,-0.3243 -0.39687,-1.33121 0,-0.94422 -0.11636,-1.37588 -0.40024,-1.48481 -0.69281,-0.26586 -1.18726,0.42456 -1.18726,1.6578 0,0.86836 -0.10235,1.15822 -0.40896,1.15822 -0.336,0 -0.39501,-0.31639 -0.33073,-1.77341 z m 8.20208,-0.0125 c 0.0996,-2.2747 0.58144,-2.22991 0.68564,0.0637 0.065,1.43117 0.007,1.72219 -0.34282,1.72219 -0.35116,0 -0.40807,-0.29647 -0.34282,-1.78594 z m 1.79803,0.008 v -1.82169 l 0.98903,-0.028 c 1.64277,-0.0466 1.92138,0.25057 1.92138,2.04913 0,0.87574 -0.11776,1.57819 -0.26458,1.57819 -0.14552,0 -0.26458,-0.45349 -0.26458,-1.00776 0,-2.22488 -1.49638,-2.60484 -1.63858,-0.41607 -0.13504,2.07879 -0.74267,1.78935 -0.74267,-0.35376 z m 13.49375,1.24844 c -1.02739,-1.02739 -0.13255,-3.175 1.32291,-3.175 0.65383,0 1.85209,1.11614 1.85209,1.72516 0,1.7122 -1.99956,2.62528 -3.175,1.44984 z m 2.2814,-0.9611 c 0.27864,-1.1102 -0.91636,-1.88561 -1.69932,-1.10265 -0.7419,0.7419 0.005,2.13753 1.00366,1.87629 0.29519,-0.0772 0.60823,-0.42533 0.69566,-0.77364 z m 1.70278,0.98994 c -0.40917,-0.76454 -0.36858,-3.27705 0.0507,-3.13923 0.1819,0.0598 0.39026,0.69376 0.46302,1.40881 0.22834,2.24399 1.57533,1.92839 1.58345,-0.37099 0.003,-0.79833 0.10449,-1.11305 0.33478,-1.03629 0.21875,0.0729 0.33073,0.68486 0.33073,1.80739 v 1.69714 l -1.24133,0.0782 c -1.01383,0.0639 -1.29266,-0.0177 -1.52136,-0.44503 z m 3.74279,-1.25423 0.0782,-1.75455 0.8599,-0.0668 c 0.97565,-0.0758 1.14226,0.36183 0.33073,0.86864 -0.40157,0.25078 -0.52917,0.61701 -0.52917,1.51885 0,0.89556 -0.10077,1.18838 -0.40896,1.18838 -0.33565,0 -0.39494,-0.31454 -0.33073,-1.75455 z m 4.3503,0.30961 c -1.04313,-2.27851 -0.75722,-3.34965 0.33821,-1.26704 l 0.52188,0.99219 0.3362,-0.85989 c 0.18491,-0.47295 0.40756,-0.8599 0.49477,-0.8599 0.0872,0 0.347226,0.38695 0.577806,0.8599 l 0.41924,0.85989 0.43372,-1.0105 c 0.36611,-0.85299 0.84935,-1.18381 1.02642,-0.70267 0.0737,0.20023 -1.25236,3.43296 -1.40818,3.43296 -0.0774,0 -0.33183,-0.44148 -0.56533,-0.98107 l -0.42457,-0.98108 -0.524986,1.02331 -0.52499,1.02331 z m 5.226396,1.23746 c -1.68405,-1.09559 -0.81707,-3.32234 1.32159,-3.39432 l 1.21849,-0.041 v 1.76387 1.76386 l -1.12448,0.0485 c -0.61847,0.0267 -1.25548,-0.0367 -1.4156,-0.14089 z m 1.43522,-0.55192 c 0.59583,-0.37776 0.28743,-2.00326 -0.3986,-2.10092 -0.86912,-0.12373 -1.30675,0.85026 -0.75821,1.68744 0.45604,0.696 0.61922,0.75432 1.15681,0.41348 z m 2.19544,0.52035 c -0.58347,-0.36956 -0.10123,-0.87482 0.51844,-0.54318 0.52224,0.2795 1.03681,0.14756 1.03681,-0.26583 0,-0.1227 -0.35876,-0.34815 -0.79724,-0.50101 -1.00783,-0.35133 -1.25278,-0.96867 -0.64905,-1.63578 0.49505,-0.54703 1.33156,-0.66767 1.94321,-0.28026 0.46358,0.29363 0.14512,0.84598 -0.3731,0.64713 -0.97372,-0.37365 -1.32287,0.21309 -0.39186,0.65851 0.99374,0.47543 1.29716,1.16019 0.78666,1.77531 -0.35224,0.42442 -1.5055,0.50511 -2.07387,0.14511 z m 3.72483,-0.0785 c -0.17462,-0.17462 -0.3175,-0.82947 -0.3175,-1.45521 0,-0.83491 -0.10562,-1.13771 -0.39687,-1.13771 -0.21828,0 -0.39688,-0.12279 -0.39688,-0.27288 0,-0.15009 0.1786,-0.34142 0.39688,-0.42518 0.21828,-0.0838 0.39687,-0.37769 0.39687,-0.65316 0,-0.27547 0.1786,-0.50086 0.39688,-0.50086 0.21828,0 0.39687,0.22424 0.39687,0.49831 0,0.27579 0.2363,0.5601 0.52917,0.63669 0.29104,0.0761 0.52917,0.26859 0.52917,0.42773 0,0.15914 -0.23813,0.28935 -0.52917,0.28935 -0.44097,0 -0.52917,0.17639 -0.52917,1.05834 0,0.88194 0.0882,1.05833 0.52917,1.05833 0.29398,0 0.52917,0.17639 0.52917,0.39688 0,0.48008 -1.07811,0.53585 -1.53459,0.0794 z m 2.32834,-0.21167 c -0.76135,-0.76134 -0.68497,-1.95571 0.16797,-2.62663 0.90322,-0.71047 1.30066,-0.69128 2.09301,0.10107 1.05312,1.05311 0.86303,1.46723 -0.67348,1.46723 -1.38196,0 -1.69394,0.31198 -0.79375,0.79375 0.36805,0.19698 0.68539,0.19959 1.04227,0.009 0.61491,-0.32909 1.09232,0.17915 0.51298,0.5461 -0.63496,0.40217 -1.80069,0.2582 -2.349,-0.29011 z m 1.85208,-2.00194 c 0,-0.29373 -0.20601,-0.39007 -0.7072,-0.33073 -1.03006,0.12194 -1.12089,0.74517 -0.1086,0.74517 0.56414,0 0.8158,-0.12785 0.8158,-0.41444 z m 3.175,-0.11472 c 0,-2.17546 0.0706,-2.64584 0.39688,-2.64584 0.27759,0 0.39687,0.27985 0.39687,0.93109 0,0.86497 0.0477,0.9191 0.67212,0.76239 1.10222,-0.27664 1.70913,0.49889 1.70913,2.18399 0,1.08068 -0.0936,1.4142 -0.39688,1.4142 -0.30019,0 -0.39687,-0.3243 -0.39687,-1.33122 0,-0.94421 -0.11636,-1.37587 -0.40024,-1.48481 -0.69281,-0.26585 -1.18726,0.42457 -1.18726,1.6578 0,0.85315 -0.10454,1.15823 -0.39687,1.15823 -0.32632,0 -0.39688,-0.47037 -0.39688,-2.64583 z m 4.22785,2.11118 c -1.23349,-1.23349 -0.26466,-2.98124 1.68917,-3.04721 l 1.22673,-0.0414 v 1.7541 1.7541 l -1.19611,0.0521 c -0.88748,0.0386 -1.33124,-0.0831 -1.71979,-0.47162 z m 1.80465,-0.31202 c 0.47121,-0.47121 0.39469,-1.78615 -0.11534,-1.98187 -1.03401,-0.39679 -1.82697,1.06009 -1.01755,1.86952 0.51328,0.51327 0.71224,0.53301 1.13289,0.11235 z m 2.16958,-1.8567 c 0,-2.12432 0.0711,-2.5883 0.39688,-2.5883 0.27664,0 0.39687,0.27855 0.39687,0.91943 0,0.8699 0.0407,0.9113 0.75468,0.76849 0.60656,-0.12131 0.86621,-0.009 1.32292,0.57146 1.21839,1.54894 0.36691,3.05814 -1.67524,2.96926 l -1.19611,-0.0521 z m 2.54537,1.21554 c 0.19897,-0.79273 -0.3321,-1.47421 -1.067,-1.36921 -0.39175,0.056 -0.57816,0.30589 -0.64117,0.85962 -0.16083,1.41326 1.36697,1.86904 1.70817,0.50959 z m 1.47744,-0.27702 c 0.1127,-2.54243 0.73969,-2.63506 0.73969,-0.10928 0,1.51413 -0.0785,1.87413 -0.40896,1.87413 -0.33584,0 -0.39498,-0.31555 -0.33073,-1.76485 z m 2.38011,1.44735 c -0.17463,-0.17462 -0.3175,-0.82947 -0.3175,-1.45521 0,-0.83491 -0.10563,-1.13771 -0.39688,-1.13771 -0.21828,0 -0.39687,-0.12279 -0.39687,-0.27288 0,-0.15009 0.17859,-0.34142 0.39687,-0.42518 0.21829,-0.0838 0.39688,-0.37769 0.39688,-0.65316 0,-0.27547 0.17859,-0.50086 0.39687,-0.50086 0.21829,0 0.39688,0.22424 0.39688,0.49831 0,0.27579 0.23629,0.5601 0.52917,0.63669 0.69437,0.18158 0.68301,0.71708 -0.0152,0.71708 -0.47682,0 -0.53428,0.13956 -0.46302,1.12448 0.0652,0.90045 0.17361,1.10899 0.54438,1.04674 0.2746,-0.0461 0.46302,0.0885 0.46302,0.33073 0,0.49107 -1.07099,0.55456 -1.53458,0.091 z m 2.14476,0.14723 c -0.62145,-0.25281 -0.0735,-0.87211 0.5589,-0.63167 1.12228,0.42669 1.40451,-0.17323 0.32391,-0.68854 -1.60637,-0.76602 -0.98858,-2.54289 0.73382,-2.1106 0.9128,0.2291 0.74453,0.85186 -0.19937,0.73787 -0.9205,-0.11116 -0.90834,0.41757 0.0177,0.76964 1.14419,0.43502 1.38681,1.00507 0.71409,1.6778 -0.39674,0.39674 -1.4746,0.51987 -2.14905,0.2455 z m -64.110176,-4.45994 c 0,-0.21828 0.1786,-0.39687 0.39688,-0.39687 0.21828,0 0.39687,0.17859 0.39687,0.39687 0,0.21828 -0.17859,0.39688 -0.39687,0.39688 -0.21828,0 -0.39688,-0.1786 -0.39688,-0.39688 z m 59.531246,0 c 0,-0.27251 0.17341,-0.40228 0.46302,-0.3465 0.5577,0.1074 0.52254,0.57697 -0.0522,0.69663 -0.2397,0.0499 -0.41085,-0.0959 -0.41085,-0.35013 z m -95.142286,-4.0949 c -11.22264,-2.37253 -9.16864,-19.29524 2.27354,-18.73152 4.68856,0.23099 7.91251,3.33217 8.71115,8.3794 0.3613,2.28335 0.79126,2.1439 -6.6101,2.1439 -7.1463,0 -6.99228,-0.0374 -6.05982,1.47135 1.34519,2.17656 4.58561,2.53049 6.64717,0.72603 0.44859,-0.39264 1.336,0.35352 3.1243,2.62697 l 0.53043,0.67433 -0.92645,0.70664 c -2.24023,1.70871 -5.30549,2.50704 -7.69022,2.0029 z m 5.44854,-12.07114 c 0,-2.47968 -5.26649,-3.16437 -6.88258,-0.89479 -0.90705,1.27385 -0.80029,1.31812 3.17842,1.31812 3.21909,0 3.70416,-0.0554 3.70416,-0.42333 z m 15.08996,11.91959 c -7.02905,-1.95496 -9.29661,-10.66065 -4.13698,-15.8828 3.48765,-3.5299 8.94648,-3.77429 12.47113,-0.55832 l 1.2148,1.10841 -1.71703,1.69322 -1.71703,1.69323 -0.82487,-0.69408 c -2.99901,-2.5235 -7.15081,-0.48653 -7.15081,3.50835 0,3.77635 4.03744,5.74866 6.99902,3.41908 l 0.71811,-0.56486 1.69524,1.68016 1.69523,1.68017 -0.82118,0.84724 c -1.84561,1.9042 -5.65617,2.84046 -8.42563,2.0702 z m 19.0076,0.17515 c -7.3121,-1.52736 -10.10713,-10.80492 -4.84154,-16.07052 5.98325,-5.98324 16.00758,-1.76554 15.98145,6.72414 -0.0185,6.02079 -5.40906,10.54344 -11.13991,9.34638 z m 3.74685,-5.38755 c 2.84232,-1.43462 3.21138,-5.32453 0.71328,-7.51789 -3.1334,-2.75116 -8.05272,0.62241 -6.83487,4.68722 0.86822,2.89787 3.54038,4.1335 6.12159,2.83067 z m 17.98268,5.36326 c -2.81201,-0.52736 -5.28329,-2.40129 -6.38769,-4.84368 -0.61788,-1.36644 -0.6245,-1.48134 -0.70107,-12.16125 l -0.0773,-10.781768 h 2.39241 2.39241 v 5.302818 5.30282 l 1.25677,-0.73876 c 2.82622,-1.66131 7.357566,-0.77246 9.850726,1.9323 6.27381,6.80628 0.33501,17.68685 -8.726246,15.98752 z m 3.526576,-5.12885 c 2.52227,-1.05387 3.50408,-4.52368 1.93289,-6.831 -2.543686,-3.73543 -7.637126,-2.07029 -7.688826,2.51362 -0.0383,3.3954 2.82408,5.54239 5.755936,4.31738 z m 11.61743,-4.46774 0.0695,-9.32657 2.3151,-0.0764 2.31511,-0.0765 v 9.40301 9.40301 h -2.38464 -2.38463 z m 9.7916,3.0427 c 0.13581,-7.12327 0.30707,-7.943 2.08033,-9.95754 2.69407,-3.06062 9.01356,-3.16853 12.06621,-0.20603 1.97607,1.91771 2.05028,2.2559 2.14321,9.7667 l 0.0827,6.68073 h -2.39776 -2.39776 l -0.0115,-4.82865 c -0.0173,-7.23896 -0.41688,-8.35492 -3.07378,-8.58411 -3.01956,-0.26048 -3.5293,0.94848 -3.5293,8.37055 v 5.04221 h -2.54106 -2.54105 z m 18.45605,3.77032 v -2.51355 h 6.87917 6.879167 V 89.896967 60.131343 h -29.765627 -29.765616 v 17.340138 17.340135 l -2.4474,-0.07607 -2.4474,-0.07608 -0.0678,-19.777603 -0.0678,-19.777604 h 34.794386 34.79439 v 34.792707 34.792704 h -9.392708 -9.392712 z m -27.28032,-17.72627 c -2.25928,-1.22799 -1.98958,-4.627855 0.43048,-5.426548 3.38219,-1.116218 5.57224,3.573658 2.51276,5.380928 -0.90414,0.5341 -2.01291,0.55128 -2.94324,0.0456 z"
       style="fill:#ffffff;stroke-width:0.264583" />
  </g>
</svg>
