<?xml version="1.0" encoding="UTF-8"?>
<svg class="logo svg replaced-svg" data-name="Layer 1" version="1.1" viewBox="0 0 210 45" xmlns="http://www.w3.org/2000/svg" xmlns:cc="http://creativecommons.org/ns#" xmlns:dc="http://purl.org/dc/elements/1.1/" xmlns:rdf="http://www.w3.org/1999/02/22-rdf-syntax-ns#">
 <metadata>
  <rdf:RDF>
   <cc:Work rdf:about="">
    <dc:format>image/svg+xml</dc:format>
    <dc:type rdf:resource="http://purl.org/dc/dcmitype/StillImage"/>
    <dc:title>envac_logotype</dc:title>
   </cc:Work>
  </rdf:RDF>
 </metadata>
 <defs>
  <style>.logo-cls-1{fill:#fff}.logo-cls-2{fill:#fff}.logo-cls-3{fill:#fff}</style>
 </defs>
 <title>envac_logotype</title>
 <g fill="#000">
  <path class="logo-cls-1" d="M59.61 17.28a9 9 0 0 1 8.92-7.85c4.83 0 7.92 3.15 8.66 7.85zm23.62 4.56v-.94c0-9.32-4.7-16.71-14.69-16.71s-15.3 7.25-15.3 16.91c0 9.26 5.84 16.51 15.43 16.51A16.34 16.34 0 0 0 83.23 29l-5.1-2.89c-2.28 3.76-4.76 6.11-9.39 6.11-5.77 0-9.39-5-9.46-10.4zM94.29 9.36h.13a10.71 10.71 0 0 1 9.46-5.17c8.86 0 11.14 6 11.14 13.62v18.72h-6v-18c0-5.37-.74-9-6.91-9-7.78 0-7.78 6.84-7.78 12.55v14.45h-6V5.13h6v4.23zm37.93 15.36l9.06-19.59h6.77l-15.83 32.48-15.77-32.48h6.78l8.99 19.59zm31.19 7.52c-6.38 0-9.93-5.5-9.93-11.41s3.69-11.27 9.93-11.27c6.51 0 10.2 5.17 10.2 11.27s-3.61 11.41-10.2 11.41zm15.9-27.11h-6v5.23h-.14a12.84 12.84 0 0 0-10.87-6.17c-9.13 0-14.83 7.85-14.83 16.44 0 9 5.44 17 15 17a12.86 12.86 0 0 0 10.67-6h.14v4.9h6V5.13zm30.26 8.93a11.52 11.52 0 0 0-9-4.23c-5.9 0-10.47 5.23-10.47 11 0 6.44 4.5 11.14 10.87 11.14a11.29 11.29 0 0 0 8.59-4.16v7.72a17.56 17.56 0 0 1-8.66 2.08 16.53 16.53 0 0 1-16.82-16.51c0-9.73 7.52-16.91 17.18-16.91a17 17 0 0 1 8.32 2.08v7.78z"/>
  <path class="logo-cls-2" d="M.51 43.01h208.96V45H.51z"/>
  <path class="logo-cls-1" d="M6.08 3.57a19.06 19.06 0 0 1 5.9 8.6 7.86 7.86 0 0 0-1.06.11l3.32 8.11v-8.84l-1 .41C13.08 10.34 12.39 4.5 10 1.5c-1.29 0-4 2.07-4 2.07z"/>
  <path class="logo-cls-3" d="M20.59.35a14.75 14.75 0 0 0-6.5 0A45.67 45.67 0 0 1 16.44 17a8.37 8.37 0 0 0-1.1-.32l1.89 11 2.07-10.93A8.49 8.49 0 0 0 18 17C17.55 9.61 20.59.35 20.59.35z"/>
  <path class="logo-cls-2" d="M24.87 1.36a29.57 29.57 0 0 0-3.55 10.55 2.1 2.1 0 0 0-.78-.37v8.93l3.32-8.24h-1c0-.46 2.49-5.76 6-8.71-.78-1-4-2.16-4-2.16z"/>
  <path class="logo-cls-2" d="M29.18 8.79l-2.82 2.78a13 13 0 1 1-17.88-.07L5.64 8.74a17 17 0 1 0 23.55 0z"/>
 </g>
</svg>
