<?xml version="1.0" encoding="UTF-8" standalone="no"?>
<svg
   xmlns:dc="http://purl.org/dc/elements/1.1/"
   xmlns:cc="http://creativecommons.org/ns#"
   xmlns:rdf="http://www.w3.org/1999/02/22-rdf-syntax-ns#"
   xmlns:svg="http://www.w3.org/2000/svg"
   xmlns="http://www.w3.org/2000/svg"
   xmlns:sodipodi="http://sodipodi.sourceforge.net/DTD/sodipodi-0.dtd"
   xmlns:inkscape="http://www.inkscape.org/namespaces/inkscape"
   inkscape:version="1.0 (4035a4f, 2020-05-01)"
   sodipodi:docname="micodata.svg"
   viewBox="0 0 2292 565.461"
   height="565.461"
   width="2292"
   id="svg893"
   version="1.1">
  <metadata
     id="metadata899">
    <rdf:RDF>
      <cc:Work
         rdf:about="">
        <dc:format>image/svg+xml</dc:format>
        <dc:type
           rdf:resource="http://purl.org/dc/dcmitype/StillImage" />
        <dc:title></dc:title>
      </cc:Work>
    </rdf:RDF>
  </metadata>
  <defs
     id="defs897" />
  <sodipodi:namedview
     inkscape:current-layer="g901"
     inkscape:window-maximized="0"
     inkscape:window-y="23"
     inkscape:window-x="2476"
     inkscape:cy="-580.05244"
     inkscape:cx="1158.8764"
     inkscape:zoom="0.31064572"
     inkscape:pagecheckerboard="true"
     fit-margin-bottom="0"
     fit-margin-right="0"
     fit-margin-left="0"
     fit-margin-top="0"
     showgrid="false"
     id="namedview895"
     inkscape:window-height="1395"
     inkscape:window-width="1720"
     inkscape:pageshadow="2"
     inkscape:pageopacity="0"
     guidetolerance="10"
     gridtolerance="10"
     objecttolerance="10"
     borderopacity="1"
     bordercolor="#666666"
     pagecolor="#ffffff" />
  <g
     transform="translate(12.876404,-862.7191)"
     id="g901"
     inkscape:label="Image"
     inkscape:groupmode="layer">
    <path
       id="path905"
       d="m 2.9216481,1424.2109 c -11.337257,-7.1898 -15.8037081,-16.618 -15.7855401,-33.3213 0.01119,-10.2878 0.428319,-12.2288 3.9462061,-18.3624 4.605332,-8.0296 12.130546,-14.6646 18.707948,-16.4948 7.5370449,-2.0971 20.0840689,-1.522 25.9999999,1.1918 6.607416,3.031 12.270632,8.6327 14.766422,14.606 3.194771,7.6461 2.769787,8.2222 -6.065516,8.2222 -7.365885,0 -8.110385,-0.2797 -9.886248,-3.7138 -1.056269,-2.0426 -3.540172,-4.5806 -5.519784,-5.6401 -4.696033,-2.5132 -13.226074,-2.2387 -15.979068,0.5143 -1.195122,1.1951 -2.656205,2.173 -3.2468529,2.173 -0.590647,0 -2.325716,2.9099 -3.855712,6.4664 -2.023609,4.704 -2.640895,8.429 -2.2648,13.6667 0.688565,9.5894 2.295067,13.3794 7.5428639,17.7952 3.79752,3.1954 5.249195,3.609 10.79496,3.0762 7.209823,-0.6928 11.184107,-3.5501 13.915649,-10.0046 1.751851,-4.1395 2.161063,-4.3333 9.149312,-4.3333 h 7.31544 v 4.2162 c 0,5.8108 -5.760493,15.1107 -12.289201,19.84 -5.136969,3.7212 -6.170725,3.9438 -18.316476,3.9438 -11.8939169,0 -13.3326159,-0.2919 -18.9296029,-3.8415 z m 142.0208519,0.04 c -12.02062,-8.7076 -15.82212,-16.6477 -15.73494,-32.8651 0.12294,-22.8549 13.0806,-36.5496 34.5827,-36.5496 14.45225,0 24.96428,6.074 30.6028,17.6827 9.02336,18.5776 3.95101,41.4436 -11.46166,51.669 -5.4407,3.6096 -6.65901,3.8535 -19.27442,3.8589 -12.69512,0 -13.76727,-0.2121 -18.71448,-3.7959 z m 27.56756,-11.5592 c 12.23657,-6.3278 12.77521,-32.5002 0.84832,-41.2198 -4.89812,-3.581 -14.32824,-3.5134 -19.31067,0.1383 -11.524,8.4463 -10.95176,34.6562 0.89721,41.094 4.6319,2.5166 12.68538,2.5109 17.56514,-0.012 z m 105.2802,-20.7028 v -36.0636 l 8.27612,0.397 8.27612,0.3969 7.02021,11.3333 c 3.86111,6.2334 10.03168,16.1334 13.71236,22 l 6.69215,10.6667 0.18,-14.6667 c 0.0991,-8.0666 0.31362,-15.8666 0.47692,-17.3333 0.1633,-1.4667 0.38749,-4.9167 0.49818,-7.6667 l 0.20127,-5 h 7.22223 c 3.97221,0 7.42221,0.5958 7.66666,1.324 0.24444,0.7282 0.275,16.9282 0.0679,36 l -0.37648,34.676 -8.29013,-0.049 -8.29015,-0.049 -3.44453,-5.6179 c -20.17484,-32.9049 -21.98298,-35.6153 -23.76212,-35.6202 -0.43634,-10e-4 -0.81139,2.5488 -0.83344,5.6667 -0.022,3.1178 -0.17204,12.4188 -0.33334,20.6688 l -0.29324,15 h -7.33336 -7.33333 z m 141.33333,0.064 v -36 l 8.33333,0.012 8.33334,0.012 4.80189,7.655 c 18.96307,30.2296 22.88883,36.321 23.4084,36.321 0.32316,0 0.52663,-7.65 0.45215,-17 -0.0745,-9.35 -0.104,-19.25 -0.0656,-22 l 0.0698,-5 h 7.33336 7.33333 v 36 36 h -7.85753 -7.85754 l -13.14246,-21.2687 c -7.22836,-11.6979 -13.59247,-21.2979 -14.14247,-21.3334 -0.55,-0.035 -1,9.5354 -1,21.2688 v 21.3333 h -8 -8 z m 142.66667,0 v -36 h 26.66666 26.66667 v 6.6667 6.6667 h -18.66667 -18.66666 v 7.3333 7.3333 h 17.33333 17.33333 v 6.6667 6.6666 h -17.33333 -17.33333 v 8 8 h 18.66666 18.66667 v 7.3334 7.3333 H 588.45692 561.79026 Z M 707.846,1424.446 c -6.25232,-4.0871 -9.08242,-7.2008 -13.08232,-14.3931 -4.26956,-7.6772 -4.31309,-28.1473 -0.0767,-36.0705 6.2827,-11.7504 16.08994,-18.1099 29.30472,-19.0026 9.30066,-0.6283 16.48125,1.2548 22.81086,5.9821 4.66771,3.486 9.65436,11.9421 9.65436,16.3712 0,2.4006 -0.84217,2.7198 -7.17508,2.7198 -6.60076,0 -7.45338,-0.3649 -10.65194,-4.5584 -9.74758,-12.7797 -26.50884,-7.0916 -30.10175,10.2153 -2.56773,12.3687 3.49793,26.1789 12.48937,28.4356 8.28946,2.0806 17.62139,-2.9517 19.49454,-10.5124 0.63096,-2.5468 1.76344,-2.9634 9,-3.3104 9.60646,-0.4606 10.04418,0.3663 5.50365,10.397 -6.12352,13.5277 -12.67596,17.3613 -29.49257,17.2549 -11.01571,-0.07 -12.98855,-0.4635 -17.67714,-3.5285 z m 144.61092,-25.7264 v -29.3333 h -10.66666 -10.66667 v -6.6667 -6.6667 h 29.33333 29.33334 v 6.6667 6.6667 h -10.66667 -10.66667 v 29.3333 29.3333 h -8 -8 z m 113.33334,-6.6667 v -36 h 8 8.00003 v 36 36 h -8.00003 -8 z m 97.33334,0 v -36 l 8.3333,0.015 8.3334,0.015 14,22.5869 14,22.5868 0.3648,-22.6019 0.3648,-22.6018 h 7.3018 7.3019 v 36.0636 36.0636 l -8.2279,-0.3969 -8.2278,-0.3971 -13.4388,-21.7158 -13.4388,-21.7159 -0.3656,22.0492 -0.3656,22.0492 h -7.9677 -7.9678 z m 157.308,33.4006 c -12.3672,-6.541 -17.7766,-16.666 -17.8446,-33.4006 -0.053,-12.9101 2.597,-20.5219 9.5706,-27.4955 15.9079,-15.9079 44.7562,-12.04 53.0979,7.1194 3.2935,7.5643 2.7303,8.3771 -5.7986,8.3677 -7.1397,-0.01 -7.8249,-0.2866 -9.9698,-4.0554 -5.3832,-9.4594 -18.7418,-9.6028 -25.8545,-0.2776 -3.1333,4.108 -3.8816,6.5784 -4.3148,14.2461 -0.4429,7.8372 -0.038,10.1659 2.6078,15.0098 6.1397,11.2392 20.6119,13.2581 28.1683,3.9295 1.2671,-1.5642 2.3171,-3.894 2.3334,-5.1773 0.025,-1.943 -1.1972,-2.3334 -7.3037,-2.3334 h -7.3333 v -6.6666 -6.6667 h 15.3333 15.3333 v 20 20 h -5.4581 c -4.3369,0 -5.6015,-0.5478 -6.1555,-2.6667 -0.8599,-3.2881 -1.516,-3.2881 -5.7197,0 -4.672,3.6545 -23.8302,3.6965 -30.692,0.067 z m 225.3587,-33.4006 v -36 h 17.8469 c 21.7353,0 29.3709,2.0019 36.1171,9.4691 8.5221,9.433 11.1972,27.9115 6.005,41.4809 -6.331,16.5461 -15.5578,21.05 -43.1237,21.05 h -16.8453 z m 36.3922,19.1061 c 6.0771,-3.1027 8.9311,-9.2084 8.9311,-19.1061 0,-14.9622 -6.3484,-21.3333 -21.2571,-21.3333 h -8.0662 v 21.3399 21.3399 l 8.3333,-0.1691 c 4.5833,-0.093 10.0099,-1.0251 12.0589,-2.0713 z m 104.9411,-19.1061 v -36 h 26.6667 26.6666 v 6.6667 6.6667 h -18.6666 -18.6667 v 7.3333 7.3333 h 17.3333 17.3334 v 6.6667 6.6666 h -17.3334 -17.3333 v 7.9634 7.9634 l 19,0.37 19,0.3699 0.4031,7 0.4029,7 h -27.4029 -27.4031 z m 136.7893,1.2446 c -6.3008,-19.1155 -11.456,-35.3155 -11.456,-36 0,-0.6845 3.7802,-1.2446 8.4003,-1.2446 h 8.4003 l 6.9849,21.9533 c 3.8416,12.0744 7.4572,22.2453 8.0347,22.6022 0.5773,0.3569 4.3041,-9.5178 8.2814,-21.9436 l 7.2318,-22.5924 8.3333,-0.01 c 5.7817,-0.01 8.3333,0.5004 8.3333,1.6565 0,0.9164 -5.1498,17.1164 -11.4442,36 l -11.4443,34.3334 h -9.0997 -9.0996 z m 127.2107,-1.2446 v -36 h 8 8 v 36 36 h -8 -8 z m 110.9028,32.3072 c -11.4912,-7.7176 -16.964,-19.8973 -15.942,-35.4792 0.6733,-10.2658 4.8407,-20.4033 10.5905,-25.7628 11.4039,-10.6299 32.3872,-11.4092 44.8599,-1.6661 4.5721,3.5715 9.5731,11.7139 9.582,15.6009 0,2.77 -0.5809,2.9961 -7.6599,2.9487 -7.1602,-0.048 -7.8442,-0.3342 -10.3548,-4.3334 -1.706,-2.7176 -4.6694,-4.9697 -8.1114,-6.1644 -4.9276,-1.7104 -5.893,-1.6494 -10.5592,0.6667 -8.686,4.3112 -12.0852,11.2877 -11.7804,24.1782 0.2717,11.4928 7.9036,20.355 17.5388,20.3659 7.9317,0.01 12.7157,-3.8115 15.4376,-12.3284 0.6029,-1.8863 2.3068,-2.3333 8.8936,-2.3333 h 8.1477 l -0.8805,4.3333 c -1.3631,6.707 -7.5086,15.8655 -13.3611,19.9115 -4.8692,3.3663 -6.352,3.6703 -18.1029,3.7109 -11.8103,0.041 -13.2243,-0.2411 -18.2979,-3.6485 z m 129.0972,-32.3072 v -36 h 26.6667 26.6666 v 6.6667 6.6667 h -18.6666 -18.6667 v 7.3333 7.3333 h 17.3333 17.3334 v 6.6667 6.6666 h -17.3334 -17.3333 v 8 8 h 18.6667 18.6666 v 7.3334 7.3333 h -26.6666 -26.6667 z m 139.0564,32.4484 c -6.3997,-4.1497 -11.4112,-12.24 -10.8112,-17.4533 0.3925,-3.4104 0.8988,-3.6893 7.3751,-4.0632 6.8518,-0.3955 6.9829,-0.3313 8.9521,4.3814 3.4717,8.309 18.1481,11.3379 24.9797,5.1553 5.7556,-5.2087 0.6248,-10.795 -13.2069,-14.3791 -19.6048,-5.0801 -25.6639,-10.3255 -25.6736,-22.2256 0,-7.9349 4.1096,-14.209 12.0059,-18.3009 5.2334,-2.712 7.3614,-3.026 16.8646,-2.4886 16.5546,0.9361 23.2975,5.6999 26.3167,18.5923 l 0.8587,3.6667 h -8.692 c -6.7344,0 -8.6922,-0.4388 -8.6922,-1.9481 0,-1.0714 -1.3132,-3.1714 -2.9181,-4.6667 -5.8852,-5.4829 -20.4333,-2.1951 -19.4911,4.405 0.4891,3.4257 5.5795,5.9432 20.4092,10.0936 15.5531,4.3528 20.6667,9.4362 20.6667,20.5447 0,8.8992 -3.2007,14.9906 -9.9573,18.9502 -4.9962,2.928 -7.1375,3.2879 -19.5596,3.2879 -12.8482,0 -14.3818,-0.2804 -19.4267,-3.5516 z M -12.876404,1118.0524 V 966.7191 h 1146.000004 1146 v 151.3333 151.3334 h -1146 H -12.876404 Z M 1006.3141,1225.3666 c 38.6165,-9.7546 70.6686,-38.6369 83.9499,-75.6475 1.9079,-5.3167 3.2361,-9.6667 2.9516,-9.6667 -0.2845,0 0.3213,-3.15 1.3462,-7 2.0941,-7.8663 2.5414,-32.4599 0.6794,-37.3573 -0.6686,-1.7587 -1.5453,-5.2477 -1.9481,-7.7535 -2.1584,-13.4272 -13.4102,-35.9705 -23.0671,-46.2153 -0.8603,-0.9127 -2.6603,-3.0331 -4,-4.7121 -7.9379,-9.9481 -28.9597,-24.3112 -44.4846,-30.3939 -4.0065,-1.5697 -8.4845,-3.3281 -9.9511,-3.9075 -1.4667,-0.5794 -5.9667,-1.6974 -10,-2.4845 -39.06484,-7.62357 -79.8513,3.3022 -108.06434,28.948 -17.09802,15.5422 -28.72662,34.1628 -34.78342,55.6978 -4.25226,15.1189 -4.27982,42.1114 -0.0581,56.981 3.20083,11.274 12.18059,30.4761 16.34419,34.9499 1.40895,1.514 2.56172,3.3497 2.56172,4.0794 0,0.7297 5.911,6.991 13.13555,13.914 18.69813,17.9178 39.98101,28.6653 64.86445,32.7555 13.80793,2.2697 36.82424,1.2732 50.52375,-2.1873 z m -46.77146,-61.0464 c -9.9506,-3.5498 -16.88689,-8.567 -22.92468,-16.5818 -21.10433,-28.0148 -12.50989,-68.0304 17.83896,-83.058 7.26111,-3.5954 9.2315,-3.9613 21.33334,-3.9613 11.92133,0 14.14283,0.3975 20.97733,3.7537 21.30631,10.4626 33.37321,34.4831 29.28871,58.3023 -2.0894,12.1846 -6.7072,21.0928 -15.3172,29.5481 -9.8423,9.6655 -18.79861,13.4779 -32.94881,14.0253 -8.51926,0.3295 -13.05021,-0.1741 -18.24765,-2.0283 z M 93.790262,1150.0524 c 0,-59.4226 0.32185,-72.6666 1.76591,-72.6666 1.5852,0 6.494738,8.1842 19.595968,32.6666 2.35456,4.4 6.09482,11.3 8.3117,15.3334 6.5134,11.8503 10.823,19.8367 18.34698,34 3.8957,7.3333 9.89628,18.4333 13.3346,24.6666 3.43832,6.2334 8.54554,15.5334 11.34938,20.6667 2.80384,5.1333 6.09392,11.1333 7.31128,13.3333 l 2.21339,4 h 26.36152 26.36151 l 4.69089,-8.6666 c 8.47397,-15.6561 23.43421,-43.2169 26.77859,-49.3334 1.80437,-3.3 5.81748,-10.8 8.918,-16.6666 3.10052,-5.8667 6.81548,-12.7667 8.25548,-15.3334 3.85389,-6.8692 13.24712,-24.0826 21.78729,-39.9259 4.12865,-7.6593 8.2014,-14.1576 9.05053,-14.4406 1.15423,-0.3848 1.63095,17.7695 1.88878,71.9259 l 0.34486,72.4406 33.66667,0.3563 33.66667,0.3562 v -105.3562 -105.3563 h -56.57987 c -31.11893,0 -57.97207,0.5294 -59.67365,1.1763 -1.91707,0.7289 -5.69075,5.6734 -9.92163,13 -3.75532,6.5031 -12.67569,22.0237 -19.82304,34.4904 -7.14736,12.4667 -15.8122,27.4667 -19.2552,33.3333 -3.44301,5.8667 -6.65067,11.7167 -7.12813,13 -1.72142,4.6269 -4.58827,2.1294 -10.71396,-9.3333 -3.42907,-6.4167 -8.218,-15.2667 -10.64208,-19.6667 -6.27884,-11.3969 -19.11152,-35.3363 -26.29888,-49.0607 -9.9847,-19.0659 -1.33443,-17.0208 -70.295598,-16.6197 l -59.66796,0.3471 -0.341411,105 -0.341411,105 h 33.341411 33.341411 z m 375.333328,-32.6666 v -104.6667 h -34 -34 l -0.34464,103.3333 c -0.18955,56.8334 -0.0544,104.0937 0.30031,105.023 0.50214,1.3155 8.10589,1.6107 34.34462,1.3333 l 33.69971,-0.3563 z m 258.6144,103.4157 c 3.50435,-1.0546 7.85209,-3.3046 9.66167,-5 6.55218,-6.1386 7.05726,-9.4721 7.05726,-46.5786 v -34.5038 h -26.5162 -26.51621 l -0.52497,9.2907 c -0.56507,10.0004 -3.21164,15.2593 -9.23782,18.3563 -2.38152,1.2239 -16.68758,1.6521 -55.68993,1.6667 -72.20731,0.027 -67.51487,3.3319 -67.51487,-47.5502 0,-49.4128 -4.9559,-45.9569 66.36154,-46.2758 28.76782,-0.1286 54.28634,0.2709 56.70782,0.8877 5.87288,1.4961 9.58582,7.6839 9.59232,15.9861 l 0.005,6.3615 26.33333,-0.3615 26.33333,-0.3615 0.35748,-31.6725 c 0.33206,-29.42 0.16827,-32.0433 -2.30314,-36.8877 -1.46335,-2.8684 -4.62422,-6.6158 -7.02415,-8.3275 l -4.36353,-3.1123 -93.33333,-0.3652 c -92.62187,-0.3624 -93.41855,-0.3427 -104.51217,2.5826 -20.7823,5.4799 -33.99775,17.2995 -36.94104,33.039 -0.898,4.8021 -1.51355,31.1354 -1.61114,68.9241 -0.19508,75.5434 -0.16981,75.7215 12.48892,88.0218 6.80576,6.6131 10.19806,8.7956 17.50836,11.2644 17.49648,5.9088 23.30191,6.2385 112.52183,6.3896 70.21225,0.119 85.88341,-0.1859 91.15964,-1.7739 z m 703.38561,-0.06 c 24.6091,-3.8344 38.5528,-12.376 45.3699,-27.7924 2.7954,-6.3217 2.8433,-7.6863 2.6884,-76.5867 -0.1511,-67.2245 -0.2698,-70.4039 -2.843,-76.2303 -5.6156,-12.7146 -17.6849,-21.0926 -37.882,-26.2959 -2.2,-0.5667 -56.35,-1.2152 -120.3333,-1.441 l -116.3333,-0.4106 v 105.3895 105.3894 l 109,-0.128 c 83.3409,-0.098 111.6678,-0.5437 120.3333,-1.8939 z m -162.6843,-57.0226 c -0.01,-0.1833 -0.1596,-21.1834 -0.3333,-46.6667 l -0.3157,-46.3333 h 64.6666 c 62.5091,0.01 64.8139,0.095 69.0803,2.6958 7.5807,4.6219 8.2533,8.1754 8.2509,43.5897 0,36.8022 -0.5206,38.9532 -10.6137,44.0428 -5.9167,2.9836 -6.2903,3 -68.3333,3 -34.3113,0 -62.3921,-0.15 -62.4018,-0.3333 z m 287.431,50.3333 c 3.1577,-4.4 5.7814,-8.4384 5.8306,-8.9743 0.049,-0.5358 3.1202,-5.4858 6.8244,-11 l 6.7352,-10.0257 h 59.2188 59.2188 l 7.5243,11.6667 c 4.1384,6.4167 9.7188,14.9667 12.4009,19 l 4.8767,7.3333 36.3119,0.3548 c 19.9714,0.1951 36.3117,-0.014 36.3117,-0.4651 0,-0.8955 -3.3695,-7.6298 -28.2983,-56.5563 -9.1541,-17.9667 -30.0197,-59.0667 -46.3678,-91.3334 -16.3482,-32.2666 -30.3155,-59.4238 -31.0386,-60.3492 -1.0257,-1.3125 -12.3322,-1.6057 -51.421,-1.3333 l -50.1063,0.3492 -13.8461,27.3333 c -7.6154,15.0334 -22.1228,43.5334 -32.2388,63.3334 -32.1344,62.8964 -60.0164,118.053 -60.0164,118.7255 0,0.3579 16.2762,0.491 36.1694,0.2959 l 36.1694,-0.3548 z m 34.3429,-82.3929 c -0.7645,-1.2387 42.9379,-72.9404 44.4576,-72.9404 0.28,0 5.6992,7.95 12.0427,17.6667 6.3434,9.7166 16.5725,25.3762 22.7312,34.7991 6.1586,9.4228 11.5141,17.9573 11.9009,18.9654 0.5867,1.5286 -6.8652,1.894 -44.8875,2.2008 -25.0749,0.2024 -45.8852,-0.1088 -46.2449,-0.6916 z m 297.9212,13.3929 0.3441,-77 40.9892,-0.02 c 22.5442,-0.011 41.7523,-0.5047 42.6848,-1.0966 1.2998,-0.8249 1.6111,-7.2808 1.3334,-27.6462 l -0.3623,-26.5701 h -120.6667 -120.6666 l -0.3627,25.828 c -0.2553,18.1858 0.097,26.382 1.1912,27.7004 1.2783,1.5402 9.0976,1.8538 44.0657,1.7677 l 42.5118,-0.1048 v 75.3773 c 0,41.4575 0.3492,76.2996 0.7817,77.4269 0.6839,1.782 5.1621,2.0031 34.3019,1.6937 l 33.5104,-0.3559 z m 113.1932,68 c 3.4239,-5.3166 9.0067,-13.8666 12.4063,-19 l 6.181,-9.3333 59.2711,-0.3166 59.2709,-0.3165 6.7803,10.3165 c 3.7291,5.6741 9.4291,14.3636 12.6667,19.31 l 5.8864,8.9933 36.2914,0.01 c 34.0122,0.01 36.2362,-0.1399 35.409,-2.3267 -0.4854,-1.2833 -3.3842,-7.1333 -6.4419,-13 -3.0577,-5.8666 -16.8263,-32.8666 -30.5968,-60 -13.7705,-27.1333 -34.8024,-68.5333 -46.7375,-92 l -21.7,-42.6666 -50.4748,-0.3489 -50.4748,-0.3489 -16.7697,33.0155 c -9.2233,18.1586 -26.7017,52.5156 -38.8408,76.3489 -12.1391,23.8334 -28.4295,55.8168 -36.2009,71.0743 -7.7715,15.2575 -14.1299,28.3075 -14.1299,29 0,0.7588 14.3001,1.2591 35.9893,1.2591 h 35.9895 l 6.2252,-9.6667 z m 78.796,-80.6844 c -34.6639,-0.2704 -45,-0.7298 -44.9999,-2 2e-4,-0.9069 3.0002,-6.331 6.6667,-12.0536 3.6667,-5.7226 6.6665,-10.9226 6.6665,-11.5556 0,-0.6329 0.4611,-1.3508 1.0247,-1.5953 0.5636,-0.2444 5.5136,-7.8241 11,-16.8437 5.4864,-9.0196 11.5145,-18.9189 13.3956,-21.9985 1.8812,-3.0795 4.2812,-5.7372 5.3333,-5.906 1.7516,-0.2809 8.9812,10.1555 31.4931,45.4614 3.8023,5.9633 7.5523,11.5671 8.3333,12.4528 0.781,0.8857 1.42,1.96 1.42,2.3873 0,0.4273 1.2583,2.4788 2.796,4.5588 5.5824,7.5505 6.0354,7.476 -43.1293,7.0924 z m -1243.97182,-34.6489 -0.36152,-26.3333 h -32 -32 l -0.36152,26.3333 -0.36152,26.3333 h 32.72304 32.72304 z m 342.97182,0.476 c 0,-19.4766 -0.4113,-26.0056 -1.6667,-26.4582 -2.7877,-1.005 -56.1808,-1.2742 -60.0513,-0.3028 l -3.6153,0.9074 v 25.8555 25.8554 h 32.6666 32.6667 z M 883.12359,908.72875 V 862.7191 h 87.35084 87.35087 l -0.3509,45.66666 -0.3508,45.66667 -87.00001,0.34299 -87,0.34299 z"
       style="fill:#ffffff;stroke-width:1.33333" />
  </g>
</svg>
