<?xml version="1.0" encoding="UTF-8" standalone="no"?>
<svg
   xmlns:dc="http://purl.org/dc/elements/1.1/"
   xmlns:cc="http://creativecommons.org/ns#"
   xmlns:rdf="http://www.w3.org/1999/02/22-rdf-syntax-ns#"
   xmlns:svg="http://www.w3.org/2000/svg"
   xmlns="http://www.w3.org/2000/svg"
   xmlns:sodipodi="http://sodipodi.sourceforge.net/DTD/sodipodi-0.dtd"
   xmlns:inkscape="http://www.inkscape.org/namespaces/inkscape"
   inkscape:version="1.0 (4035a4f, 2020-05-01)"
   sodipodi:docname="nhh.svg"
   id="svg941"
   version="1.1"
   height="28.559664"
   width="92.448814"
   viewBox="0 0 275.69557 85.168997">
  <metadata
     id="metadata947">
    <rdf:RDF>
      <cc:Work
         rdf:about="">
        <dc:format>image/svg+xml</dc:format>
        <dc:type
           rdf:resource="http://purl.org/dc/dcmitype/StillImage" />
        <dc:title>NHH</dc:title>
      </cc:Work>
    </rdf:RDF>
  </metadata>
  <defs
     id="defs945" />
  <sodipodi:namedview
     fit-margin-bottom="0"
     fit-margin-right="0"
     fit-margin-left="0"
     fit-margin-top="0"
     inkscape:current-layer="svg941"
     inkscape:window-maximized="0"
     inkscape:window-y="23"
     inkscape:window-x="2476"
     inkscape:cy="28.688155"
     inkscape:cx="63.477807"
     inkscape:zoom="19.351097"
     showgrid="false"
     id="namedview943"
     inkscape:window-height="1395"
     inkscape:window-width="1720"
     inkscape:pageshadow="2"
     inkscape:pageopacity="0"
     guidetolerance="10"
     gridtolerance="10"
     objecttolerance="10"
     borderopacity="1"
     bordercolor="#666666"
     pagecolor="#ffffff" />
  <title
     id="title913">NHH</title>
  <g
     transform="translate(0,-0.99)"
     class="logoName"
     id="g921"
     style="stroke:none;fill:#ffffff">
    <path
       style="fill:#ffffff"
       d="m 6.801,84.79 c 0,0.187 -0.153,0.34 -0.342,0.34 H 0.342 C 0.152,85.13 0,84.977 0,84.79 V 0.99 h 0.59 l 33.092,53.358 c 2.252,3.836 6.468,11.605 6.468,11.605 0,-0.052 -0.459,-9.937 -0.459,-13.678 L 39.695,2.36 c 0,-0.185 0.153,-0.34 0.342,-0.34 h 6.119 c 0.186,0 0.338,0.155 0.338,0.34 v 83.799 h -0.59 L 12.813,31.642 C 10.566,27.81 6.346,20.043 6.346,20.043 c 0,0.049 0.461,9.934 0.461,13.678 L 6.801,84.79"
       id="path915" />
    <path
       style="fill:#ffffff"
       d="M 99.443,53.628 99.426,84.79 c 0,0.187 0.152,0.34 0.342,0.34 h 6.396 c 0.186,0 0.34,-0.153 0.34,-0.34 V 2.36 c 0,-0.185 -0.154,-0.34 -0.34,-0.34 h -6.396 c -0.19,0 -0.342,0.155 -0.342,0.34 l 0.017,44.979 H 67.715 L 67.73,2.36 c 0,-0.185 -0.15,-0.34 -0.339,-0.34 h -6.399 c -0.187,0 -0.34,0.155 -0.34,0.34 v 82.43 c 0,0.187 0.153,0.34 0.34,0.34 h 6.399 c 0.189,0 0.339,-0.153 0.339,-0.34 L 67.715,53.628 h 31.728"
       id="path917" />
    <path
       style="fill:#ffffff"
       d="m 159.447,53.628 -0.011,31.162 c 0,0.187 0.15,0.34 0.337,0.34 h 6.399 c 0.187,0 0.338,-0.153 0.338,-0.34 V 2.36 c 0,-0.185 -0.151,-0.34 -0.338,-0.34 h -6.399 c -0.187,0 -0.337,0.155 -0.337,0.34 l 0.011,44.981 H 127.723 L 127.736,2.36 c 0,-0.185 -0.15,-0.34 -0.338,-0.34 H 121 c -0.186,0 -0.338,0.155 -0.338,0.34 v 82.43 c 0,0.187 0.152,0.34 0.338,0.34 h 6.398 c 0.188,0 0.338,-0.153 0.338,-0.34 l -0.013,-31.162 h 31.724"
       id="path919" />
  </g>
  <g
     style="fill:#ffffff"
     transform="matrix(0.497505,0,0,0.497505,192.659,-82.078553)"
     id="g969">
    <g
       style="stroke:none;fill:#ffffff"
       id="g925"
       transform="translate(0,167)">
      <path
         style="fill:#ffffff"
         id="path923"
         d="m 61.813,58.313 c 1.451,1.447 1.451,3.785 0,5.234 -1.459,1.443 -3.797,1.443 -5.245,0 L 42.301,49.307 28.053,63.547 c -1.449,1.443 -3.803,1.443 -5.244,0 -1.448,-1.449 -1.448,-3.787 0,-5.234 L 37.057,44.06 25.547,32.559 14.852,43.406 14.928,31.034 31.209,14.765 c 0,0 0.988,-1.188 1.943,-0.212 0.952,0.978 3.602,3.571 4.276,4.256 0.779,0.8 0.156,1.576 0.156,1.576 l -6.826,6.914 11.543,11.53 11.758,-11.74 -6.895,-6.624 c 0,0 -0.736,-0.856 0.115,-1.746 l 4.047,-4.027 c 1.11,-1.13 2.051,0.043 2.051,0.043 L 69.687,31.034 69.74,42.195 59.402,32.232 47.557,44.06 Z M 0.002,81.224 H 81.129 V 0.097 H 0.002 Z" />
    </g>
    <g
       style="stroke:none;fill:#ffffff"
       id="g929"
       transform="translate(0,252)">
      <path
         style="fill:#ffffff"
         id="path927"
         d="m 67.094,52.23 c 0,4.6 -4.246,9.513 -10.588,9.513 H 45.232 v 2.118 c -0.105,2.498 -1.537,4.512 -3.822,6.177 -2.262,-1.665 -3.722,-3.679 -3.834,-6.177 V 61.743 H 26.648 c -6.328,0 -10.576,-4.913 -10.576,-9.513 v -7.785 c 0,-2.995 3.211,-5.26 3.211,-5.26 0,0 3.201,2.42 3.201,5.26 v 7.785 c 0,1.093 1.438,3.106 4.164,3.106 h 10.928 c 0.008,-7.25 0.008,-17.799 0.008,-26.141 h -8.918 c -0.705,0 -1.291,-0.585 -1.291,-1.293 v -5.001 c 0,-0.722 0.586,-1.299 1.291,-1.299 h 8.918 v -5.565 c 0,-2.107 1.697,-3.835 3.826,-3.835 2.106,0 3.813,1.638 3.813,3.745 v 5.655 h 8.757 c 0.723,0 1.295,0.577 1.295,1.299 v 5.001 c 0,0.708 -0.572,1.293 -1.295,1.293 h -8.757 l 0.009,26.141 h 11.274 c 2.738,0 4.174,-2.013 4.174,-3.106 v -7.785 c 0,-3.223 3.205,-5.26 3.205,-5.26 0,0 3.209,2.187 3.209,5.26 z M 0,81.998 H 81.129 V 0.875 H 0 Z" />
    </g>
    <g
       style="stroke:none;fill:#ffffff"
       id="g933"
       transform="translate(85,252)">
      <path
         style="fill:#ffffff"
         id="path931"
         d="M 67.496,49.639 60,42.854 c -2.592,2.023 -6.016,3.994 -10.477,5.175 l 6.381,6.376 4.961,-4.946 V 62.818 H 47.477 l 4.959,-4.949 -8.868,-8.863 c -0.515,0.035 -1.048,0.048 -1.58,0.072 -0.572,0.033 -1.127,0.087 -1.697,0.087 -1.137,0 -2.227,-0.07 -3.318,-0.175 -0.743,-0.056 -1.438,-0.119 -2.131,-0.199 l -9.09,9.086 4.963,4.954 H 17.326 V 49.463 l 4.953,4.952 6.768,-6.764 c -5.111,-1.536 -8.996,-4.369 -14.192,-8.93 3.526,-3.683 7.092,-6.118 10.69,-7.701 l -9.582,-9.572 3.473,-3.471 11.293,11.289 c 2.646,-0.626 5.287,-0.897 7.917,-0.946 0.542,-0.037 1.081,-0.051 1.645,-0.051 2.531,0 5.008,0.264 7.404,0.758 l 11.055,-11.043 3.475,3.464 -9.159,9.147 c 0.17,0.057 0.327,0.186 0.459,0.362 2.651,1.125 4.786,2.389 6.608,3.404 l 7.281,-6.582 c 2.002,5.433 -1.744,11.06 -1.744,11.06 0,0 4.15,3.938 1.826,10.8 z M 0.781,82 H 81.904 V 0.876 H 0.781 Z" />
    </g>
    <g
       style="stroke:none;fill:#ffffff"
       id="g937"
       transform="translate(85,167)">
      <path
         style="fill:#ffffff"
         id="path935"
         d="m 57.168,66.626 c -7.209,0 -13.08,-5.861 -13.08,-13.071 l 0.197,-0.761 11.535,-20.26 h 2.692 l 11.545,20.26 0.199,0.761 c 0,7.21 -5.879,13.071 -13.088,13.071 z M 37.594,34.033 c 0,-0.036 0,-1.974 0.011,-4.562 H 19.863 c -0.705,0 -1.265,-0.571 -1.265,-1.259 v -4.766 c 0,-0.693 0.56,-1.265 1.265,-1.265 h 17.742 c 0,-3.339 0.01,-6.082 0.01,-6.082 0,-1.991 1.612,-3.603 3.594,-3.603 1.994,0 3.6,1.612 3.6,3.603 v 6.082 h 17.814 c 0.691,0 1.258,0.572 1.258,1.265 v 4.766 c 0,0.688 -0.567,1.259 -1.258,1.259 H 44.809 v 4.654 c -0.024,2.42 -3.616,6.189 -3.616,6.189 0,0 -3.599,-3.816 -3.599,-6.281 z M 25.381,66.626 c -7.207,0 -13.08,-5.861 -13.08,-13.071 l 0.205,-0.761 11.525,-20.26 h 2.699 l 11.534,20.26 0.207,0.761 c 0,7.21 -5.875,13.071 -13.09,13.071 z M 0.781,81.223 H 81.906 V 0.096 H 0.781 Z M 48.297,52.009 H 66.041 C 63.797,48.092 58.789,39.275 57.17,36.421 55.539,39.275 50.535,48.092 48.297,52.009 Z m -31.789,0 H 34.256 C 32.025,48.092 27.012,39.275 25.381,36.421 23.766,39.275 18.746,48.092 16.508,52.009 Z" />
    </g>
  </g>
</svg>
