<?xml version="1.0" encoding="UTF-8" standalone="no"?>
<svg
   xmlns:dc="http://purl.org/dc/elements/1.1/"
   xmlns:cc="http://creativecommons.org/ns#"
   xmlns:rdf="http://www.w3.org/1999/02/22-rdf-syntax-ns#"
   xmlns:svg="http://www.w3.org/2000/svg"
   xmlns="http://www.w3.org/2000/svg"
   xmlns:sodipodi="http://sodipodi.sourceforge.net/DTD/sodipodi-0.dtd"
   xmlns:inkscape="http://www.inkscape.org/namespaces/inkscape"
   inkscape:version="1.0 (4035a4f, 2020-05-01)"
   sodipodi:docname="norkart.svg"
   viewBox="0 0 1055.9998 232.04488"
   height="232.04488"
   width="1055.9999"
   id="svg893"
   version="1.1">
  <metadata
     id="metadata899">
    <rdf:RDF>
      <cc:Work
         rdf:about="">
        <dc:format>image/svg+xml</dc:format>
        <dc:type
           rdf:resource="http://purl.org/dc/dcmitype/StillImage" />
        <dc:title></dc:title>
      </cc:Work>
    </rdf:RDF>
  </metadata>
  <defs
     id="defs897" />
  <sodipodi:namedview
     inkscape:current-layer="g901"
     inkscape:window-maximized="0"
     inkscape:window-y="23"
     inkscape:window-x="2476"
     inkscape:cy="-138.93128"
     inkscape:cx="1089.0762"
     inkscape:zoom="0.49432584"
     inkscape:pagecheckerboard="true"
     fit-margin-bottom="0"
     fit-margin-right="0"
     fit-margin-left="0"
     fit-margin-top="0"
     showgrid="false"
     id="namedview895"
     inkscape:window-height="1395"
     inkscape:window-width="1720"
     inkscape:pageshadow="2"
     inkscape:pageopacity="0"
     guidetolerance="10"
     gridtolerance="10"
     objecttolerance="10"
     borderopacity="1"
     bordercolor="#666666"
     pagecolor="#ffffff" />
  <g
     transform="translate(14.378013,747.77168)"
     id="g901"
     inkscape:label="Image"
     inkscape:groupmode="layer">
    <g
       style="fill:#ffffff"
       id="g2086">
      <path
         id="path2061"
         d="m 197.622,-585.64614 c -55.95927,-14.76348 -74.86135,-84.37249 -34.00535,-125.22848 47.54884,-47.54885 129.76446,-13.56617 129.04435,53.33868 -0.5234,48.62866 -47.76356,84.36226 -95.039,71.8898 z m 43.76124,-24.50523 c 17.53031,-9.40917 26.81438,-26.01977 26.85702,-48.05124 0.12573,-64.97428 -90.97143,-73.99865 -101.56617,-10.06145 -7.38153,44.54612 36.45548,78.64484 74.70915,58.11269 z m -255.761253,-47.38457 v -72.77451 l 10.8491863,0.38726 10.849184,0.38725 37.4841547,50.92248 c 20.616282,28.00736 38.234147,50.95737 39.150817,51.00001 1.30582,0.0607 1.66667,-11.0367 1.66667,-51.25582 v -51.33333 h 11.33333 11.333331 v 72.72508 72.72508 l -9.571131,-0.39174 -9.57114,-0.39175 -38.455517,-52.00001 c -21.15054,-28.6 -39.336526,-52.19264 -40.413308,-52.4281 -1.6909787,-0.36976 -2.0053317,6.71678 -2.3066797,52 l -0.348896,52.42811 -11,0.38725 -11.0000013,0.38726 z m 342.666683,-0.073 v -72.73972 l 39.66667,0.40639 c 49.42336,0.50635 58.33307,3.87905 69.31292,26.23787 12.33564,25.1197 -7.47255,64.04619 -32.64625,64.15549 -5.40371,0.0235 -3.27446,3.84612 11.37302,20.41818 7.90516,8.94384 17.87843,20.31152 22.16283,25.26152 l 7.7898,9 h -11.87839 -11.87838 l -30.12846,-35 -30.12845,-35.00001 18.84401,-0.66667 c 33.40043,-1.18164 47.05558,-13.80542 39.54614,-36.55924 -4.96554,-15.04569 -12.31586,-18.0406 -44.36879,-18.07814 l -25,-0.0293 v 62.66666 62.66668 H 339.622 328.28867 v -72.73974 z m 160.00001,0.073 v -72.66666 h 11.33333 11.33333 v 72.66666 72.66668 h -11.33333 -11.33333 z m 64.66666,38.54518 c -16.13333,-18.71618 -29.8892,-34.83036 -30.56858,-35.80929 -0.90262,-1.30057 7.27285,-11.6925 30.36021,-38.59121 l 31.59546,-36.81135 H 595.76 c 6.27967,0 11.21757,0.50496 10.97312,1.12213 -0.24444,0.61718 -13.94444,16.82749 -30.44444,36.02291 -16.5,19.19543 -30,35.73557 -30,36.75586 0,1.02029 11.76728,15.55998 26.14949,32.31043 14.38223,16.75044 27.78556,32.40535 29.7852,34.78868 l 3.6357,4.33334 -11.7852,-0.046 -11.78519,-0.046 -29.33334,-34.02942 z m 71.88455,31.84474 c 5.03282,-13.66902 69.67055,-161.29643 70.32794,-160.62337 0.63531,0.65046 64.50823,147.64821 70.05856,161.23346 0.51268,1.25487 -2.07809,1.66667 -10.48557,1.66667 h -11.16651 l -23.43419,-54.33334 c -13.53954,-31.39212 -24.226,-54.47392 -25.30948,-54.6663 -1.29606,-0.23012 -9.08965,16.44895 -25.23241,54 l -23.35712,54.33297 -11.14058,0.38991 c -10.23442,0.3582 -11.06901,0.19553 -10.26064,-2 z m 168.38722,1.4374 c -0.51613,-0.51614 -0.93842,-33.26367 -0.93842,-72.7723 v -71.83387 l 39.66666,0.38943 c 54.11073,0.53123 67.91511,7.64201 73.56701,37.89509 4.20001,22.4816 -16.50952,52.48439 -36.23367,52.49328 -5.14123,0.002 -1.44168,5.6903 19.00149,29.21446 11.73252,13.50071 21.33184,24.75071 21.33184,25 0,0.24929 -5.25,0.42057 -11.66666,0.38063 l -11.66667,-0.0727 -29.33334,-34.16023 c -16.13333,-18.78812 -29.51085,-34.58799 -29.72782,-35.11083 -0.21698,-0.52283 8.18302,-1.21943 18.66666,-1.54799 31.12571,-0.9755 43.65739,-10.55888 40.34418,-30.85248 -3.12811,-19.15977 -11.73888,-23.51628 -46.48198,-23.51691 l -24.13437,-4.5e-4 v 62.33378 62.33378 l -10.72824,0.38287 c -5.90055,0.21057 -11.15055,-0.0395 -11.66667,-0.55556 z m 180.39482,-61.82732 v -62.66666 h -22.66655 -22.66669 v -10 -10 h 56.66654 56.66667 v 10 10 h -22.6667 -22.66667 v 62.66666 62.66668 h -11.3333 -11.3333 z"
         style="fill:#ffffff;fill-opacity:1;stroke-width:1.33333" />
      <path
         style="fill:#ffffff;stroke:none;stroke-width:1px;stroke-linecap:butt;stroke-linejoin:miter;stroke-opacity:1"
         d="m 662.6969,-586.86926 h 61.63331 l -30.64056,71.14245 z"
         id="path2082" />
    </g>
  </g>
</svg>
