<?xml version="1.0" encoding="UTF-8" standalone="no"?>
<svg
   xmlns:dc="http://purl.org/dc/elements/1.1/"
   xmlns:cc="http://creativecommons.org/ns#"
   xmlns:rdf="http://www.w3.org/1999/02/22-rdf-syntax-ns#"
   xmlns:svg="http://www.w3.org/2000/svg"
   xmlns="http://www.w3.org/2000/svg"
   xmlns:sodipodi="http://sodipodi.sourceforge.net/DTD/sodipodi-0.dtd"
   xmlns:inkscape="http://www.inkscape.org/namespaces/inkscape"
   inkscape:version="1.0 (4035a4f, 2020-05-01)"
   sodipodi:docname="norsirk.svg"
   viewBox="0 0 331.92813 77.639397"
   height="77.639397"
   width="331.92813"
   id="svg1732"
   version="1.1">
  <metadata
     id="metadata1738">
    <rdf:RDF>
      <cc:Work
         rdf:about="">
        <dc:format>image/svg+xml</dc:format>
        <dc:type
           rdf:resource="http://purl.org/dc/dcmitype/StillImage" />
        <dc:title></dc:title>
      </cc:Work>
    </rdf:RDF>
  </metadata>
  <defs
     id="defs1736" />
  <sodipodi:namedview
     inkscape:current-layer="g1740"
     inkscape:window-maximized="0"
     inkscape:window-y="23"
     inkscape:window-x="2476"
     inkscape:cy="-147.35612"
     inkscape:cx="278.23149"
     inkscape:zoom="0.98502564"
     fit-margin-bottom="0"
     fit-margin-right="0"
     fit-margin-left="0"
     fit-margin-top="0"
     inkscape:pagecheckerboard="true"
     showgrid="false"
     id="namedview1734"
     inkscape:window-height="1395"
     inkscape:window-width="1720"
     inkscape:pageshadow="2"
     inkscape:pageopacity="0"
     guidetolerance="10"
     gridtolerance="10"
     objecttolerance="10"
     borderopacity="1"
     bordercolor="#666666"
     pagecolor="#ffffff" />
  <g
     transform="translate(8.1220019,-141.54696)"
     id="g1740"
     inkscape:label="Image"
     inkscape:groupmode="layer">
    <path
       id="path2311"
       d="m 19.332778,218.12339 c -8.704848,-2.86136 -16.038069,-8.4615 -21.007206,-16.04248 -12.920802,-19.71216 -5.7141277,-46.4906 15.297164,-56.84094 5.688793,-2.80235 7.94505,-3.33176 15.477646,-3.63167 10.471304,-0.41693 16.678466,1.24052 24.49094,6.53962 10.73501,7.28141 16.507463,18.58631 16.498733,32.31147 -0.0074,11.57452 -2.566881,18.11979 -10.331639,26.42034 -8.138436,8.70001 -15.208241,11.8611 -27.425638,12.26268 -5.538064,0.18203 -10.538638,-0.20994 -13,-1.01902 z m 24.936452,-6.53286 c 7.387514,-3.26785 12.813838,-8.25946 16.629542,-15.29731 3.227465,-5.95287 3.43384,-6.90521 3.431243,-15.83383 -0.0023,-8.03903 -0.362648,-10.17547 -2.342919,-13.8923 l -2.340156,-4.39229 -12.38734,12.35759 -12.38734,12.3576 -3.301434,-3.19987 -3.301434,-3.19988 -11.242409,11.27439 -11.242409,11.2744 2.774102,2.60016 c 3.107162,2.91234 10.228398,6.73992 14.774102,7.94091 5.097207,1.34669 15.664415,0.3425 20.936452,-1.98957 z M 14.832778,185.95939 c 6.307057,-6.325 12.125093,-11.5 12.928969,-11.5 0.803876,0 2.734086,1.21913 4.289355,2.70917 l 2.827762,2.70917 10.476957,-10.4413 c 5.762326,-5.74272 10.476957,-11.00902 10.476957,-11.7029 0,-1.89403 -7.469377,-6.9294 -13.855178,-9.34026 -7.03701,-2.65672 -17.280841,-2.30637 -24.36205,0.8332 -6.996682,3.1021 -14.041216,10.20332 -17.35894102,17.49861 -3.68848298,8.11055 -3.96608088,18.70706 -0.680714,25.98431 1.179432,2.6125 2.51456602,4.75 2.96696502,4.75 0.452398,0 5.982861,-5.175 12.289918,-11.5 z m 125.000002,10.30175 c -5.11113,-3.47032 -6.50216,-6.97981 -6.48681,-16.36585 0.0148,-9.05234 1.35782,-12.12539 6.79114,-15.53931 2.44212,-1.53445 4.43545,-1.9163 8.45336,-1.61935 8.82512,0.65224 13.24231,6.56396 13.24231,17.72276 0,11.13899 -4.40609,17.04697 -13.24231,17.75616 -4.3228,0.34695 -5.88004,-5.7e-4 -8.75769,-1.95441 z m 10.387,-3.75879 c 3.43,-1.30408 5.613,-5.94319 5.613,-11.9282 0,-6.29849 -1.23986,-9.57059 -4.41472,-11.65084 -3.18289,-2.08551 -8.09321,-1.14455 -10.11293,1.93794 -3.90092,5.95355 -2.53153,18.41534 2.31251,21.04443 3.28882,1.785 3.44055,1.79871 6.60214,0.59667 z m 61.113,4.40087 c -3.56244,-1.83328 -6.44683,-5.25916 -6.47776,-7.69383 -0.0361,-2.84018 4.45055,-2.12336 7.82391,1.25 4.35153,4.35153 10.56838,3.831 13.21064,-1.1061 1.78724,-3.3395 -1.21589,-5.69945 -8.2681,-6.49731 -8.15175,-0.92227 -11.78869,-3.94518 -11.78869,-9.79839 0,-3.37312 0.59491,-4.79398 2.95325,-7.05341 3.50068,-3.35387 11.17138,-4.56423 16.06906,-2.53554 3.27418,1.3562 6.97769,5.40361 6.97769,7.62561 0,2.32739 -5.08353,1.56705 -7.58758,-1.13486 -4.02575,-4.34386 -12.41242,-2.32407 -12.41242,2.98932 0,2.65949 0.98366,3.12461 9.56018,4.52048 9.23171,1.5025 13.13819,6.98967 10.11955,14.21429 -2.54065,6.08063 -13.16613,8.82905 -20.17973,5.21974 z M 95.832778,180.45939 v -17 h 3.38899 c 3.240862,0 3.710752,0.51259 10.750002,11.72684 l 7.36101,11.72684 0.28174,-11.72684 0.28173,-11.72684 h 2.96827 2.96826 v 17.06037 17.06036 l -3.64116,-0.31036 c -3.45921,-0.29486 -3.99638,-0.87376 -10.75,-11.58512 l -7.10884,-11.27475 -0.28174,11.52475 -0.28173,11.52475 h -2.968272 -2.96826 z m 76.000002,0 v -17 h 10.07692 c 9.80432,0 10.156,0.0791 13,2.92308 2.39722,2.39722 2.92308,3.76423 2.92308,7.59879 0,3.88791 -0.49691,5.13989 -2.94918,7.43066 l -2.94919,2.75495 2.94919,6.23605 c 1.62205,3.42983 2.94918,6.42064 2.94918,6.64626 0,0.22562 -1.47486,0.41021 -3.27748,0.41021 -3.07672,0 -3.45093,-0.39815 -6.10918,-6.5 -2.78861,-6.40107 -2.89092,-6.5 -6.72252,-6.5 h -3.89082 v 6.5 6.5 h -3 -3 z m 17.77749,-2.5567 c 2.8529,-1.99825 3.02248,-6.9448 0.28825,-8.40811 -1.06384,-0.56935 -4.21384,-1.03519 -7,-1.03519 h -5.06574 v 5.5 5.5 h 4.77749 c 2.70554,0 5.74138,-0.67513 7,-1.5567 z m 52.22251,2.5567 v -17 h 3 3 v 17 17 h -3 -3 z m 18,0 v -17 h 10.07692 c 9.80432,0 10.156,0.0791 13,2.92308 2.15609,2.15608 2.92308,3.87466 2.92308,6.54966 0,4.21464 -2.20863,9.00961 -4.56677,9.91451 -0.90241,0.34629 -1.41052,1.18832 -1.12915,1.87118 0.28137,0.68287 1.67239,3.82907 3.09114,6.99157 l 2.57956,5.75 h -3.37487 c -3.20369,0 -3.515,-0.3297 -6.13741,-6.5 l -2.76254,-6.5 h -4.34998 -4.34998 v 6.5 c 0,6.26667 -0.0897,6.5 -2.5,6.5 h -2.5 z m 17.77749,-2.5567 c 1.23445,-0.86464 2.22251,-2.61117 2.22251,-3.92857 0,-3.98856 -2.51046,-5.51473 -9.07143,-5.51473 h -5.92857 v 4.83334 c 0,2.65833 0.3,5.13333 0.66667,5.5 1.28702,1.28702 9.90707,0.65353 12.11082,-0.89004 z m 17.22251,2.5567 v -17 h 3 3 v 7.5 c 0,4.125 0.3375,7.46607 0.75,7.4246 0.4125,-0.0415 3.59262,-3.41647 7.06694,-7.5 5.66671,-6.66036 6.6835,-7.4246 9.87816,-7.4246 h 3.56122 l -2.63767,3.25 c -1.45072,1.7875 -3.78736,4.68046 -5.19254,6.42879 l -2.55486,3.1788 6.05106,10.3212 6.05105,10.32121 -2.57115,0.32458 c -4.09528,0.51697 -4.93447,-0.23102 -9.46289,-8.43451 l -4.28239,-7.75778 -3.32847,3.85047 c -2.66685,3.08509 -3.32846,4.71183 -3.32846,8.18385 0,4.14821 -0.1282,4.33339 -3,4.33339 h -3 z"
       style="fill:#ffffff" />
    <path
       d=""
       id="path2309"
       style="fill:#000000" />
    <path
       d=""
       id="path2307"
       style="fill:#000000" />
  </g>
</svg>
