<?xml version="1.0" encoding="UTF-8"?>
<svg width="468" height="101" version="1.1" viewBox="0 0 468 101" xmlns="http://www.w3.org/2000/svg" xmlns:cc="http://creativecommons.org/ns#" xmlns:dc="http://purl.org/dc/elements/1.1/" xmlns:rdf="http://www.w3.org/1999/02/22-rdf-syntax-ns#">
 <path d="m41.583 99.786c-16.471-4.4359-31.176-18.721-36.279-35.242-2.7438-8.8834-2.704-22.146 0.0914-30.444 3.9268-11.656 14.432-23.956 25.063-29.343l4.8605-2.463v11.949l-4.4847 2.6282c-13.919 8.1572-20.659 24.82-17.533 43.35 5.0527 29.956 35.01 45.577 62.481 32.58 18.985-8.9816 28.12-35.66 18.736-54.721-1.7078-3.469-4.4754-7.3205-6.1503-8.5587l-3.0452-2.2514 7.2516-14.4 2.979 3.4784c7.3703 8.606 12.497 25.203 11.407 36.929-1.2093 13.012-6.4126 24.041-15.591 33.05-12.944 12.704-32.729 18.052-49.785 13.458zm148.92-14.584c-7.1928-0.90981-13.859-5.1845-17.654-11.321-2.5956-4.1969-3.0757-6.0569-3.3725-13.065-0.28548-6.7403 0.0431-9.0759 1.8763-13.337 4.9609-11.532 17.878-17.355 30.415-13.711 9.7315 2.829 16.15 10.768 18.036 22.309l0.69463 4.25h-20.088c-15.415 0-20.083 0.29076-20.066 1.25 0.0121 0.6875 0.89877 3.1819 1.9704 5.5432 3.5281 7.7737 14.879 10.427 24.133 5.642l3.233-1.6718 2.7921 3.3683c1.5357 1.8526 2.6595 3.8183 2.4974 4.3683-0.5727 1.9429-8.7695 5.6887-13.925 6.3636-2.8725 0.37602-7.6167 0.38086-10.543 0.0108zm16.82-33.652c0-0.42762-0.70232-1.7802-1.5607-3.0057-4.801-6.8544-17.778-7.0667-23.189-0.37937-3.0089 3.7186-1.7556 4.1626 11.75 4.1626 7.15 0 13-0.34987 13-0.77749zm168.92 33.666c-10.158-1.4952-17.728-7.9782-20.517-17.571-4.413-15.18 3.0184-29.768 17.276-33.913 15.164-4.4082 30.12 5.6678 32.002 21.559l0.59643 5.0359h-39.279v2.3521c0 3.4306 4.0134 8.8834 8.0199 10.896 4.6499 2.3362 10.051 2.2069 16.075-0.38468 2.7312-1.1749 5.0999-1.9624 5.2637-1.75 0.16383 0.21242 1.527 2.039 3.0294 4.059l2.7315 3.6728-4.3793 2.5665c-5.0238 2.9442-14.119 4.4629-20.82 3.4766zm16.048-34.139c-0.0424-1.6666-1.9196-3.9637-4.9407-6.0459-3.092-2.1311-11.085-2.2427-15.016-0.20982-2.7548 1.4246-6.011 5.0693-6.011 6.7282 0 0.42762 5.85 0.77749 13 0.77749 9.7503 0 12.992-0.31247 12.968-1.25zm32.791 32.827c-2.0575-0.73433-4.8697-2.0747-6.2492-2.9787l-2.5083-1.6435 2.6321-3.9774c1.4477-2.1876 2.9272-3.9774 3.2878-3.9774s2.421 0.9 4.5786 2c6.6269 3.3786 13.5 2.1668 13.5-2.3802 0-2.9028-1.8843-4.5746-9.8066-8.7003-8.8067-4.5864-12.194-8.673-12.19-14.704 5e-3 -5.7279 2.6289-10.427 7.202-12.897 6.2363-3.3677 24.805-1.2097 24.789 2.8808-9e-3 2.1594-4.6611 9.1501-5.349 8.0371-1.1706-1.894-9.977-3.4409-13.014-2.2861-4.8042 1.8266-3.1786 4.9427 4.8686 9.3326 11.911 6.4978 16.486 12.65 15.059 20.253-0.80613 4.2971-4.99 9.3285-9.2305 11.1-4.1073 1.7161-12.677 1.6874-17.57-0.0589zm-386.75-22.327c0.0031-12.512 0.44744-24.341 0.98751-26.285 2.7306-9.829 11.746-18.453 23.007-22.009 6.3542-2.0063 22-3.8724 22-2.624 0 0.34611-1.4396 3.5487-3.1991 7.1168-3.0308 6.1461-3.4181 6.5204-7.3597 7.1114-6.7752 1.016-14.51 5.461-17.907 10.291l-3.0344 4.3144-0.30318 22.417-0.30318 22.417h-13.894l0.0056-22.75zm93.179 5.9168c0.31383-16.726 0.33503-16.864 3.3158-21.644 4.302-6.8986 11.37-10.687 21.107-11.311 4.0661-0.26094 7.3928-0.17531 7.3928 0.19031 0 0.36561-1.1326 2.8998-2.5168 5.6315-2.0445 4.0346-3.0042 4.9668-5.1138 4.9668-3.6261 0-9.7305 3.6485-11.709 6.9986-1.3424 2.2725-1.6599 5.602-1.6599 17.406v14.596h-11.132zm102.82-22.667v-39.5h11v23.5c0 12.925 0.34688 23.5 0.77085 23.5s4.8021-4.05 9.7292-9l8.9583-9 16.042 0.0804-21.416 20.42 9.0305 12c4.9668 6.6 9.9286 13.238 11.026 14.75l1.9956 2.75h-15.046l-7.1386-9.9987c-3.9262-5.4993-7.58-10.271-8.1193-10.605s-2.0724 0.41948-3.4067 1.673c-2.1912 2.0585-2.426 3.0848-2.426 10.605v8.3257h-11zm61 14.5v-25h6c5.3474 0 6 0.21907 6 2.0142 0 1.9012 0.23297 1.86 4.1518-0.73333 8.2579-5.4648 20.932-2.8353 25.582 5.3076 2.1021 3.6814 2.2345 5.0736 2.25 23.662l0.0165 19.75h-11v-16.032c0-17.087-0.95779-21.805-4.8496-23.887-2.9516-1.5796-7.8549-1.3202-10.737 0.56801-4.7555 3.116-5.4137 5.9488-5.4137 23.302v16.05h-12z" fill="#ffffff"/>
</svg>
