<?xml version="1.0" encoding="UTF-8" standalone="no"?>
<svg
   xmlns:dc="http://purl.org/dc/elements/1.1/"
   xmlns:cc="http://creativecommons.org/ns#"
   xmlns:rdf="http://www.w3.org/1999/02/22-rdf-syntax-ns#"
   xmlns:svg="http://www.w3.org/2000/svg"
   xmlns="http://www.w3.org/2000/svg"
   xmlns:sodipodi="http://sodipodi.sourceforge.net/DTD/sodipodi-0.dtd"
   xmlns:inkscape="http://www.inkscape.org/namespaces/inkscape"
   inkscape:version="1.0 (4035a4f, 2020-05-01)"
   sodipodi:docname="sustainx.svg"
   viewBox="0 0 649.92139 243.13361"
   height="243.13361"
   width="649.92139"
   id="svg893"
   version="1.1">
  <metadata
     id="metadata899">
    <rdf:RDF>
      <cc:Work
         rdf:about="">
        <dc:format>image/svg+xml</dc:format>
        <dc:type
           rdf:resource="http://purl.org/dc/dcmitype/StillImage" />
        <dc:title></dc:title>
      </cc:Work>
    </rdf:RDF>
  </metadata>
  <defs
     id="defs897">
    <inkscape:path-effect
       effect="powerclip"
       id="path-effect1037"
       is_visible="true"
       lpeversion="1"
       inverse="true"
       flatten="false"
       hide_clip="false"
       message="Use fill-rule evenodd on &lt;b&gt;fill and stroke&lt;/b&gt; dialog if no flatten result after convert clip to paths." />
    <inkscape:path-effect
       message="Use fill-rule evenodd on &lt;b&gt;fill and stroke&lt;/b&gt; dialog if no flatten result after convert clip to paths."
       hide_clip="false"
       flatten="false"
       inverse="true"
       lpeversion="1"
       is_visible="true"
       id="path-effect973"
       effect="powerclip" />
    <clipPath
       id="clipPath969"
       clipPathUnits="userSpaceOnUse">
      <path
         id="path971"
         d="m 856.94156,1174.0744 -1.87,-3.74 -0.26714,-3.4729 1.06857,-4.1407 2.13714,-3.0721 3.20572,-3.2057 3.47286,-2.4043 6.67858,-3.4729 4.27429,-1.87 4.27429,-1.87 1.73643,-0.8014 v 27.2486 l -3.07215,2.0035 -4.675,3.0722 -3.33929,1.4693 -4.00715,0.935 -3.47286,-0.8015 -2.805,-1.7364 -2.40429,-2.1371 z"
         style="display:none;fill:#e8c880;stroke:#000000;stroke-width:1px;stroke-linecap:butt;stroke-linejoin:miter;stroke-opacity:1" />
      <path
         d="m 836.31369,1108.9672 h 77.32006 v 86.9372 h -77.32006 z m 20.62787,65.1072 0.935,2.0036 2.40429,2.1371 2.805,1.7364 3.47286,0.8015 4.00715,-0.935 3.33929,-1.4693 4.675,-3.0722 3.07215,-2.0035 v -27.2486 l -1.73643,0.8014 -4.27429,1.87 -4.27429,1.87 -6.67858,3.4729 -3.47286,2.4043 -3.20572,3.2057 -2.13714,3.0721 -1.06857,4.1407 0.26714,3.4729 z"
         class="powerclip"
         style="fill:#e8c880;stroke:#000000;stroke-width:1px;stroke-linecap:butt;stroke-linejoin:miter;stroke-opacity:1"
         id="lpe_path-effect973" />
    </clipPath>
    <clipPath
       clipPathUnits="userSpaceOnUse"
       id="clipPath969-8">
      <path
         style="display:none;fill:#e8c880;stroke:#000000;stroke-width:1px;stroke-linecap:butt;stroke-linejoin:miter;stroke-opacity:1"
         d="m 856.94156,1174.0744 -1.87,-3.74 -0.26714,-3.4729 1.06857,-4.1407 2.13714,-3.0721 3.20572,-3.2057 3.47286,-2.4043 6.67858,-3.4729 4.27429,-1.87 4.27429,-1.87 1.73643,-0.8014 v 27.2486 l -3.07215,2.0035 -4.675,3.0722 -3.33929,1.4693 -4.00715,0.935 -3.47286,-0.8015 -2.805,-1.7364 -2.40429,-2.1371 z"
         id="path971-3" />
      <path
         id="lpe_path-effect973-0"
         style="fill:#e8c880;stroke:#000000;stroke-width:1px;stroke-linecap:butt;stroke-linejoin:miter;stroke-opacity:1"
         class="powerclip"
         d="m 836.31369,1108.9672 h 77.32006 v 86.9372 h -77.32006 z m 20.62787,65.1072 0.935,2.0036 2.40429,2.1371 2.805,1.7364 3.47286,0.8015 4.00715,-0.935 3.33929,-1.4693 4.675,-3.0722 3.07215,-2.0035 v -27.2486 l -1.73643,0.8014 -4.27429,1.87 -4.27429,1.87 -6.67858,3.4729 -3.47286,2.4043 -3.20572,3.2057 -2.13714,3.0721 -1.06857,4.1407 0.26714,3.4729 z" />
    </clipPath>
    <clipPath
       id="clipath_lpe_path-effect1037"
       clipPathUnits="userSpaceOnUse">
      <path
         id="path1039"
         d="m 856.94156,1174.0744 -1.87,-3.74 -0.26714,-3.4729 1.06857,-4.1407 2.13714,-3.0721 3.20572,-3.2057 3.47286,-2.4043 6.67858,-3.4729 4.27429,-1.87 4.27429,-1.87 1.73643,-0.8014 v 27.2486 l -3.07215,2.0035 -4.675,3.0722 -3.33929,1.4693 -4.00715,0.935 -3.47286,-0.8015 -2.805,-1.7364 -2.40429,-2.1371 z"
         style="display:none;fill:#e8c880;stroke:#000000;stroke-width:1px;stroke-linecap:butt;stroke-linejoin:miter;stroke-opacity:1" />
      <path
         d="m 836.31369,1108.9672 h 77.32006 v 86.9372 h -77.32006 z m 20.62787,65.1072 0.935,2.0036 2.40429,2.1371 2.805,1.7364 3.47286,0.8015 4.00715,-0.935 3.33929,-1.4693 4.675,-3.0722 3.07215,-2.0035 v -27.2486 l -1.73643,0.8014 -4.27429,1.87 -4.27429,1.87 -6.67858,3.4729 -3.47286,2.4043 -3.20572,3.2057 -2.13714,3.0721 -1.06857,4.1407 0.26714,3.4729 z"
         class="powerclip"
         style="fill:#e8c880;stroke:#000000;stroke-width:1px;stroke-linecap:butt;stroke-linejoin:miter;stroke-opacity:1"
         id="lpe_path-effect1037" />
    </clipPath>
  </defs>
  <sodipodi:namedview
     inkscape:current-layer="g901"
     inkscape:window-maximized="0"
     inkscape:window-y="23"
     inkscape:window-x="2476"
     inkscape:cy="190.79541"
     inkscape:cx="260.65049"
     inkscape:zoom="0.63040494"
     inkscape:pagecheckerboard="true"
     fit-margin-bottom="0"
     fit-margin-right="0"
     fit-margin-left="0"
     fit-margin-top="0"
     showgrid="false"
     id="namedview895"
     inkscape:window-height="1395"
     inkscape:window-width="1720"
     inkscape:pageshadow="2"
     inkscape:pageopacity="0"
     guidetolerance="10"
     gridtolerance="10"
     objecttolerance="10"
     borderopacity="1"
     bordercolor="#666666"
     pagecolor="#ffffff" />
  <g
     transform="translate(-583.6277,-695.62563)"
     id="g901"
     inkscape:label="Image"
     inkscape:groupmode="layer">
    <g
       style="fill:#ffffff"
       transform="translate(14.038261,-330.90187)"
       id="g1070">
      <g
         style="fill:#ffffff"
         id="g1055">
        <g
           style="fill:#ffffff"
           id="g988">
          <path
             style="fill:#ffffff;stroke:none;stroke-width:1px;stroke-linecap:butt;stroke-linejoin:miter;stroke-opacity:1"
             d="m 570.49788,1154.482 h 3.17957 l 1.36267,5.2992 1.9683,5.7535 2.57393,4.9965 2.27112,3.6338 4.23942,3.9366 4.08801,2.7253 3.9366,1.8169 6.96476,1.3627 h 6.05631 l 6.05632,-0.1514 5.45068,-1.3627 3.33097,-2.7253 2.87675,-3.4824 1.9683,-5.9049 0.15141,-5.6021 -1.9683,-5.9049 -3.63379,-4.5423 -6.66195,-4.2394 -8.32743,-5.6021 -8.02461,-3.9366 -5.7535,-4.088 -5.9049,-3.7852 -4.84505,-3.3309 -4.23942,-3.6338 -3.78519,-5.1479 -2.57394,-3.0282 -1.36267,-5.4506 -0.30281,-6.8134 0.60563,-5.6021 2.72534,-5.7535 4.23942,-4.845 4.69364,-3.7852 3.33097,-2.4225 5.14787,-1.5141 4.69364,-1.0599 4.39083,-1.0598 3.9366,0.1514 5.9049,0.757 3.7852,1.2113 5.14786,1.5141 3.63379,1.6654 2.87675,1.2113 2.27112,-0.1514 1.05985,-1.3627 1.05986,-1.2112 0.45422,-2.1197 0.30282,-0.9085 h 2.27111 l 1.05986,0.3028 0.45422,1.6655 0.45422,3.1796 0.30282,5.2992 -0.45422,11.3556 0.1514,4.3909 -0.30281,4.2394 v 3.9366 l -0.15141,2.2711 -1.9683,0.1514 -1.9683,-0.3028 -1.21127,-4.088 -0.90844,-7.1162 -2.72534,-4.2394 -4.54224,-5.7535 -4.23942,-3.331 -3.63378,-2.2711 -3.7852,-1.3627 -4.39082,-0.6056 -4.99646,-0.1514 -3.63379,0.4542 -4.08801,1.6655 -3.33097,2.4225 -2.57393,3.0282 -2.27112,3.7852 -0.45423,3.4824 0.30282,4.2394 0.45422,2.7253 2.27112,1.9683 2.57393,2.2711 2.57394,1.9683 6.20772,4.8451 4.39082,2.4225 3.93661,2.2711 8.63024,4.9965 4.84505,2.2711 6.35913,3.7852 6.51053,4.8451 4.54224,5.7535 1.9683,4.6936 1.21126,5.2993 0.15141,7.419 v 4.6936 l -1.51408,5.4507 -3.17956,4.5422 -5.14787,5.1479 -5.45068,4.2394 -6.81335,2.4225 -6.66194,0.6056 -8.47884,0.1515 -6.51054,-1.2113 -7.8732,-2.2711 -4.23942,-1.6655 -3.48238,-1.0599 -2.72534,0.3029 -1.66549,0.6056 -1.9683,1.6655 -0.15141,1.2112 -0.30281,1.6655 h -1.9683 l -1.36267,-0.1514 z"
             id="path939" />
          <path
             style="fill:#ffffff;stroke:none;stroke-width:1px;stroke-linecap:butt;stroke-linejoin:miter;stroke-opacity:1"
             d="m 649.18632,1120.0243 v -3.2055 h 25.29735 v 53.2804 l 0.60644,1.9059 0.77971,2.1659 1.03962,1.9926 1.73269,1.7327 1.9926,1.2129 2.77231,0.953 2.59905,0.3465 3.72529,-0.2599 3.20549,-0.6931 2.33913,-1.2995 2.42578,-1.646 2.07923,-1.4728 4.50501,-3.6387 v -45.3966 l -0.60645,-1.8193 -1.29952,-1.8194 -1.73269,-1.4728 -2.42577,-1.0396 -3.55203,-0.1732 h -2.68568 v -2.859 h 25.90379 v 57.6121 l 0.51981,1.6461 1.03962,1.8193 0.86635,0.953 1.73269,0.6931 h 4.2451 l 0.43318,-0.5198 0.43317,-0.8664 0.95298,0.1733 1.12625,1.1262 0.34654,1.2996 v 1.4727 l -3.46539,1.4728 -16.98041,6.7575 h -4.85154 l 0.0866,-14.2947 -2.59904,3.1189 -3.55202,3.8985 -4.67828,3.3788 -4.41837,2.4258 -3.81193,1.4727 h -11.08925 l -5.28472,-3.1188 -2.59904,-2.6857 -2.59904,-3.8119 -1.90597,-3.2055 -0.69307,-2.7723 v -47.8224 l -0.86635,-2.2525 -2.51241,-2.5124 -2.94558,-1.2129 -1.9926,-0.953 z"
             id="path941" />
          <path
             style="fill:#ffffff;stroke:none;stroke-width:1px;stroke-linecap:butt;stroke-linejoin:miter;stroke-opacity:1"
             d="m 737.47294,1163.749 3.04544,-0.078 1.09323,3.0455 1.09324,3.1235 1.24941,3.1235 1.40559,2.4989 1.56176,2.0303 1.63985,1.796 0.93706,1.0151 1.3275,1.1714 2.18647,1.4055 2.42073,1.2495 1.79603,0.7808 3.20161,0.7809 1.95221,0.2343 2.10838,-0.078 2.57691,-0.7809 2.03029,-1.0932 1.79603,-1.0152 1.63985,-1.5618 1.95221,-2.5769 0.85897,-2.655 0.15617,-2.8111 -0.15617,-1.718 -1.3275,-2.4207 -1.71794,-2.4988 -2.88926,-2.1865 -3.59206,-2.4988 -5.9347,-3.3578 -6.79367,-3.4359 -4.76338,-2.655 -3.82632,-3.2016 -2.57691,-2.4988 -2.34265,-2.8112 -1.01515,-2.3427 -0.78088,-3.8263 -0.39044,-5.8566 0.23427,-2.9673 1.24941,-3.0455 2.34264,-3.2797 3.35779,-3.2016 2.96735,-2.2646 2.49883,-1.2494 4.45102,-0.937 3.90441,-0.5466 3.51397,0.1561 4.68529,0.859 2.73309,1.0152 2.49882,0.7027 2.26456,0.6248 2.10838,-0.3124 1.3275,-1.1713 0.78088,-1.9522 h 2.88926 v 25.4567 h -2.96735 l -0.15618,-1.7179 -0.54661,-2.2646 -2.18647,-4.0606 -0.78088,-2.9673 -2.655,-3.6702 -2.88927,-2.8111 -3.2797,-1.718 -2.81117,-0.7809 -5.70044,-0.3123 -3.9825,0.7028 -2.10838,1.1713 -3.04544,3.8263 -0.93706,2.1084 0.0781,3.4359 0.62471,2.4988 1.09323,2.9674 1.56177,1.6398 2.57691,2.1865 3.51396,2.0303 4.68529,2.5769 5.23191,2.1865 4.68529,2.3426 4.45103,2.4988 4.29485,3.1236 3.12353,3.592 2.49882,5.0757 0.46853,4.2949 -0.23427,5.5443 -1.63985,5.6223 -3.12353,3.7482 -3.82632,3.3578 -5.38808,2.4988 -4.45103,1.7961 h -8.12117 l -5.15382,-0.7809 -3.59205,-1.2494 -3.51397,-1.0152 h -3.20162 l -2.57691,0.078 -0.0781,1.9522 h -3.59205 z"
             id="path943" />
          <path
             style="fill:#ffffff;stroke:none;stroke-width:1px;stroke-linecap:butt;stroke-linejoin:miter;stroke-opacity:1"
             d="m 793.4093,1122.1689 -0.0967,-2.61 2.70663,-1.2566 2.99663,-2.03 3.86661,-2.8033 2.60996,-2.8033 2.70663,-3.4799 2.70663,-4.1566 2.02998,-3.6733 1.54664,-3.19 0.29,-3.4799 h 3.09329 v 23.973 h 16.91644 v 6.0899 h -16.81978 v 50.7493 l 1.15999,2.9 1.64331,2.8999 2.02997,0.7734 2.8033,0.1933 2.02997,-0.3867 2.02997,-0.6766 1.44998,-1.0633 1.73998,-1.5467 1.15998,-1.74 0.58,-1.16 h 1.15998 l 0.86999,1.16 0.0967,1.2567 -1.64331,2.7066 -2.12664,3.3833 -4.15661,3.3833 -4.4466,2.8033 -2.22331,0.3866 -7.82989,-0.1933 -2.12664,-1.16 -2.5133,-2.1266 -2.51329,-2.9966 -1.15999,-2.61 -0.38666,-1.74 v -55.8726 z"
             id="path963" />
          <path
             style="fill:#ffffff;stroke:none;stroke-width:1px;stroke-linecap:butt;stroke-linejoin:miter;stroke-opacity:1"
             d="m 843.05012,1179.6844 -1.46929,-4.1407 -0.26714,-2.9386 v -3.74 l 1.60286,-3.0721 1.60286,-3.4729 3.07214,-3.8736 4.67501,-3.3393 3.87357,-2.9385 4.14072,-2.5379 2.27072,-0.935 3.60643,-1.87 4.40786,-2.0036 3.33929,-1.0686 4.14072,-1.7364 3.20572,-1.3357 0.66785,-3.4729 v -4.0071 l -0.26714,-4.1407 -1.33572,-3.3393 -1.06857,-2.5379 -2.805,-1.7364 -3.07215,-0.5343 -5.07572,-0.2671 -3.33928,0.5343 -2.93858,1.2021 -2.00357,2.2707 -1.33572,2.4043 v 4.9422 3.6064 l -1.06857,2.0036 -1.20214,1.7364 -2.00358,1.3357 -3.47286,0.935 -2.40429,-0.6679 -2.00357,-1.8699 -2.27072,-2.8051 -0.13357,-4.1407 1.33572,-4.4078 2.27072,-4.1408 3.87357,-3.74 6.01072,-3.74 5.61001,-1.7364 5.07571,-0.4007 6.67858,0.2671 4.94215,0.8015 4.80858,1.3357 5.07571,2.9386 2.13715,3.6064 2.40429,4.1407 0.66786,5.61 -0.13358,7.48 0.13358,11.3536 0.13357,16.4293 v 6.2779 l 0.66785,3.2057 1.33572,2.0036 2.13715,0.4007 1.73643,-1.3357 2.27071,-1.3358 2.13715,-2.2707 1.46928,-1.0686 1.33572,0.4008 0.40071,2.1371 -0.53428,2.0036 -2.805,3.2057 -3.33929,3.4729 -3.47286,2.9385 -3.33929,1.87 -4.40786,1.0686 -4.80858,-1.4693 -1.87,-2.0035 -1.33572,-2.805 -0.53428,-4.1408 -0.66786,-2.1371 -2.27072,2.0036 -4.40786,3.4728 -4.675,3.0722 -5.87715,3.2057 -5.87715,0.5343 -6.27786,-1.6029 -2.93858,-1.6029 -3.20572,-2.9385 -2.00357,-2.2707 z"
             id="path965"
             clip-path="url(#clipPath969)"
             inkscape:path-effect="#path-effect973"
             inkscape:original-d="m 843.05012,1179.6844 -1.46929,-4.1407 -0.26714,-2.9386 v -3.74 l 1.60286,-3.0721 1.60286,-3.4729 3.07214,-3.8736 4.67501,-3.3393 3.87357,-2.9385 4.14072,-2.5379 2.27072,-0.935 3.60643,-1.87 4.40786,-2.0036 3.33929,-1.0686 4.14072,-1.7364 3.20572,-1.3357 0.66785,-3.4729 v -4.0071 l -0.26714,-4.1407 -1.33572,-3.3393 -1.06857,-2.5379 -2.805,-1.7364 -3.07215,-0.5343 -5.07572,-0.2671 -3.33928,0.5343 -2.93858,1.2021 -2.00357,2.2707 -1.33572,2.4043 v 4.9422 3.6064 l -1.06857,2.0036 -1.20214,1.7364 -2.00358,1.3357 -3.47286,0.935 -2.40429,-0.6679 -2.00357,-1.8699 -2.27072,-2.8051 -0.13357,-4.1407 1.33572,-4.4078 2.27072,-4.1408 3.87357,-3.74 6.01072,-3.74 5.61001,-1.7364 5.07571,-0.4007 6.67858,0.2671 4.94215,0.8015 4.80858,1.3357 5.07571,2.9386 2.13715,3.6064 2.40429,4.1407 0.66786,5.61 -0.13358,7.48 0.13358,11.3536 0.13357,16.4293 v 6.2779 l 0.66785,3.2057 1.33572,2.0036 2.13715,0.4007 1.73643,-1.3357 2.27071,-1.3358 2.13715,-2.2707 1.46928,-1.0686 1.33572,0.4008 0.40071,2.1371 -0.53428,2.0036 -2.805,3.2057 -3.33929,3.4729 -3.47286,2.9385 -3.33929,1.87 -4.40786,1.0686 -4.80858,-1.4693 -1.87,-2.0035 -1.33572,-2.805 -0.53428,-4.1408 -0.66786,-2.1371 -2.27072,2.0036 -4.40786,3.4728 -4.675,3.0722 -5.87715,3.2057 -5.87715,0.5343 -6.27786,-1.6029 -2.93858,-1.6029 -3.20572,-2.9385 -2.00357,-2.2707 z" />
          <path
             sodipodi:nodetypes="ccccccccccccccccccccccccccccccccc"
             style="fill:#ffffff;stroke:none;stroke-width:1px;stroke-linecap:butt;stroke-linejoin:miter;stroke-opacity:1"
             d="m 913.80771,1188.9595 v -4.1904 l 5.56178,-0.3048 2.20947,-1.1428 1.98091,-2.2857 1.06664,-3.4285 0.99046,-7.9998 v -32.685 l -0.0762,-3.8094 -0.99045,-3.8857 -1.59997,-2.7428 -1.59996,-1.1428 -1.75234,-0.2286 h -2.51423 l -0.99046,0.6857 -1.06664,0.8381 -1.82853,-0.7619 -0.22857,-1.5999 0.53332,-1.6762 5.86654,-2.5904 4.34276,-1.9047 3.12374,-1.0667 2.51423,-1.3714 4.038,-1.4475 h 4.1142 v 65.5985 l 1.75234,2.3619 1.14283,1.2952 1.90472,0.9904 2.59042,0.3048 2.89517,-0.076 0.0762,4.2664 z"
             id="path977" />
          <path
             sodipodi:nodetypes="ccccccccccccccccccccccccccccccccccccccccccccccccccccccccccccccccc"
             style="fill:#ffffff;stroke:none;stroke-width:1px;stroke-linecap:butt;stroke-linejoin:miter;stroke-opacity:1"
             d="m 954.64489,1188.9595 0.38095,-4.0381 6.01891,-0.076 2.51423,-2.5142 1.98091,-4.7999 0.22856,-5.9427 v -41.2181 l -1.44758,-3.2761 -1.52378,-1.4476 -1.98091,-0.6095 -4.41894,0.1523 -1.06665,1.1429 -1.21902,-1.0667 v -1.8285 l 1.59997,-1.0666 19.19957,-7.9999 h 1.75234 l 1.90472,1.2952 v 3.1238 l 0.38094,9.676 2.81899,-3.6571 5.638,-4.5713 5.6379,-3.8095 5.9428,-2.0571 5.1808,-0.1523 6.0951,1.3714 4.9523,4.038 3.3523,4.1903 2.2856,5.4095 0.8381,8.914 v 41.0658 l 0.9905,2.5142 1.9047,2.2857 1.7523,1.2952 2.7428,0.2286 2.7428,0.076 v 3.3523 h -34.5135 v -4.2666 h 6.3999 l 0.9904,-0.4571 1.1429,-1.2191 1.2952,-1.3714 1.219,-2.2094 v -44.1895 l -0.6857,-3.2 -1.1428,-2.5142 -1.3714,-1.7523 -1.9048,-1.6762 -1.5999,-1.2952 h -4.6475 l -3.8857,0.2286 -2.6666,1.219 -3.80942,2.2857 -2.28566,1.8285 -3.73325,3.1999 -1.67616,1.3714 v 45.7133 l 0.76189,1.6761 0.99046,1.2191 0.83807,0.6095 1.52378,0.838 h 6.78079 v 3.9619 z"
             id="path979" />
        </g>
        <path
           id="path1044"
           d="m 931.65619,1077.1396 3.07545,0.8611 2.09131,1.7222 1.59923,2.5834 0.36906,2.8294 -0.24604,3.4445 -1.84527,2.8295 -2.58338,1.7222 -2.82941,0.3691 -2.33735,-0.2461 -2.82941,-1.2301 -1.96829,-1.9683 -1.47622,-2.8295 v -2.9524 l 0.73811,-2.7064 2.21433,-2.4603 2.70639,-1.7223 z"
           style="fill:#ffffff;stroke:none;stroke-width:1px;stroke-linecap:butt;stroke-linejoin:miter;stroke-opacity:1" />
      </g>
      <path
         sodipodi:nodetypes="ccccccccccccccccccccccccccccccccccccccccccccccccccccccccccccccccccccccccccccccccccccccccccccccccccccccccccccccccccccccccccccccccccccccccccccccccccccccccccccccccccccccccccccccccccccccccccccccccccccccccccccccc"
         style="fill:#ffffff;stroke:none;stroke-width:1px;stroke-linecap:butt;stroke-linejoin:miter;stroke-opacity:1"
         d="m 1006.6586,1227.9219 h 25.84 v -3.2424 h -11.2738 l -3.2924,-1.1973 -2.0951,-1.9953 -0.8979,-1.9954 -0.1996,-5.188 1.5963,-2.594 40.3065,-48.0884 1.6961,-1.7958 1.4965,-0.898 1.297,-0.1 1.0975,0.5987 2.2946,3.0928 39.0096,49.585 0.9976,1.3967 0.1996,1.5963 v 2.1949 l -0.3991,2.1949 -1.4965,1.3968 -1.4966,1.1972 -5.9861,0.5986 -7.0835,0.1996 v 3.0431 h 64.65 v -3.0431 l -2.6938,-0.4989 -3.9907,-0.4988 -3.1926,-0.8979 -3.9907,-1.7959 -3.6915,-2.3944 -3.9907,-3.2924 -5.3875,-5.188 -4.7889,-4.4895 -2.3945,-3.2924 -2.3944,-2.9931 -0.3991,-1.3967 0.3991,-0.9977 1.1972,0.1 3.2924,2.9931 6.884,5.9861 11.0743,8.3805 -20.1532,-20.9514 0.6984,-0.7981 2.1949,0.3991 22.4479,10.6752 -22.1486,-14.1671 -0.1996,-0.898 0.898,-0.4988 1.4965,0.2993 24.0442,4.29 -25.0419,-8.3805 -0.3034,-0.5804 0.6028,-0.4932 1.4247,-0.1095 27.2887,-1.096 -2.2466,-0.9863 -7.1236,-0.9316 -18.5761,-0.2739 -1.3151,-0.4932 0.274,-0.8768 1.1507,-0.6575 6.6852,-1.6987 43.5086,-13.2608 -50.7417,11.6717 h -0.9864 l -0.8767,-0.6576 0.055,-0.7671 0.9863,-0.548 71.5097,-41.4263 -73.6468,38.7413 -0.4931,0.1095 -1.1508,-0.1095 -0.1644,-0.548 0.7672,-1.1507 0.9315,-0.6576 28.2751,-29.2614 49.591,-48.7143 -81.8662,77.1537 -0.548,0.548 -0.7123,0.1644 -0.4932,-0.3836 v -0.9863 l 0.548,-0.822 0.6027,-1.0411 38.6865,-66.9616 -41.9195,64.9889 -0.6028,1.3699 -0.5479,0.4932 -0.6576,-0.2192 -0.3288,-0.4932 0.055,-1.2055 15.5075,-52.2212 -18.0829,51.3993 -0.3836,1.0411 -0.8219,1.2055 -0.9864,0.3288 -0.7671,-0.6576 -0.1096,-1.0959 -0.1096,-28.9874 -2.0823,27.5627 -0.2192,1.1507 -0.9315,0.6576 -0.8768,-0.1096 -0.4931,-0.7671 -7.2332,-28.4395 3.8906,29.097 -0.1644,0.6028 -0.4932,0.2192 -0.6576,-0.2192 -13.4251,-23.3434 10.0825,25.3709 -0.1095,0.7123 h -0.7672 l -1.3699,-0.7671 -16.6582,-18.6857 -0.5137,-1.1189 1.245,-2.3122 41.0855,-47.3106 3.735,-3.3793 4.0908,-3.2015 6.4029,-3.3793 5.8694,-2.3122 3.3793,-0.8893 5.3358,-1.4228 0.8893,-0.1779 -0.1779,-3.9129 h -56.5593 v 4.4465 l 3.913,0.1778 3.735,0.7115 3.735,0.5336 2.8458,1.4228 1.245,2.1343 0.3557,6.0473 -2.8457,4.6243 -7.4701,9.0708 -13.3395,15.1181 -11.3829,14.2287 -0.7115,1.245 -1.4229,0.8893 -1.7786,-1.4229 -35.3939,-43.7533 -0.3558,-2.1344 0.1779,-1.9564 1.6007,-2.3122 3.2015,-3.0236 3.5572,-0.7114 4.0907,-0.8893 h 2.8458 3.2015 v -4.4465 h -49.2671 l -0.3557,-0.7114 0.7115,-2.3122 2.49,-3.0236 3.2015,-4.0908 4.8022,-4.6243 6.0472,-5.3358 3.735,-3.5572 6.5808,-4.6243 9.0708,-6.0472 11.7387,-5.3358 15.2959,-6.0472 11.2052,-2.6679 9.6044,-1.4229 10.6715,-0.7114 8.893,0.1778 9.2487,0.8893 13.6951,2.4901 12.0945,3.9129 15.4737,6.4029 14.9402,9.2487 12.0944,9.6044 8.7151,8.7151 8.0037,9.6044 8.7151,12.4501 6.4029,15.2959 3.3794,13.1616 3.0236,12.4502 1.245,11.3829 v 13.5173 l -0.7115,10.4937 -2.49,14.0509 -6.5808,16.8967 -6.7586,12.9837 -8.0037,10.6715 -7.2922,9.9602 -8.893,8.7151 -12.0944,8.7151 -13.3395,8.1815 -17.2523,7.4701 -12.0944,3.0236 -11.383,2.1343 -12.8059,0.5336 -12.2723,-0.3557 -10.6715,-1.0672 -9.7823,-1.6007 -15.6516,-4.9801 -9.7823,-5.1579 -10.4937,-6.4029 -7.1143,-4.8022 -7.2923,-5.3358 -6.4029,-4.9801 -3.2015,-3.3793 z"
         id="path1057" />
    </g>
  </g>
</svg>
