<?xml version="1.0" encoding="UTF-8" standalone="no"?>
<svg
   xmlns:dc="http://purl.org/dc/elements/1.1/"
   xmlns:cc="http://creativecommons.org/ns#"
   xmlns:rdf="http://www.w3.org/1999/02/22-rdf-syntax-ns#"
   xmlns:svg="http://www.w3.org/2000/svg"
   xmlns="http://www.w3.org/2000/svg"
   xmlns:sodipodi="http://sodipodi.sourceforge.net/DTD/sodipodi-0.dtd"
   xmlns:inkscape="http://www.inkscape.org/namespaces/inkscape"
   inkscape:version="1.0 (4035a4f, 2020-05-01)"
   sodipodi:docname="vconsyst.svg"
   xml:space="preserve"
   style="enable-background:new 0 0 277.2 52.1;"
   viewBox="0 0 277.2 52.1"
   y="0px"
   x="0px"
   id="logo-vconsyst"
   version="1.1"><metadata
   id="metadata1055"><rdf:RDF><cc:Work
       rdf:about=""><dc:format>image/svg+xml</dc:format><dc:type
         rdf:resource="http://purl.org/dc/dcmitype/StillImage" /><dc:title></dc:title></cc:Work></rdf:RDF></metadata><defs
   id="defs1053" /><sodipodi:namedview
   inkscape:current-layer="logo-vconsyst"
   inkscape:window-maximized="0"
   inkscape:window-y="23"
   inkscape:window-x="2476"
   inkscape:cy="26.049999"
   inkscape:cx="138.60001"
   inkscape:zoom="3.9538238"
   inkscape:pagecheckerboard="true"
   showgrid="false"
   id="namedview1051"
   inkscape:window-height="1395"
   inkscape:window-width="1720"
   inkscape:pageshadow="2"
   inkscape:pageopacity="0"
   guidetolerance="10"
   gridtolerance="10"
   objecttolerance="10"
   borderopacity="1"
   bordercolor="#666666"
   pagecolor="#ffffff" />
  <g
   style="fill:#ffffff"
   id="g1048">
    <path
   style="fill:#ffffff"
   id="path1024"
   d="M112.1,38.6h-5.7l-5.9-16.2h5.2l2.3,6.5c0.4,1.2,0.9,2.7,1.3,4.5h0c0.4-1.6,0.9-3.3,1.3-4.5l2.2-6.5h5       L112.1,38.6z"
   class="st-CO" />
    <path
   style="fill:#ffffff"
   id="path1026"
   d="M133.9,38.9c-5.6,0-8.2-3.2-8.2-8c0-4.5,2.8-8.8,9.1-8.8c0.8,0,2.1,0.1,3.1,0.4l-0.4,4.1       c-0.9-0.3-1.9-0.4-2.9-0.4c-2.2,0-3.8,1.6-3.8,4.3c0,2.8,1.6,4.1,4,4.1c1.1,0,2-0.2,2.8-0.6l0.4,4.2       C136.7,38.7,135.3,38.9,133.9,38.9"
   class="st1" />
    <path
   style="fill:#ffffff"
   id="path1028"
   d="M159.5,30.5c0,2.9-1.7,4.2-3.6,4.2c-2.2,0-3.5-1.7-3.5-4.2c0-2.7,1.7-4.1,3.5-4.1       C158.1,26.3,159.5,27.7,159.5,30.5 M164.7,30.3c0-5.7-3.8-8.2-8.4-8.2c-4.7,0-9,3.4-9,8.6c0,5,3,8.2,8.4,8.2       C160.4,38.9,164.7,35.6,164.7,30.3"
   class="st1" />
    <path
   style="fill:#ffffff"
   id="path1030"
   d="M185,38.6l-4-6.9c-0.5-0.8-1-2-1.3-2.8h0c0,0.7,0.1,1.2,0.1,2.2v7.5H175V22.4h6.5l3.9,6.6c0.5,0.9,1,1.9,1.5,3       h0c-0.1-0.9-0.1-2-0.1-3.2l0-6.4h4.7v16.2H185z"
   class="st1" />
    <path
   style="fill:#ffffff"
   id="path1032"
   d="M205.7,39c-1,0-2.1-0.2-3-0.3l0.2-4.2c0.9,0.3,2,0.5,3.2,0.5c1.2,0,1.9-0.5,1.9-1.3c0-2-5.8-0.7-5.8-6       c0-3.3,2.4-5.5,7.2-5.5c0.8,0,1.9,0.1,2.8,0.3l-0.1,4c-0.8-0.2-1.9-0.4-2.8-0.4c-1.3,0-1.8,0.5-1.8,1.2c0,1.8,5.9,1.1,5.9,5.9       C213.2,36.5,210.6,39,205.7,39"
   class="st1" />
    <path
   style="fill:#ffffff"
   id="path1034"
   d="M231.6,33.6v5h-4.8v-4.9L221,22.4h5.3l1.7,3.5c0.4,0.9,0.9,1.9,1.3,3h0c0.4-1.2,0.9-2.2,1.4-3.1l1.7-3.4h5       L231.6,33.6z"
   class="st1" />
    <path
   style="fill:#ffffff"
   id="path1036"
   d="M248.5,39c-1,0-2.1-0.2-3-0.3l0.2-4.2c0.9,0.3,2,0.5,3.2,0.5c1.2,0,1.9-0.5,1.9-1.3c0-2-5.8-0.7-5.8-6       c0-3.3,2.4-5.5,7.2-5.5c0.8,0,1.9,0.1,2.8,0.3l-0.1,4c-0.8-0.2-1.9-0.4-2.8-0.4c-1.3,0-1.8,0.5-1.8,1.2c0,1.8,5.9,1.1,5.9,5.9       C256,36.5,253.4,39,248.5,39"
   class="st1" />
    <polygon
   style="fill:#ffffff"
   id="polygon1038"
   points="273.2,26.5 273.2,38.6 268.4,38.6 268.4,26.5 264.5,26.5 264.5,22.4 277.2,22.4 277.2,26.5  "
   class="st1" />
    <rect
   style="fill:#ffffff"
   id="rect1040"
   height="18.4"
   width="36.9"
   class="st-CO"
   transform="matrix(0.707 -0.7072 0.7072 0.707 3.3557 47.1866)"
   y="10.3"
   x="40.2" />
    <rect
   style="fill:#ffffff"
   id="rect1042"
   height="18.4"
   width="18.4"
   class="st1"
   transform="matrix(0.7072 -0.707 0.707 0.7072 -8.5605 57.5024)"
   y="29.9"
   x="55.9" />
    <rect
   style="fill:#ffffff"
   id="rect1044"
   height="18.4"
   width="18.4"
   class="st1"
   transform="matrix(0.7071 -0.7071 0.7071 0.7071 -5.397 13.0284)"
   y="3.8"
   x="3.8" />

    <rect
   style="fill:#ffffff"
   id="rect1046"
   height="18.4"
   width="36.8"
   class="st-CO"
   transform="matrix(0.7071 -0.7071 0.7071 0.7071 -17.3076 23.3571)"
   y="23.4"
   x="1.1" />
  </g>
</svg>
